<?xml version="1.0" encoding="utf-8"?>
<!-- Generator: Adobe Illustrator 16.0.0, SVG Export Plug-In . SVG Version: 6.00 Build 0)  -->
<!DOCTYPE svg PUBLIC "-//W3C//DTD SVG 1.1//EN" "http://www.w3.org/Graphics/SVG/1.1/DTD/svg11.dtd">
<svg version="1.1" id="Layer_1" xmlns="http://www.w3.org/2000/svg" xmlns:xlink="http://www.w3.org/1999/xlink" x="0px" y="0px"
	 width="520px" height="520px" viewBox="0 0 520 520" enable-background="new 0 0 520 520" xml:space="preserve">
<g>
	<circle fill="#1E1E1E" cx="259.2" cy="259.6" r="256"/>
</g>
<g>
	<path fill-rule="evenodd" clip-rule="evenodd" fill="#FFFFFF" d="M268.82,295.719c0.861-2.587,1.771-5.159,2.573-7.763
		c1.414-4.587,2.775-9.19,4.138-13.794c1.174-3.969,2.339-4.906,6.45-4.898c11.646,0.014,23.295-0.032,34.94,0.154
		c4.252,0.067,6.977-1.652,9.061-5.266c8.39-14.558,16.913-29.039,25.401-43.542c0.889-1.515,1.87-2.977,3.064-4.869
		c1.11,1.878,2.057,3.344,2.87,4.882c7.648,14.46,15.329,28.903,22.863,43.423c1.886,3.633,4.294,5.269,8.599,5.215
		c19.381-0.244,38.767-0.105,58.147-0.237c2.581-0.018,3.391,0.721,3.249,3.284c-0.246,4.434-0.294,8.889-0.195,13.328
		c0.052,2.278-0.81,2.829-2.95,2.822c-21.252-0.062-42.505-0.04-63.756-0.032c-2.489,0.001-4.98,0.032-7.467,0.108
		c-3.416,0.104-5.629-1.473-7.188-4.49c-4.244-8.214-8.634-16.351-12.976-24.514c-0.529-0.997-1.115-1.964-1.891-3.325
		c-1,1.356-1.863,2.343-2.526,3.45c-4.695,7.859-9.477,15.675-13.97,23.65c-2.14,3.798-5.016,5.344-9.318,5.256
		c-10.399-0.215-20.802-0.194-31.206-0.222c-4.115-0.011-5.553,1.163-6.816,5.335c-7.365,24.333-14.713,48.668-22.106,72.991
		c-0.501,1.65-1.318,3.202-1.987,4.8c-0.276-0.01-0.55-0.019-0.825-0.028c-0.299-1.122-0.636-2.236-0.89-3.368
		c-7.503-33.296-15.002-66.595-22.495-99.895c-3.474-15.436-6.937-30.874-10.405-46.312c-0.079-0.346-0.107-0.724-0.268-1.029
		c-0.269-0.505-0.626-0.962-0.945-1.44c-0.41,0.48-1.039,0.897-1.195,1.449c-1.452,5.131-2.826,10.286-4.215,15.435
		c-6.813,25.23-13.622,50.462-20.437,75.69c-0.274,1.017-0.601,2.02-1.132,3.784c-9.601-17.071-18.879-33.569-28.378-50.462
		c-1.281,1.9-2.386,3.459-3.41,5.066c-2.818,4.424-5.705,8.808-8.366,13.326c-1.9,3.23-4.494,4.865-8.249,4.854
		c-22.939-0.06-45.881-0.102-68.821-0.089c-1.916,0.001-2.429-0.744-2.42-2.523c0.024-4.62,0.009-9.248-0.21-13.861
		c-0.109-2.313,0.56-3.064,2.957-3.037c13.602,0.166,27.205,0.184,40.811,0.219c5.602,0.016,11.213-0.266,16.801-0.002
		c3.736,0.177,5.946-1.41,7.794-4.398c6.823-11.044,13.753-22.021,20.657-33.012c0.982-1.563,2.053-3.072,3.401-5.079
		c7.054,12.621,13.873,24.822,21.126,37.796c11.557-43.162,22.921-85.603,34.283-128.041c0.402-0.014,0.803-0.028,1.203-0.043
		c11.861,53.083,23.723,106.166,35.585,159.249C268.128,295.717,268.474,295.718,268.82,295.719z"/>
</g>
</svg>
