<svg xmlns="http://www.w3.org/2000/svg" width="512" height="512"><circle cx="256" cy="256" r="256" fill="#1e1e1e"/><path d="M211.12 330L181 278.49 150.94 330h-46.41l53.3-91.55-50.75-86.95h46.41L181 198.67l27.54-47.17H255l-50.74 86.95L257.53 330zM396 151.5V330h-38.25v-12c-8.42 9.7-20.91 15.56-38 15.56-33.4 0-60.94-29.33-60.94-67.32s27.54-67.32 60.94-67.32c17.09 0 29.58 5.86 38 15.55v-63zm-38.25 114.75c0-19.13-12.75-31.11-30.35-31.11s-30.34 12-30.34 31.11 12.75 31.11 30.34 31.11 30.35-11.99 30.35-31.11z" fill="#fff"/></svg>