<svg width="512" height="512" fill="none" xmlns="http://www.w3.org/2000/svg"><circle fill="#1E1E1E" cx="256" cy="256" r="256"/><path d="M383.5 327.487l-100.438-174H271.55l-3.358-5.85h-40.16L209.16 180.36l7.889 13.664-39.217 67.901-23.703 13.664-25.591 44.387h-.038l19.967 34.574h6.907l5.586 9.813h200.912l21.628-36.876zm-142.447-13.21l7.662 13.248h-66.392l69.374-119.838 61.711 106.665-72.355-.075z" fill="#fff"/><path fill-rule="evenodd" clip-rule="evenodd" d="M226.03 248.222l42.089 73.128-17.338 9.979-42.09-73.128 17.339-9.979zm17.4-32.868l57.368 99.672-17.33 9.974-57.368-99.672 17.33-9.974z" fill="#fff"/></svg>