<svg xmlns="http://www.w3.org/2000/svg" width="512" height="512"><circle cx="256" cy="256" r="256" fill="#1e1e1e"/><path d="M217.12 302h-66.31l-8.92 28H97.26L158 151.5h52L270.67 330H226zm-12.24-38.3L184 198.16l-20.95 65.54zm140.75 35.7c10.46 0 19.38-4.08 24.48-9.69l30.6 17.59c-12.49 17.34-31.36 26.27-55.59 26.27-43.6 0-70.63-29.33-70.63-67.32s27.54-67.32 67.83-67.32c37.23 0 64.77 28.81 64.77 67.32a74.19 74.19 0 0 1-1.53 15.3H315c4.88 13.26 16.61 17.85 30.63 17.85zm23.46-46.4c-4.08-14.79-15.55-20.15-27-20.15-14.53 0-24.22 7.14-27.79 20.15z" fill="#fff"/></svg>