<svg xmlns="http://www.w3.org/2000/svg" width="512" height="512"><circle fill="#1e1e1e" cx="256" cy="256" r="256"/><path fill="#fff" d="M152.854 352.91c7.654-6.912 15.643-14.09 17.752-15.947s3.848-3.568 3.863-3.801c.027-.424-22.404-15.518-23.42-15.76-.301-.072-.74.492-.986 1.268-.547 1.727-7.531 27.855-11.426 42.74-.832 3.178-.844 4.068-.057 4.068.196 0 6.618-5.658 14.274-12.568zm211.916 11.175c4.076-5.344 6.359-16.906 5.389-27.273-1.107-11.793-4.318-19.953-10.471-26.623-4.564-4.947-8.428-6.025-12.848-3.584-6.889 3.809-13.424 7.846-14.396 8.891-2.898 3.123-2.699 8.211.576 14.711 3.312 6.568 6.912 10.32 14.922 15.549 8.264 5.395 11.617 9.521 13.43 16.514.58 2.244 1.178 3.182 2.041 3.201.162.003.773-.62 1.357-1.386zm-178.932-48.488c15.631-27.867 35.576-62.448 47.963-83.161 2.701-4.517 4.914-8.342 4.914-8.502 0-.519-23.26-14.812-23.879-14.676-.621.137-21.414 35.141-36.178 60.899-4.68 8.166-11.637 19.789-15.459 25.83-3.82 6.041-7.525 11.896-8.23 13.014-.74 1.172-1.125 2.186-.906 2.393 1.047 1.002 24.512 16.023 24.865 15.916.227-.068 3.336-5.34 6.91-11.713zm151.934-9.898c6.039-3.436 11.348-6.586 11.791-7.002.789-.74.758-.838-1.471-4.689a4821.169 4821.169 0 0 1-6.766-11.75c-2.467-4.297-4.77-7.871-5.119-7.938-.922-.184-23.754 13.141-23.91 13.949-.129.674 11.861 21.814 13.193 23.258.383.414.832.68.996.586.167-.094 5.245-2.979 11.286-6.414zm45.498-22.342c.17-.305.268-6.805.217-14.447l-.092-13.897-25.695-.107c-22.418-.096-25.676-.032-25.557.511.074.341 3.654 6.893 7.951 14.557l7.812 13.936 1.691.127c.932.068 8.818.068 17.525 0 12.52-.098 15.9-.24 16.146-.68zm-81.289-.596c.07-.211-3.188-6.354-7.242-13.646l-7.369-13.258h-62.658l-7.398 13.395c-4.068 7.365-7.305 13.545-7.189 13.73.292.473 91.696.256 91.856-.221zm-134.576-2.297c.836-1.453 4.299-7.439 7.689-13.303 3.393-5.863 6.168-10.854 6.168-11.092 0-.289-8.654-.394-26.295-.321l-26.295.108-.141 2.957c-.078 1.625-.01 7.758.152 13.623l.293 10.666h36.904l1.525-2.638zm154.947-5.386c10.729-5.904 10.562-5.801 10.562-6.557 0-.734-5.652-10.729-24.842-43.923-21.094-36.488-30.385-52.572-36.559-63.295-6.086-10.57-7.525-12.541-10.135-13.873-2.057-1.049-5.344-1.211-7.467-.371-2.027.803-9.16 4.959-11.047 6.433-3.025 2.366-4.174 7.045-2.631 10.734.83 1.99.266.999 20.221 35.448 31.412 54.233 47.559 81.583 48.559 82.251.246.164 1.4-.236 2.566-.891 1.164-.656 6.011-3.335 10.773-5.956zm-77.59-62.413c5.004-8.348 5.734-9.807 6.043-12.043.635-4.644-1.809-7.754-9.529-12.131-4.377-2.482-5.088-2.752-7.656-2.897-3.504-.198-5.238.538-7.65 3.259-1.809 2.036-8.807 14.489-8.793 15.648.004.413 4.357 3.334 11.512 7.721 6.326 3.88 11.635 7.063 11.795 7.075.159.01 2.085-2.974 4.278-6.632z"/></svg>