<?xml version="1.0" encoding="utf-8"?>
<!-- Generator: Adobe Illustrator 16.0.0, SVG Export Plug-In . SVG Version: 6.00 Build 0)  -->
<!DOCTYPE svg PUBLIC "-//W3C//DTD SVG 1.1//EN" "http://www.w3.org/Graphics/SVG/1.1/DTD/svg11.dtd">
<svg version="1.1" id="Layer_1" xmlns="http://www.w3.org/2000/svg" xmlns:xlink="http://www.w3.org/1999/xlink" x="0px" y="0px"
	 width="520px" height="520px" viewBox="0 0 520 520" enable-background="new 0 0 520 520" xml:space="preserve">
<g>
	<circle fill="#1E1E1E" cx="260" cy="259.905" r="256"/>
</g>
<path id="path3319" sodipodi:nodetypes="ssccscsssssscssscsssscsssccsscssccccscscscsccccccscccsccsssscsscccsssssscsssscsssssscscs" inkscape:connector-curvature="0" fill="#FFFFFF" d="
	M156.855,356.815c7.654-6.912,15.643-14.09,17.752-15.947c2.109-1.858,3.848-3.568,3.863-3.802
	c0.027-0.424-22.404-15.517-23.42-15.759c-0.301-0.072-0.74,0.492-0.986,1.268c-0.547,1.726-7.531,27.854-11.426,42.74
	c-0.832,3.177-0.844,4.067-0.057,4.067C142.777,369.383,149.199,363.726,156.855,356.815L156.855,356.815z M368.771,367.991
	c4.076-5.345,6.359-16.906,5.389-27.273c-1.107-11.794-4.318-19.953-10.471-26.624c-4.564-4.947-8.428-6.024-12.848-3.583
	c-6.889,3.808-13.424,7.845-14.396,8.891c-2.898,3.123-2.699,8.211,0.576,14.71c3.312,6.568,6.912,10.32,14.922,15.55
	c8.264,5.395,11.617,9.521,13.43,16.514c0.58,2.244,1.178,3.182,2.041,3.2C367.576,369.38,368.188,368.757,368.771,367.991z
	 M189.84,319.503c15.631-27.868,35.576-62.449,47.963-83.162c2.701-4.517,4.914-8.342,4.914-8.502
	c0-0.519-23.26-14.812-23.879-14.676c-0.621,0.137-21.414,35.141-36.178,60.9c-4.68,8.165-11.637,19.789-15.459,25.829
	c-3.82,6.041-7.525,11.897-8.23,13.015c-0.74,1.171-1.125,2.185-0.906,2.392c1.047,1.003,24.512,16.023,24.865,15.916
	C183.156,331.146,186.266,325.876,189.84,319.503L189.84,319.503z M341.773,309.604c6.039-3.436,11.348-6.585,11.791-7.001
	c0.789-0.74,0.758-0.838-1.471-4.69c-1.254-2.163-4.297-7.451-6.766-11.749c-2.467-4.297-4.77-7.871-5.119-7.938
	c-0.922-0.184-23.754,13.14-23.91,13.948c-0.129,0.675,11.861,21.814,13.193,23.259c0.383,0.414,0.832,0.679,0.996,0.585
	C330.654,315.925,335.732,313.039,341.773,309.604L341.773,309.604z M387.271,287.263c0.17-0.305,0.268-6.805,0.217-14.448
	l-0.092-13.897l-25.695-0.107c-22.418-0.096-25.676-0.032-25.557,0.511c0.074,0.341,3.654,6.894,7.951,14.558l7.812,13.936
	l1.691,0.126c0.932,0.069,8.818,0.069,17.525,0c12.52-0.098,15.9-0.239,16.146-0.679V287.263z M305.982,286.667
	c0.07-0.211-3.188-6.354-7.242-13.646l-7.369-13.259h-31.328h-31.33l-7.398,13.395c-4.068,7.366-7.305,13.545-7.189,13.73
	C214.418,287.36,305.822,287.144,305.982,286.667L305.982,286.667z M171.406,284.369c0.836-1.453,4.299-7.438,7.689-13.302
	c3.393-5.864,6.168-10.855,6.168-11.093c0-0.289-8.654-0.394-26.295-0.321l-26.295,0.108l-0.141,2.958
	c-0.078,1.625-0.01,7.757,0.152,13.622l0.293,10.666h18.451h18.453L171.406,284.369z M326.354,278.982
	c10.729-5.903,10.562-5.8,10.562-6.556c0-0.735-5.652-10.729-24.842-43.924c-21.094-36.488-30.385-52.572-36.559-63.295
	c-6.086-10.57-7.525-12.541-10.135-13.873c-2.057-1.049-5.344-1.211-7.467-0.371c-2.027,0.803-9.16,4.959-11.047,6.433
	c-3.025,2.366-4.174,7.045-2.631,10.734c0.83,1.99,0.266,0.999,20.221,35.448c31.412,54.233,47.559,81.584,48.559,82.251
	c0.246,0.165,1.4-0.236,2.566-0.891C316.744,284.284,321.592,281.604,326.354,278.982z M248.764,216.569
	c5.004-8.348,5.734-9.807,6.043-12.043c0.635-4.644-1.809-7.754-9.529-12.131c-4.377-2.482-5.088-2.752-7.656-2.897
	c-3.504-0.198-5.238,0.538-7.65,3.259c-1.809,2.036-8.807,14.489-8.793,15.648c0.004,0.413,4.357,3.334,11.512,7.721
	c6.326,3.88,11.635,7.063,11.795,7.075C244.645,223.212,246.57,220.228,248.764,216.569z"/>
</svg>
