<?xml version="1.0" encoding="utf-8"?>
<!-- Generator: Adobe Illustrator 16.0.0, SVG Export Plug-In . SVG Version: 6.00 Build 0)  -->
<!DOCTYPE svg PUBLIC "-//W3C//DTD SVG 1.1//EN" "http://www.w3.org/Graphics/SVG/1.1/DTD/svg11.dtd">
<svg version="1.1" id="Layer_1" xmlns="http://www.w3.org/2000/svg" xmlns:xlink="http://www.w3.org/1999/xlink" x="0px" y="0px"
	 width="520px" height="520px" viewBox="0 0 520 520" enable-background="new 0 0 520 520" xml:space="preserve">
<g>
	<circle fill="#1E1E1E" cx="260" cy="260.095" r="256"/>
</g>
<g>
	<path fill="none" stroke="#FFFFFF" stroke-width="10" stroke-linecap="round" d="M345.672,191.613
		c4.718-24.007,2.079-42.227-9.069-49.464c-3.716-2.414-8.171-3.47-13.187-3.279c-27.076,1.027-70.766,38.311-106.461,93.277
		c-42.307,65.146-57.341,130.435-33.558,145.88c11.292,7.33,29.28,2.134,49.604-12.348"/>
	<path fill="none" stroke="#FFFFFF" stroke-width="10" stroke-linecap="round" d="M367.369,298.145
		c20.078-7.79,32.427-18.453,33.069-30.696c1.484-28.321-60.147-54.54-137.718-58.604c-7.271-0.381-14.422-0.582-21.418-0.559
		c-67.616,0.228-120.396,18.776-121.742,44.441c-0.64,12.222,10.495,24.071,29.581,33.906"/>
	<path fill="none" stroke="#FFFFFF" stroke-width="10" stroke-linecap="round" d="M240.814,149.405
		c-13.738-11.398-26.622-17.521-36.976-16.744c-2.756,0.206-5.304,0.885-7.675,2.093c-25.265,12.874-17.195,79.459,18.069,148.67
		c35.265,69.212,84.334,114.872,109.602,101.998c24.301-12.382,17.742-74.428-14.162-140.718"/>
	<path fill="none" stroke="#FFFFFF" stroke-width="10" stroke-miterlimit="10" d="M277.649,262.076
		c0,9.248-7.494,16.744-16.744,16.744c-9.245,0-16.743-7.496-16.743-16.744l0,0c0-9.247,7.498-16.743,16.743-16.743
		C270.155,245.333,277.649,252.829,277.649,262.076z"/>
</g>
</svg>
