<svg width="512" height="512" fill="none" xmlns="http://www.w3.org/2000/svg"><circle cx="256" cy="256" r="256" fill="#1E1E1E"/><path d="M342.445 383.994c-25.173-1.723-93.832-6.318-140.116-27.337C164.898 339.658 146 305.241 146 305.241s13.17-62.266 22.969-86.991c9.775-24.663 35.776-61.079 35.776-61.079S201.937 129 213.8 129c14.716 0 28.383 14.774 28.383 14.774s44.633-6.091 59.412 11.385c16.729 19.781 54.653 30.7 54.653 30.7s13.573-3.975 7.98 17.299c-5.593 21.275-24.392 39.977-62.058 40.004-13.448.01-17.652 8.231-16.942 18.946 1.485 22.408 23.677 56.732 23.677 56.732s44.215 65.885 33.54 65.154z" fill="#fff"/><path fill-rule="evenodd" clip-rule="evenodd" d="M262.269 299.566c-3.029-28.957-17.354-43.782-23.615-53.209-15.162-22.827-15.162-39.422-15.162-39.422s12.535 20.975 24.983 28.442c12.449 7.467 50.443 8.027 50.443 8.027s-12.421.602-13.543 14.767c-.169 2.133.033 13.536 7.181 29.835C300.188 305.407 350.5 380 343.5 384s-40.307-3.19-48.5-4c-8.193-.81-40-7-40-7s9.336-53.674 7.269-73.434z" fill="#EFEFEF"/></svg>