<?xml version="1.0" encoding="utf-8"?>
<!-- Generator: Adobe Illustrator 16.0.0, SVG Export Plug-In . SVG Version: 6.00 Build 0)  -->
<!DOCTYPE svg PUBLIC "-//W3C//DTD SVG 1.1//EN" "http://www.w3.org/Graphics/SVG/1.1/DTD/svg11.dtd">
<svg version="1.1" id="Layer_1" xmlns="http://www.w3.org/2000/svg" xmlns:xlink="http://www.w3.org/1999/xlink" x="0px" y="0px"
	 width="520px" height="520px" viewBox="0 0 520 520" enable-background="new 0 0 520 520" xml:space="preserve">
<g>
	<g>
		<circle fill="#1E1E1E" cx="259.2" cy="259.467" r="256"/>
	</g>
	<path id="path3010" sodipodi:nodetypes="scsssssscssssccssssssssscsssccssss" inkscape:connector-curvature="0" fill="#FFFFFF" d="
		M254.388,279.785l-0.127-83.92l-1.295-4.13c-2.422-7.719-6.127-13.562-12.46-19.647c-10.183-9.784-23.658-15.502-40.717-17.28
		c-17.704-1.846-39.856,3.722-55.045,13.834c-8.504,5.66-11.793,9.951-12.712,16.577c-0.262,1.889-0.387,33.633-0.312,78.665
		c0.112,66.214,0.215,75.673,0.835,76.907c1.372,2.727,3.539,2.135,12.301-3.359c9.668-6.062,16.354-9.068,25.303-11.376
		c7.917-2.041,14.326-2.853,22.542-2.853c19.57,0,36.113,6.795,48.662,19.987c5.154,5.415,7.66,9.459,10.808,17.437
		c0.861,2.183,1.713,3.711,1.939,3.484C254.337,363.886,254.459,326.449,254.388,279.785L254.388,279.785z M265.277,362.951
		c3.797-10.021,6.853-15.041,12.796-21.012c9.204-9.251,21.613-15.539,35.283-17.878c4.83-0.827,6.926-0.929,14.774-0.719
		c10.046,0.271,16.764,1.376,25.07,4.124c4.406,1.458,14.353,6.144,17.326,8.162c4.512,3.062,11.385,6.804,12.497,6.804
		c2.014,0,2.873-1.434,3.3-5.499c0.493-4.693,0.503-146.02,0.011-150.697c-0.736-7.005-4.085-11.708-12.24-17.188
		c-13.749-9.241-30.915-14.349-48.31-14.381c-7.798-0.013-11.448,0.398-18.76,2.109c-22.162,5.188-38.316,19.584-42.355,37.746
		l-1.028,4.627l0.091,61.675c0.049,33.922,0.103,71.119,0.116,82.664c0.016,11.727,0.209,20.987,0.439,20.987
		C264.515,364.476,264.96,363.791,265.277,362.951z"/>
</g>
</svg>
