<svg xmlns="http://www.w3.org/2000/svg" width="512" height="512"><circle fill="#1e1e1e" cx="256" cy="256" r="256"/><path fill="#fff" d="M251.188 276.32l-.127-83.92-1.295-4.13c-2.422-7.719-6.127-13.562-12.46-19.647-10.183-9.784-23.658-15.502-40.717-17.28-17.704-1.846-39.856 3.722-55.045 13.834-8.504 5.66-11.793 9.951-12.712 16.577-.262 1.889-.387 33.633-.312 78.665.112 66.215.215 75.674.835 76.908 1.372 2.727 3.539 2.135 12.301-3.359 9.668-6.062 16.354-9.068 25.303-11.377 7.917-2.041 14.326-2.852 22.542-2.852 19.57 0 36.113 6.795 48.662 19.986 5.154 5.416 7.66 9.459 10.808 17.438.861 2.182 1.713 3.711 1.939 3.484s.35-37.663.278-84.327zm10.89 83.166c3.797-10.021 6.853-15.041 12.796-21.012 9.204-9.252 21.613-15.539 35.283-17.879 4.83-.826 6.926-.928 14.774-.719 10.046.271 16.764 1.377 25.07 4.125 4.406 1.457 14.353 6.143 17.326 8.162 4.512 3.061 11.385 6.803 12.497 6.803 2.014 0 2.873-1.434 3.3-5.498.493-4.693.503-146.021.011-150.697-.736-7.005-4.085-11.708-12.24-17.188-13.749-9.241-30.915-14.349-48.31-14.381-7.798-.013-11.448.398-18.76 2.109-22.162 5.188-38.316 19.584-42.355 37.746l-1.028 4.627.091 61.675c.049 33.922.103 71.119.116 82.664.016 11.727.209 20.986.439 20.986.227 0 .673-.683.99-1.523z"/></svg>