<svg xmlns="http://www.w3.org/2000/svg" width="512" height="512"><circle fill="#1E1E1E" cx="256" cy="256" r="256"/><path fill="#FFF" d="M367.071 201.357a36.303 36.303 0 0 0-36.429-36.429c-20.048-.053-36.344 16.155-36.397 36.206a36.303 36.303 0 0 0 18.184 31.551v5.465c-.365 9.472-4.189 17.85-11.476 25.136s-15.663 11.11-25.136 11.476c-15.117.364-26.957 2.912-36.428 8.195v-86.7c17.372-10.005 23.344-32.202 13.338-49.574a36.303 36.303 0 0 0-31.553-18.183c-20.218 0-36.246 16.211-36.246 36.429a36.426 36.426 0 0 0 18.214 31.328v119.486c-10.746 6.375-18.214 18.032-18.214 31.328a36.303 36.303 0 0 0 36.429 36.429 36.303 36.303 0 0 0 36.428-36.429c0-9.654-3.644-18.214-9.654-24.771 1.639-1.091 8.745-7.468 10.746-8.562 4.553-2.002 10.202-3.096 17.123-3.096 19.126-.911 35.517-8.195 50.089-22.768s21.856-36.063 22.769-55.008h-.365c11.112-6.555 18.578-18.213 18.578-31.509zm-145.714-58.286c12.022 0 21.858 10.018 21.858 21.857s-10.019 21.856-21.858 21.856c-11.84 0-21.859-10.016-21.859-21.856s10.02-21.857 21.859-21.857zm0 226.039c-12.022 0-21.859-10.017-21.859-21.856s10.019-21.856 21.859-21.856c11.839 0 21.858 10.017 21.858 21.856s-10.018 21.856-21.858 21.856zm109.286-145.714c-12.02 0-21.856-10.017-21.856-21.856 0-11.84 10.017-21.856 21.856-21.856s21.856 10.017 21.856 21.856c0 11.839-10.017 21.856-21.856 21.856z"/></svg>