<svg width="512" height="512" fill="none" xmlns="http://www.w3.org/2000/svg"><path d="M256 512c141.385 0 256-114.615 256-256S397.385 0 256 0 0 114.615 0 256s114.615 256 256 256z" fill="#1E1E1E"/><path d="M345.219 126.794s46.356 56.251 46.356 68.273c0 12.023-5.831 15.195-11.694 21.445l-34.758 37.05c-3.289 3.505-10.134 8.82-6.108 18.386 4.027 9.565 9.968 21.738 3.362 34.084-6.607 12.346-17.924 20.586-25.176 19.224-7.252-1.364-24.283-10.298-30.546-14.378-6.262-4.081-26.112-20.515-26.112-26.802 0-6.287 20.518-17.576 24.309-20.141 3.792-2.564 21.082-12.492 21.436-16.388.354-3.898.219-5.04-4.884-14.669-5.102-9.629-14.291-22.478-12.762-31.027 1.53-8.548 16.35-12.994 26.926-17.003 10.574-4.009 30.937-11.58 33.48-12.757 2.544-1.178 1.887-2.3-5.819-3.033-7.705-.733-29.571-3.647-39.429-.889-9.858 2.759-26.7 6.955-28.064 9.18-1.365 2.226-2.568 2.301-1.167 9.977 1.4 7.677 8.613 44.512 9.313 51.055.701 6.543 2.07 10.868-4.957 12.481-7.029 1.613-18.86 4.413-22.925 4.413-4.065 0-15.897-2.8-22.925-4.413-7.028-1.613-5.659-5.938-4.958-12.481.701-6.543 7.913-43.378 9.314-51.055 1.4-7.676.197-7.751-1.167-9.977-1.364-2.225-18.206-6.421-28.065-9.18-9.858-2.758-31.723.156-39.428.889-7.706.733-8.363 1.855-5.819 3.033 2.543 1.177 22.906 8.748 33.48 12.757 10.576 4.009 25.396 8.455 26.926 17.003 1.529 8.549-7.661 21.398-12.762 31.027-5.103 9.629-5.238 10.771-4.884 14.669.353 3.896 17.644 13.824 21.435 16.388 3.792 2.565 24.309 13.854 24.309 20.141 0 6.287-19.849 22.721-26.111 26.802-6.263 4.08-23.294 13.014-30.546 14.378-7.252 1.362-18.569-6.878-25.176-19.224-6.606-12.346-.665-24.519 3.361-34.084 4.026-9.566-2.818-14.881-6.108-18.386l-34.757-37.05c-5.863-6.25-11.694-9.422-11.694-21.445 0-12.022 46.356-68.273 46.356-68.273s39.115 7.5 44.39 7.5c5.274 0 16.701-4.411 27.249-7.941 10.548-3.529 17.58-3.555 17.58-3.555s7.032.026 17.58 3.555c10.548 3.53 21.975 7.941 27.249 7.941 5.275 0 44.39-7.5 44.39-7.5zm-34.75 215.17c2.869 1.804 1.119 5.204-1.495 7.059-2.614 1.854-37.74 29.158-41.149 32.176-3.41 3.018-8.419 8.003-11.825 8.003-3.406 0-8.417-4.985-11.825-8.003-3.41-3.018-38.535-30.322-41.15-32.176-2.614-1.855-4.363-5.255-1.494-7.059 2.87-1.802 11.847-6.353 24.235-12.788 12.386-6.434 27.824-11.904 30.234-11.904 2.409 0 17.846 5.47 30.234 11.904 12.387 6.435 21.365 10.986 24.235 12.788z" fill="#fff"/></svg>