<?xml version="1.0" encoding="utf-8"?>
<!-- Generator: Adobe Illustrator 16.0.0, SVG Export Plug-In . SVG Version: 6.00 Build 0)  -->
<!DOCTYPE svg PUBLIC "-//W3C//DTD SVG 1.1//EN" "http://www.w3.org/Graphics/SVG/1.1/DTD/svg11.dtd">
<svg version="1.1" id="Layer_1" xmlns="http://www.w3.org/2000/svg" xmlns:xlink="http://www.w3.org/1999/xlink" x="0px" y="0px"
	 width="520px" height="520px" viewBox="0 0 520 520" enable-background="new 0 0 520 520" xml:space="preserve">
<g>
	<circle fill="#1E1E1E" cx="260" cy="260.343" r="256"/>
</g>
<g>
	<g>
		<rect x="297" y="361.642" fill="#FFFFFF" width="108" height="20"/>
	</g>
	<g>
		<rect x="297" y="321.042" fill="#FFFFFF" width="108" height="20"/>
	</g>
</g>
<g>
	<rect x="297" y="159.342" fill="#FFFFFF" width="108" height="20"/>
</g>
<polygon fill="#FFFFFF" points="223,159.341 179,159.341 179,115.343 159,115.343 159,159.341 115,159.341 115,179.341 159,179.341 
	159,223.341 179,223.341 179,179.341 223,179.341 "/>
<polygon fill="#FFFFFF" points="214.254,382.455 183.141,351.341 214.252,320.23 200.11,306.087 168.999,337.199 137.885,306.087 
	123.745,320.228 154.856,351.341 123.745,382.455 137.885,396.597 168.999,365.484 200.112,396.597 "/>
</svg>
