<?xml version="1.0" encoding="utf-8"?>
<!-- Generator: Adobe Illustrator 16.0.0, SVG Export Plug-In . SVG Version: 6.00 Build 0)  -->
<!DOCTYPE svg PUBLIC "-//W3C//DTD SVG 1.1//EN" "http://www.w3.org/Graphics/SVG/1.1/DTD/svg11.dtd">
<svg version="1.1" id="Layer_1" xmlns="http://www.w3.org/2000/svg" xmlns:xlink="http://www.w3.org/1999/xlink" x="0px" y="0px"
	 width="520px" height="520px" viewBox="0 0 520 520" enable-background="new 0 0 520 520" xml:space="preserve">
<g>
	<g>
		<circle fill="#1E1E1E" cx="260.4" cy="261" r="256"/>
	</g>
	
		<rect x="136.378" y="150.551" transform="matrix(0.9877 -0.1564 0.1564 0.9877 -25.3507 41.0024)" fill="#A7A9AC" width="222.878" height="62.013"/>
	
		<rect x="153.319" y="204.937" transform="matrix(0.9877 -0.1564 0.1564 0.9877 -41.874 44.9688)" fill="#FFFFFF" width="222.877" height="167.159"/>
	<g>
		<path fill="#FFFFFF" d="M217.837,190.636c0.469,2.434,2.604,3.845,5.231,3.429c3.188-0.505,4.612-2.685,4.054-6.216l-3.305-20.863
			l3.61-0.572l3.308,20.882c0.871,5.498-1.782,9.249-7.118,10.094c-4.816,0.763-8.677-1.792-9.372-6.186L217.837,190.636z"/>
		<path fill="#FFFFFF" d="M239.593,183.509c0.693,4.373,4.064,7.088,9.08,6.293c5.014-0.794,7.381-4.417,6.688-8.791l-2.939-18.557
			l3.613-0.572l2.978,18.797c0.979,6.179-2.631,11.315-9.812,12.453c-7.184,1.138-12.201-2.633-13.18-8.812l-2.977-18.797
			l3.609-0.572L239.593,183.509z"/>
		<path fill="#FFFFFF" d="M283.804,187.158l-17.571,2.784l-4.585-28.947l3.609-0.572l4.07,25.697l13.962-2.211L283.804,187.158z"/>
	</g>
	<g>
		<path d="M221.336,257.408l-0.282,0.044l-23.816,23.463l-2.103-13.271l23.948-23.555l12.375-1.96l15.965,100.796l-12.235,1.938
			L221.336,257.408z"/>
		<path d="M310.768,241.31l-0.045-0.279l-54.635,8.653l-1.771-11.175l67.151-10.636l1.848,11.665l-31.023,96.28l-13.292,2.105
			L310.768,241.31z"/>
	</g>
</g>
</svg>
