<svg xmlns="http://www.w3.org/2000/svg" width="512" height="512"><circle fill="#1e1e1e" cx="256" cy="256" r="256"/><path fill="#efefef" d="M128.497 163.371l220.136-34.858 9.699 61.25-220.136 34.859z"/><path fill="#fff" d="M137.212 218.406l220.135-34.858 26.144 165.104-220.135 34.858z"/><path d="M213.438 185.636c.469 2.434 2.604 3.845 5.231 3.429 3.188-.505 4.612-2.685 4.054-6.216l-3.305-20.863 3.61-.571 3.308 20.882c.871 5.498-1.782 9.249-7.118 10.095-4.816.763-8.677-1.793-9.372-6.186l3.592-.57zm21.756-7.127c.693 4.373 4.064 7.088 9.08 6.294 5.014-.794 7.381-4.418 6.688-8.791l-2.939-18.557 3.613-.572 2.978 18.798c.979 6.179-2.631 11.315-9.812 12.453-7.184 1.138-12.201-2.633-13.18-8.812l-2.977-18.797 3.609-.572 2.94 18.556zm44.211 3.65l-17.572 2.783-4.584-28.947 3.609-.571 4.07 25.697 13.961-2.212.516 3.25zm-62.468 70.249l-.282.045-23.816 23.463-2.103-13.272 23.948-23.554 12.375-1.961 15.965 100.797-12.235 1.938-13.852-87.456zm89.431-16.098l-.045-.279-54.634 8.653-1.771-11.176 67.151-10.636 1.848 11.665-31.023 96.28-13.291 2.104 31.765-96.611z" fill="#1e1e1e"/></svg>