<?xml version="1.0" encoding="utf-8"?>
<!-- Generator: Adobe Illustrator 16.0.0, SVG Export Plug-In . SVG Version: 6.00 Build 0)  -->
<!DOCTYPE svg PUBLIC "-//W3C//DTD SVG 1.1//EN" "http://www.w3.org/Graphics/SVG/1.1/DTD/svg11.dtd">
<svg version="1.1" id="Layer_1" xmlns="http://www.w3.org/2000/svg" xmlns:xlink="http://www.w3.org/1999/xlink" x="0px" y="0px"
	 width="520px" height="520px" viewBox="0 0 520 520" enable-background="new 0 0 520 520" xml:space="preserve">
<g>
	<g>
		<circle fill="#1E1E1E" cx="259.2" cy="259.466" r="256"/>
	</g>
	<g>
		<g>
			<path fill-rule="evenodd" clip-rule="evenodd" fill="#FFFFFF" d="M259.265,353.525c-34.868,0-69.737,0.013-104.607-0.004
				c-14.937-0.008-22.987-8.039-22.958-22.875c0.07-37.997,0.15-75.995,0.238-113.994c0.034-15.455,7.888-23.222,23.489-23.241
				c10.878-0.012,21.757-0.094,32.634,0.024c8.911,0.1,15.411-3.727,19.808-11.384c1.408-2.453,2.804-4.93,4.418-7.247
				c4.094-5.872,9.751-9.259,16.946-9.305c19.668-0.127,39.339-0.142,59.008,0.007c7.553,0.058,14.185,3.355,17.253,10.137
				c6.691,14.793,17.9,19.411,33.284,17.915c8.561-0.832,17.271-0.218,25.913-0.128c13.482,0.138,21.791,8.412,21.824,21.782
				c0.099,38.595,0.165,77.19,0.186,115.784c0.009,14.361-8.112,22.508-22.38,22.52
				C329.302,353.548,294.282,353.525,259.265,353.525z M313.682,271.332c0.812-28.918-23.021-53.754-52.471-54.677
				c-29.263-0.918-54.395,22.589-55.304,51.732c-0.939,30.047,22.431,55.243,51.91,55.967
				C288.302,325.1,312.825,301.825,313.682,271.332z M329.97,220.644c0.017-4.062-3.213-7.393-7.288-7.52
				c-4.136-0.13-7.618,3.421-7.533,7.678c0.085,4.269,3.142,7.22,7.451,7.196C326.742,227.973,329.953,224.771,329.97,220.644z"/>
			<path fill-rule="evenodd" clip-rule="evenodd" fill="#FFFFFF" d="M185.858,188.046c-8.191,0-16.143,0-24.041,0
				c-1.738-8.856,0.371-11.519,8.884-11.533c1.928-0.005,3.856-0.005,5.783-0.002C185.42,176.525,186.991,178.363,185.858,188.046z"
				/>
		</g>
		<path fill-rule="evenodd" clip-rule="evenodd" fill="#FFFFFF" d="M259.658,316.062c-24.803,0-44.975-20.131-44.992-44.898
			c-0.018-25.021,20.309-45.441,45.146-45.357c24.727,0.083,44.945,20.319,45.026,45.064
			C304.919,295.848,284.709,316.062,259.658,316.062z"/>
	</g>
</g>
</svg>
