<svg xmlns="http://www.w3.org/2000/svg" width="512" height="512"><circle fill="#1E1E1E" cx="256" cy="256" r="256"/><g fill-rule="evenodd" clip-rule="evenodd" fill="#FFF"><path d="M256.065 350.06c-34.868 0-69.737.012-104.607-.005-14.937-.007-22.987-8.038-22.958-22.874.07-37.998.15-75.995.238-113.995.034-15.455 7.888-23.222 23.489-23.241 10.878-.012 21.757-.094 32.634.024 8.911.1 15.411-3.727 19.808-11.384 1.408-2.453 2.804-4.93 4.418-7.247 4.094-5.872 9.751-9.259 16.946-9.305a4205.3 4205.3 0 0 1 59.008.007c7.553.058 14.185 3.355 17.253 10.137 6.691 14.793 17.9 19.411 33.284 17.915 8.561-.832 17.271-.218 25.913-.128 13.482.138 21.791 8.412 21.824 21.782.099 38.595.165 77.189.186 115.784.009 14.36-8.112 22.508-22.38 22.52-35.018.031-70.038.01-105.056.01zm54.417-82.194c.812-28.918-23.021-53.755-52.471-54.678-29.263-.918-54.395 22.589-55.304 51.732-.939 30.047 22.431 55.242 51.91 55.966 30.486.748 55.009-22.528 55.865-53.02zm16.289-50.689c.017-4.062-3.213-7.393-7.288-7.52-4.136-.13-7.618 3.421-7.533 7.678.085 4.269 3.142 7.22 7.451 7.196 4.142-.024 7.353-3.227 7.37-7.354z"/><path d="M182.659 184.58h-24.041c-1.738-8.856.371-11.519 8.884-11.533 1.928-.005 3.856-.005 5.783-.002 8.936.014 10.507 1.851 9.374 11.535zM256.459 312.597c-24.803 0-44.975-20.131-44.992-44.899-.018-25.021 20.309-45.441 45.146-45.357 24.727.083 44.945 20.319 45.026 45.065.081 24.975-20.129 45.191-45.18 45.191z"/></g></svg>