<?xml version="1.0" encoding="utf-8"?>
<!-- Generator: Adobe Illustrator 16.0.0, SVG Export Plug-In . SVG Version: 6.00 Build 0)  -->
<!DOCTYPE svg PUBLIC "-//W3C//DTD SVG 1.1//EN" "http://www.w3.org/Graphics/SVG/1.1/DTD/svg11.dtd">
<svg version="1.1" id="Layer_1" xmlns="http://www.w3.org/2000/svg" xmlns:xlink="http://www.w3.org/1999/xlink" x="0px" y="0px"
	 width="520px" height="520px" viewBox="0 0 520 520" enable-background="new 0 0 520 520" xml:space="preserve">
<g>
	<circle fill="#1E1E1E" cx="259.2" cy="259.2" r="256"/>
</g>
<g>
	<path fill="#FFFFFF" d="M335.619,386.7c0.007-9.489,0.046-18.979,0.004-28.469c-0.015-3.484-2.752-6.321-6.232-6.691
		c-0.501-0.054-1.001-0.11-1.568-0.174c0.093-2.633,0.146-5.147-1.877-7.131c-2.06-2.018-4.665-1.758-7.287-1.772
		c-0.43-3.662-0.685-7.267,0.218-10.784c3.148-12.267,6.188-24.568,9.682-36.738c3.578-12.467,7.788-24.753,9.806-37.626
		c1.421-9.071,1.92-18.176,1.094-27.327c-0.952-10.523-3.819-20.56-8.024-30.223c-9.647-22.174-25.748-37.312-48.938-44.596
		c-3.312-1.04-5.7-2.895-7.48-5.793c-2.703-4.406-5.773-8.548-9.491-12.159c-1.88-1.825-3.902-3.502-6.163-5.517
		c-0.269,2.552-0.662,4.646-0.674,6.742c-0.02,3.722,0.169,7.446,0.308,11.169c0.155,4.137-1.414,5.909-5.493,6.535
		c-2.715,0.418-5.383,1.141-8.26,1.766c0,1.961,0.01,3.73-0.002,5.5c-0.021,3.066-1.649,4.999-4.381,6.126
		c-2.438,1.006-4.83,2.156-7.333,2.96c-5.274,1.694-9.421,4.85-12.734,9.208c-0.708,0.932-1.423,1.859-2.183,2.747
		c-2.701,3.158-5.153,6.587-8.189,9.384c-6.689,6.16-13.665,12.01-20.548,17.958c-2.72,2.352-5.562,4.562-8.239,6.958
		c-2.412,2.158-3.707,4.884-2.738,8.149c0.612,2.06,0.484,3.996-0.035,5.996c-0.16,0.624-0.265,1.273-0.297,1.917
		c-0.353,7.192,4.639,15.267,11.207,18.159c9.168,4.038,17.926,3.727,26.045-2.585c1.875-1.457,3.579-3.14,5.33-4.755
		c3.249-2.995,6.939-4.983,11.478-4.466c2.165,0.247,4.306,0.926,6.39,1.608c7.478,2.452,15.057,4.002,22.975,2.991
		c1.332-0.17,2.656-0.409,4.226-0.654c-0.522,0.574-0.866,0.956-1.214,1.332c-7.778,8.443-15.788,16.685-23.273,25.378
		c-9.086,10.546-16.483,22.25-21.911,35.125c-3.954,9.38-5.706,19.122-4.63,29.304c0.216,2.046,0.416,4.091,0.635,6.257
		c-2.535-0.176-4.574,0.512-6.139,2.41c-1.572,1.91-1.297,4.218-1.349,6.401c-0.251,0.09-0.368,0.156-0.491,0.171
		c-5.184,0.6-7.385,3.069-7.393,8.299c-0.01,8.97-0.02,17.939-0.031,26.909"/>
	<path fill-rule="evenodd" clip-rule="evenodd" fill="#FFFFFF" d="M200.414,386.7c0.012-8.97,0.021-17.939,0.031-26.909
		c0.008-5.229,2.209-7.699,7.393-8.299c0.123-0.015,0.24-0.081,0.491-0.171c0.052-2.184-0.224-4.491,1.349-6.401
		c1.564-1.898,3.604-2.586,6.139-2.41c-0.219-2.166-0.419-4.211-0.635-6.257c-1.076-10.182,0.676-19.924,4.63-29.304
		c5.428-12.875,12.825-24.579,21.911-35.125c7.485-8.693,15.495-16.935,23.273-25.378c0.348-0.376,0.691-0.758,1.214-1.332
		c-1.569,0.245-2.894,0.484-4.226,0.654c-7.918,1.011-15.497-0.539-22.975-2.991c-2.084-0.683-4.225-1.361-6.39-1.608
		c-4.538-0.518-8.229,1.471-11.478,4.466c-1.751,1.615-3.455,3.298-5.33,4.755c-8.119,6.312-16.877,6.623-26.045,2.585
		c-6.568-2.893-11.56-10.967-11.207-18.159c0.032-0.644,0.137-1.293,0.297-1.917c0.52-2,0.647-3.937,0.035-5.996
		c-0.969-3.266,0.326-5.991,2.738-8.149c2.678-2.396,5.52-4.606,8.239-6.958c6.883-5.948,13.858-11.798,20.548-17.958
		c3.036-2.797,5.488-6.226,8.189-9.384c0.76-0.888,1.475-1.815,2.183-2.747c3.313-4.358,7.46-7.514,12.734-9.208
		c2.503-0.804,4.896-1.954,7.333-2.96c2.731-1.127,4.359-3.06,4.381-6.126c0.012-1.77,0.002-3.539,0.002-5.5
		c2.877-0.625,5.545-1.348,8.26-1.766c4.079-0.626,5.648-2.398,5.493-6.535c-0.139-3.723-0.327-7.447-0.308-11.169
		c0.012-2.096,0.405-4.19,0.674-6.742c2.261,2.015,4.283,3.691,6.163,5.517c3.718,3.611,6.788,7.753,9.491,12.159
		c1.78,2.898,4.168,4.753,7.48,5.793c23.19,7.283,39.291,22.422,48.938,44.596c4.205,9.663,7.072,19.699,8.024,30.223
		c0.826,9.151,0.327,18.256-1.094,27.327c-2.018,12.873-6.228,25.159-9.806,37.626c-3.493,12.17-6.533,24.472-9.682,36.738
		c-0.902,3.518-0.647,7.122-0.218,10.784c2.622,0.015,5.228-0.245,7.287,1.772c2.022,1.983,1.97,4.498,1.877,7.131
		c0.567,0.063,1.067,0.12,1.568,0.174c3.48,0.37,6.218,3.207,6.232,6.691c0.042,9.489,0.003,18.979-0.004,28.469
		C290.551,386.7,245.482,386.7,200.414,386.7z"/>
</g>
</svg>
