<svg xmlns="http://www.w3.org/2000/svg" width="512" height="512"><circle fill="#1e1e1e" cx="256" cy="256" r="256"/><g fill="#fff"><path d="M332.419 383.5c.007-9.488.046-18.979.004-28.469-.015-3.484-2.752-6.32-6.232-6.691-.501-.053-1.001-.109-1.568-.174.093-2.633.146-5.146-1.877-7.131-2.06-2.018-4.665-1.758-7.287-1.771-.43-3.662-.685-7.268.218-10.785 3.148-12.266 6.188-24.568 9.682-36.738 3.578-12.467 7.788-24.752 9.806-37.625 1.421-9.071 1.92-18.176 1.094-27.327-.952-10.523-3.819-20.56-8.024-30.223-9.647-22.174-25.748-37.312-48.938-44.596-3.312-1.04-5.7-2.895-7.48-5.793-2.703-4.406-5.773-8.548-9.491-12.159-1.88-1.825-3.902-3.502-6.163-5.517-.269 2.552-.662 4.646-.674 6.742-.02 3.722.169 7.446.308 11.169.155 4.137-1.414 5.909-5.493 6.535-2.715.418-5.383 1.141-8.26 1.766 0 1.961.01 3.73-.002 5.5-.021 3.066-1.649 4.999-4.381 6.126-2.438 1.006-4.83 2.156-7.333 2.96-5.274 1.694-9.421 4.85-12.734 9.208a60.288 60.288 0 0 1-2.183 2.747c-2.701 3.158-5.153 6.587-8.189 9.384-6.689 6.16-13.665 12.01-20.548 17.958-2.72 2.352-5.562 4.562-8.239 6.958-2.412 2.158-3.707 4.884-2.738 8.149.612 2.06.484 3.996-.035 5.996a9.707 9.707 0 0 0-.297 1.917c-.353 7.192 4.639 15.267 11.207 18.159 9.168 4.038 17.926 3.727 26.045-2.585 1.875-1.457 3.579-3.14 5.33-4.755 3.249-2.995 6.939-4.983 11.478-4.466 2.165.247 4.306.926 6.39 1.608 7.478 2.452 15.057 4.002 22.975 2.991 1.332-.17 2.656-.409 4.226-.654-.522.574-.866.956-1.214 1.332-7.778 8.443-15.788 16.685-23.273 25.378-9.086 10.545-16.483 22.25-21.911 35.125-3.954 9.379-5.706 19.121-4.63 29.303.216 2.047.416 4.092.635 6.258-2.535-.176-4.574.512-6.139 2.41-1.572 1.91-1.297 4.217-1.349 6.4-.251.09-.368.156-.491.172-5.184.6-7.385 3.068-7.393 8.299l-.031 26.908"/><path fill-rule="evenodd" clip-rule="evenodd" d="M197.214 383.5c.012-8.969.021-17.939.031-26.908.008-5.23 2.209-7.699 7.393-8.299.123-.016.24-.082.491-.172.052-2.184-.224-4.49 1.349-6.4 1.564-1.898 3.604-2.586 6.139-2.41-.219-2.166-.419-4.211-.635-6.258-1.076-10.182.676-19.924 4.63-29.303 5.428-12.875 12.825-24.58 21.911-35.125 7.485-8.693 15.495-16.935 23.273-25.378.348-.376.691-.758 1.214-1.332-1.569.245-2.894.484-4.226.654-7.918 1.011-15.497-.539-22.975-2.991-2.084-.683-4.225-1.361-6.39-1.608-4.538-.518-8.229 1.471-11.478 4.466-1.751 1.615-3.455 3.298-5.33 4.755-8.119 6.312-16.877 6.623-26.045 2.585-6.568-2.893-11.56-10.967-11.207-18.159a9.707 9.707 0 0 1 .297-1.917c.52-2 .647-3.937.035-5.996-.969-3.266.326-5.991 2.738-8.149 2.678-2.396 5.52-4.606 8.239-6.958 6.883-5.948 13.858-11.798 20.548-17.958 3.036-2.797 5.488-6.226 8.189-9.384a60.288 60.288 0 0 0 2.183-2.747c3.313-4.358 7.46-7.514 12.734-9.208 2.503-.804 4.896-1.954 7.333-2.96 2.731-1.127 4.359-3.06 4.381-6.126.012-1.77.002-3.539.002-5.5 2.877-.625 5.545-1.348 8.26-1.766 4.079-.626 5.648-2.398 5.493-6.535-.139-3.723-.327-7.447-.308-11.169.012-2.096.405-4.19.674-6.742 2.261 2.015 4.283 3.691 6.163 5.517 3.718 3.611 6.788 7.753 9.491 12.159 1.78 2.898 4.168 4.753 7.48 5.793 23.19 7.283 39.291 22.422 48.938 44.596 4.205 9.663 7.072 19.699 8.024 30.223.826 9.151.327 18.256-1.094 27.327-2.018 12.874-6.228 25.159-9.806 37.625-3.493 12.17-6.533 24.473-9.682 36.738-.902 3.518-.647 7.123-.218 10.785 2.622.014 5.228-.246 7.287 1.771 2.022 1.984 1.97 4.498 1.877 7.131.567.064 1.067.121 1.568.174 3.48.371 6.218 3.207 6.232 6.691.042 9.49.003 18.98-.004 28.469l-135.199-.001z"/></g></svg>