<svg xmlns="http://www.w3.org/2000/svg" width="512" height="512"><circle fill="#1e1e1e" cx="256" cy="256" r="256"/><path fill="#fff" d="M256 128.5c-70.304 0-127.5 57.196-127.5 127.5S185.696 383.5 256 383.5 383.5 326.304 383.5 256 326.304 128.5 256 128.5zm0 14.167c40.131 0 75.456 20.969 95.598 52.523h-95.98c-28.459 0-53.923 20.97-58.417 47.931l-32.066-54.782c20.681-27.702 53.714-45.672 90.865-45.672zm44.555 112.437c0 25.464-19.473 44.937-44.937 44.937s-44.937-19.473-44.937-44.937c0-25.463 19.473-44.936 44.937-44.936s44.937 19.473 44.937 44.936zM142.667 256c0-19.487 4.946-37.841 13.645-53.875l48.379 82.937c10.485 17.974 29.958 29.957 50.928 29.957 7.489 0 13.481-1.497 19.472-2.996l-33.043 56.451c-55.934-6.898-99.381-54.706-99.381-112.474zm116.239 113.296l49.137-84.234c4.494-8.987 8.987-19.474 8.987-29.958 0-17.974-7.489-34.45-20.971-44.936h63.582c6.225 14.021 9.692 29.529 9.692 45.832 0 61.521-49.272 111.75-110.427 113.296z"/></svg>