<?xml version="1.0" encoding="utf-8"?>
<!-- Generator: Adobe Illustrator 16.0.0, SVG Export Plug-In . SVG Version: 6.00 Build 0)  -->
<!DOCTYPE svg PUBLIC "-//W3C//DTD SVG 1.1//EN" "http://www.w3.org/Graphics/SVG/1.1/DTD/svg11.dtd">
<svg version="1.1" id="Layer_1" xmlns="http://www.w3.org/2000/svg" xmlns:xlink="http://www.w3.org/1999/xlink" x="0px" y="0px"
	 width="520px" height="520px" viewBox="0 0 520 520" enable-background="new 0 0 520 520" xml:space="preserve">
<g>
	<path fill="#1E1E1E" d="M260,361.703c-43.689,0-80.887-27.777-94.905-66.634l-95.32-205.54C28.893,134.897,4,194.957,4,260.836
		c0,134.781,104.158,245.233,236.373,255.258l68.358-166.929C294.285,357.151,277.674,361.703,260,361.703z"/>
</g>
<g>
	<path fill="#1E1E1E" d="M260,159.969L260,159.969L260,159.969h235.347C456.197,68.74,365.566,4.836,260,4.836
		c-67.813,0-129.458,26.379-175.262,69.421l76.653,165.287C171.167,194.064,211.598,159.969,260,159.969z"/>
</g>
<g>
	<path fill="#1E1E1E" d="M360.867,260.836c0,5.712-0.482,11.311-1.395,16.764l0.15,0.062l-0.27,0.659
		c-2.541,14.54-8.197,28.007-16.254,39.693l-81.412,198.801C402.295,515.904,516,401.656,516,260.836
		c0-28.261-4.59-55.447-13.049-80.867H320.297C344.924,198.361,360.867,227.736,360.867,260.836z"/>
</g>
<g>
	<path fill="#FFFFFF" d="M359.354,278.32L343.1,318.014C351.156,306.327,356.812,292.86,359.354,278.32z"/>
</g>
<g>
	<path fill="#FFFFFF" d="M161.392,239.544l21.865,47.148l-18.145,8.414l-0.018-0.037c14.019,38.856,51.216,66.634,94.905,66.634
		c17.673,0,34.285-4.552,48.73-12.538l32.385-79.083l18.357,7.518c0.912-5.453,1.395-11.052,1.395-16.764
		c0-33.1-15.943-62.475-40.57-80.867H260v-20l0,0C211.598,159.969,171.167,194.064,161.392,239.544z M335.65,260.836
		c0,41.78-33.869,75.65-75.65,75.65c-41.78,0-75.65-33.87-75.65-75.65c0-41.779,33.87-75.65,75.65-75.65
		C301.781,185.186,335.65,219.057,335.65,260.836z"/>
</g>
<g>
	<circle fill="#1E1E1E" cx="260" cy="260.836" r="75.65"/>
</g>
<g>
	<path fill="#FFFFFF" d="M260,159.969L260,159.969c22.607,0,43.476,7.438,60.296,20h182.654c-2.262-6.798-4.799-13.469-7.604-20H260
		z"/>
</g>
<path fill="#FFFFFF" d="M320.297,179.969c-16.82-12.562-37.689-20-60.296-20v20H320.297z"/>
<g>
	<path fill="#FFFFFF" d="M159.132,260.836c0-7.306,0.784-14.428,2.26-21.292L84.739,74.257c-5.195,4.882-10.189,9.976-14.964,15.272
		l95.32,205.54C161.239,284.381,159.132,272.854,159.132,260.836z"/>
</g>
<path fill="#FFFFFF" d="M183.257,286.692l-21.865-47.148c-1.476,6.864-2.26,13.986-2.26,21.292c0,12.019,2.106,23.545,5.963,34.233
	l0.018,0.037L183.257,286.692z"/>
<g>
	<path fill="#FFFFFF" d="M308.73,349.165l-68.358,166.929c6.479,0.491,13.023,0.742,19.628,0.742c0.564,0,1.125-0.018,1.687-0.021
		L343.1,318.014C334.232,330.873,322.463,341.573,308.73,349.165z"/>
</g>
<path fill="#FFFFFF" d="M359.623,277.661l-0.15-0.062c-0.039,0.24-0.078,0.48-0.119,0.721L359.623,277.661z"/>
<path fill="#FFFFFF" d="M308.73,349.165c13.732-7.592,25.502-18.292,34.369-31.151l16.254-39.693c0.041-0.24,0.08-0.48,0.119-0.721
	l-18.357-7.518L308.73,349.165z"/>
</svg>
