<svg xmlns="http://www.w3.org/2000/svg" width="512" height="512"><circle fill="{{bg}}" cx="256" cy="256" r="256"/><g fill="{{fg}}"><path d="M124.814 336.527v-30.283l-24.48-43.162h10.026l18.577 33.592h.713l18.576-33.592h10.027l-24.481 43.162v30.283h-8.958zM209.451 271.787v-.662h-39.852v-8.043h49.013v8.297l-32.93 65.148h-9.568l33.337-64.74zM248.941 288.328c0-5.141 4.174-9.416 9.213-9.416s9.212 4.275 9.212 9.416-4.173 9.416-9.212 9.416-9.213-4.275-9.213-9.416zm0 39.088c0-5.141 4.174-9.365 9.213-9.365s9.212 4.225 9.212 9.365c0 5.191-4.173 9.416-9.212 9.416s-9.213-4.225-9.213-9.416zM313.626 294.945h7.99c8.246 0 13.997-5.396 13.997-13.082 0-7.48-5.497-12.418-13.794-12.418-8.244 0-13.741 4.834-14.454 12.725h-8.602c.865-12.725 9.823-20.613 23.412-20.613 13.132 0 22.497 7.889 22.497 19.035 0 8.855-4.632 15.166-12.521 17.102v.814c9.772 1.271 15.575 8.143 15.575 18.17 0 12.469-10.484 21.377-25.144 21.377-14.505 0-24.582-8.348-25.244-21.021h8.499c.815 7.838 7.329 12.928 16.491 12.928 10.077 0 16.338-5.191 16.338-13.488 0-8.549-6.464-13.996-16.644-13.996h-8.397v-7.533zM387.166 338.055c-14.455 0-24.889-10.484-24.889-25.094 0-8.602 2.902-16.389 9.926-26.617.66-1.121 15.93-22.498 16.439-23.262h10.332l-20.053 27.535c-2.24 3.156-2.037 2.953-2.393 3.768l.764.406c2.188-2.951 7.482-5.141 12.164-5.141 13.08 0 22.75 9.926 22.75 23.311.001 14.557-10.484 25.094-25.04 25.094zm16.337-24.635c0-9.467-7.023-16.695-16.287-16.695-9.211 0-16.236 7.229-16.236 16.695 0 9.416 7.025 16.643 16.236 16.643 9.264-.001 16.287-7.227 16.287-16.643zM69.648 263.082h-5.099v10.986l.06-.195h.254l10.281 33.897H64.549v7.685h12.937l6.361 21.072h9.467z"/><g><path d="M123.296 201.836l-10.841 45.553h-8.449l-12.622-73.443h8.499l4.429 29.418 4.428 30.588h.56l10.281-43.211h8.042l10.281 43.211h.561l4.428-30.588 4.428-29.418h8.5l-12.623 73.443h-8.448l-10.842-45.553h-.612zM200.654 226.319h-25.55l-6.413 21.07h-9.11l23.667-73.443h9.568l23.667 73.443h-9.467l-6.362-21.07zm-2.341-7.686l-10.281-33.898h-.255l-10.332 33.898h20.868zM238.363 218.124v29.266h-8.855v-73.443h24.635c14.556 0 23.666 8.449 23.666 22.088 0 9.621-5.344 17.51-13.69 20.258l14.964 31.098h-10.129l-13.691-29.266h-16.9zm0-7.584h14.558c10.128 0 15.828-5.141 15.828-14.301 0-9.111-5.599-14.303-15.421-14.303h-14.965v28.604zM292.461 247.389v-73.443h8.602l31.454 57.156h.713v-57.156h8.093v73.443h-8.5l-31.556-57.309h-.713v57.309h-8.093zM361.982 247.389v-7.99h14.861v-57.463h-14.861v-7.99h38.68v7.99H385.8v57.463h14.861v7.99h-38.679zM447.451 205.795l-17.528-31.849h-8.601v73.443h8.092v-57.308h.712l17.325 31.462z"/></g></g></svg>
