<?xml version="1.0" encoding="utf-8"?>
<!-- Generator: Adobe Illustrator 16.0.0, SVG Export Plug-In . SVG Version: 6.00 Build 0)  -->
<!DOCTYPE svg PUBLIC "-//W3C//DTD SVG 1.1//EN" "http://www.w3.org/Graphics/SVG/1.1/DTD/svg11.dtd">
<svg version="1.1" id="Layer_1" xmlns="http://www.w3.org/2000/svg" xmlns:xlink="http://www.w3.org/1999/xlink" x="0px" y="0px"
	 width="520px" height="520px" viewBox="0 0 520 520" enable-background="new 0 0 520 520" xml:space="preserve">
<g>
	<g>
		<circle fill="#1E1E1E" cx="260.027" cy="260.735" r="256"/>
	</g>
	<g>
		<g>
			<path fill="#FFFFFF" d="M128.842,341.263v-30.283l-24.48-43.162h10.026l18.577,33.592h0.713l18.576-33.592h10.027L137.8,310.979
				v30.283H128.842z"/>
			<path fill="#FFFFFF" d="M213.479,276.522v-0.662h-39.852v-8.043h49.013v8.297l-32.93,65.148h-9.568L213.479,276.522z"/>
			<path fill="#FFFFFF" d="M252.969,293.063c0-5.141,4.174-9.416,9.212-9.416c5.039,0,9.213,4.275,9.213,9.416
				s-4.174,9.416-9.213,9.416C257.143,302.479,252.969,298.204,252.969,293.063z M252.969,332.151c0-5.141,4.174-9.365,9.212-9.365
				c5.039,0,9.213,4.225,9.213,9.365c0,5.191-4.174,9.416-9.213,9.416C257.143,341.567,252.969,337.343,252.969,332.151z"/>
			<path fill="#FFFFFF" d="M317.654,299.681h7.99c8.246,0,13.998-5.396,13.998-13.082c0-7.48-5.498-12.418-13.795-12.418
				c-8.244,0-13.74,4.834-14.453,12.725h-8.602c0.865-12.725,9.822-20.613,23.412-20.613c13.131,0,22.496,7.889,22.496,19.035
				c0,8.855-4.631,15.166-12.521,17.102v0.814c9.773,1.271,15.576,8.143,15.576,18.17c0,12.469-10.484,21.377-25.145,21.377
				c-14.504,0-24.582-8.348-25.244-21.021h8.5c0.814,7.838,7.328,12.928,16.49,12.928c10.078,0,16.338-5.191,16.338-13.488
				c0-8.549-6.463-13.996-16.643-13.996h-8.398V299.681z"/>
			<path fill="#FFFFFF" d="M391.193,342.79c-14.455,0-24.888-10.484-24.888-25.094c0-8.602,2.901-16.389,9.925-26.617
				c0.66-1.121,15.93-22.498,16.439-23.262h10.332l-20.053,27.535c-2.24,3.156-2.037,2.953-2.393,3.768l0.764,0.406
				c2.188-2.951,7.482-5.141,12.164-5.141c13.08,0,22.75,9.926,22.75,23.311C416.234,332.253,405.75,342.79,391.193,342.79z
				 M407.531,318.155c0-9.467-7.023-16.695-16.287-16.695c-9.211,0-16.236,7.229-16.236,16.695c0,9.416,7.025,16.643,16.236,16.643
				C400.507,334.798,407.531,327.571,407.531,318.155z"/>
			<polygon fill="#FFFFFF" points="73.676,267.817 68.577,267.817 68.577,278.804 68.637,278.608 68.891,278.608 79.172,312.505 
				68.577,312.505 68.577,320.19 81.514,320.19 87.875,341.263 97.342,341.263 			"/>
		</g>
		<g>
			<path fill="#FFFFFF" d="M127.324,206.571l-10.841,45.553h-8.449L95.412,178.68h8.499l4.429,29.418l4.428,30.588h0.56
				l10.281-43.211h8.042l10.281,43.211h0.561l4.428-30.588l4.428-29.418h8.5l-12.623,73.443h-8.448l-10.842-45.553H127.324z"/>
			<path fill="#FFFFFF" d="M204.682,231.053h-25.55l-6.413,21.07h-9.11l23.667-73.443h9.568l23.667,73.443h-9.467L204.682,231.053z
				 M202.341,223.368l-10.281-33.898h-0.255l-10.332,33.898H202.341z"/>
			<path fill="#FFFFFF" d="M242.391,222.858v29.266h-8.855V178.68h24.635c14.556,0,23.666,8.449,23.666,22.088
				c0,9.621-5.344,17.51-13.689,20.258l14.963,31.098H272.98l-13.691-29.266H242.391z M242.391,215.274h14.558
				c10.127,0,15.829-5.141,15.829-14.301c0-9.111-5.6-14.303-15.421-14.303h-14.965V215.274z"/>
			<path fill="#FFFFFF" d="M296.49,252.124V178.68h8.602l31.453,57.156h0.713V178.68h8.094v73.443h-8.5l-31.557-57.309h-0.713
				v57.309H296.49z"/>
			<path fill="#FFFFFF" d="M366.01,252.124v-7.99h14.86V186.67h-14.86v-7.99h38.679v7.99h-14.861v57.463h14.861v7.99H366.01z"/>
			<polygon fill="#FFFFFF" points="451.478,210.53 433.951,178.68 425.349,178.68 425.349,252.124 433.441,252.124 433.441,194.815 
				434.154,194.815 451.478,226.278 			"/>
		</g>
	</g>
</g>
</svg>
