<?xml version="1.0" encoding="utf-8"?>
<!-- Generator: Adobe Illustrator 16.0.0, SVG Export Plug-In . SVG Version: 6.00 Build 0)  -->
<!DOCTYPE svg PUBLIC "-//W3C//DTD SVG 1.1//EN" "http://www.w3.org/Graphics/SVG/1.1/DTD/svg11.dtd">
<svg version="1.1" id="Layer_1" xmlns="http://www.w3.org/2000/svg" xmlns:xlink="http://www.w3.org/1999/xlink" x="0px" y="0px"
	 width="520px" height="520px" viewBox="0 0 520 520" enable-background="new 0 0 520 520" xml:space="preserve">
<g>
	<g>
		<circle fill="#1E1E1E" cx="260.14" cy="260.438" r="256"/>
	</g>
	<g>
		<path fill-rule="evenodd" clip-rule="evenodd" fill="#FFFFFF" stroke="#FFFFFF" stroke-miterlimit="10" d="M140.379,216.655
			c0.185-0.555,0.368-1.11,0.552-1.664c0.448-0.238,0.546-0.651,0.548-1.11c2.22-4.803,4.439-9.607,6.659-14.411
			c0.924-1.382,2.185-2.596,2.226-4.422c1.685-0.482,1.769-2.03,2.217-3.336c0.732-0.314,1.101-0.866,1.109-1.661
			c2.265-2.289,4.196-4.817,5.541-7.765c1.615-0.857,2.334-2.483,3.319-3.881c3.01-3.102,5.956-6.265,9.038-9.293
			c15.087-14.828,32.966-24.957,53.184-30.874c11.046-3.233,22.365-4.759,33.972-4.863c14.204-0.127,28,1.8,41.42,6.236
			c15.725,5.198,29.844,13.406,42.719,23.781c1.5,1.21,2.85,2.613,4.268,3.925c1.625,2.07,3.469,3.918,5.553,5.541
			c0.879,1.334,1.988,2.441,3.314,3.333c0.75,0.914,1.092,2.159,2.225,2.766c0.201,0.532,0.57,0.898,1.096,1.114
			c0.158,1.39,1.195,2.076,2.221,2.77c0.895,2.345,2.607,4.182,3.99,6.203c8.592,12.556,14.879,26.1,18.357,40.957
			c0.689,2.938,1.219,5.921,2.055,8.827c0.016,2.274,0.445,4.482,1.1,6.652c0.24,1.473-0.537,3.07,0.551,4.437
			c0.004,1.109,0.008,2.218,0.012,3.325c0,0.739,0,1.478,0,2.216c0,0.556,0,1.11,0,1.665c0.006,1.661,0.01,3.324,0.018,4.987
			c-0.008,1.294-0.012,2.587-0.016,3.882c-0.002,1.109-0.002,2.218-0.002,3.325c0.09,2.79-0.912,5.507-0.568,8.314
			c-0.002,0.367-0.004,0.735-0.008,1.103c-1.84,7.394-3.682,14.786-5.523,22.181c-2.326,5.309-4.256,10.778-6.816,16.006
			c-3.617,7.386-7.844,14.341-13.033,20.709c-0.656,0.806-1.375,1.496-1.227,2.642c-1.131,0.714-2.059,1.635-2.766,2.773
			c-3.367,2.179-5,6.089-8.314,8.321c-1.4,0.446-2.826,0.866-2.771,2.77c-0.721,0.018-1.09,0.386-1.105,1.108
			c-0.697,1.024-1.371,2.079-2.775,2.218c-0.723,0.015-1.09,0.388-1.111,1.106c-0.861-0.089-1.088,0.769-1.66,1.108
			c-1.992,0.855-3.564,1.973-5.004,3.826c-1.451,1.868-4.18,2.736-6.344,4.056c-4.91,2.994-9.857,5.915-15.32,7.843
			c-0.244,0.084-0.336,0.593-0.5,0.902c-0.184,0.003-0.367,0.003-0.551,0.005c-0.799,0-1.354,0.372-1.668,1.104
			c-1.828-0.383-2.955,1.107-4.43,1.668c-4.805,0.9-9.031,3.605-13.859,4.433c-2.203,0.452-4.359,1.188-6.65,1.112
			c-3.301,0.717-6.59,1.496-9.98,1.665c-1.996,0.21-3.992,0.401-5.984,0.633c-8.045,0.933-16.073,0.714-24.076-0.425
			c-5.141-0.731-10.26-1.617-15.389-2.434c-0.026-0.717-0.395-1.089-1.115-1.103c-1.579,0.117-3.09-0.145-4.589-0.667
			c-8.505-2.962-16.296-5.467-24.139-10.025c-2.021-1.176-4.593-1.957-6.342-3.072c-0.432-0.274-0.896-1.113-1.54-1.505
			c-0.569-0.349-1.509-0.598-2.149-0.857c-0.25-5.301-4.742-7.453-9.417-7.685c-0.156-1.199-0.782-0.654-1.417-1.124
			c-5.365-3.958-10.497-9.04-14.741-14.167c-2.505-3.027-5.305-5.842-7.532-9.056c-2.456-3.545-4.507-7.384-6.563-11.188
			c-2.661-4.924-6.052-9.483-7.085-15.232c-0.316-1.767-0.977-3.915-3.177-4.701c0-0.184,0-0.365-0.004-0.55
			c-0.112-1.483,0.206-3.15-1.659-3.885c-2.619-8.312-4.506-16.844-5.354-25.457c-0.676-6.866-1.044-13.818-0.357-20.845
			c0.758-7.752,1.544-15.44,3.486-22.987c0.005-0.553,0.011-1.104,0.015-1.657C138.309,224.589,139.03,220.517,140.379,216.655z
			 M163.093,196.138c-1.057,1.395-2.549,2.519-2.77,4.435c-0.474,0.429-1.115,0.768-1.392,1.298
			c-2.938,5.616-5.802,11.286-7.976,17.241c-3.28,8.982-5.558,18.188-6.879,27.721c-1.228,8.852-1.185,17.663-0.199,26.391
			c0.973,8.618,2.873,17.119,5.715,25.44c3.756,10.995,9.217,20.981,15.702,30.509c0.722,1.059,1.419,1.256,2.533,0.701
			c6.688-3.319,13.858-5.389,20.794-8.061c5.025-1.938,7.565-4.738,8.611-11.466c0.416-2.679,0.039-0.685,0.416-2.679
			c0.435-2.306-0.462-6.827-2.062-8.289c-4.439-4.051-8.396-8.355-9.356-14.786c-0.444-2.979-0.994-6.275-4.4-8.049
			c-1.742-0.907-2.888-2.83-3.416-4.867c-1.154-4.451-3.212-8.545-4.875-12.795c-0.993-2.536-1.137-5.54,0.302-8.038
			c1.104-1.918,1.041-3.613,0.39-5.515c-0.594-1.736-1.473-3.362-1.773-5.216c-0.857-5.24-1.793-10.467-2.698-15.696
			c0.085-5.087-0.007-10.199,2.216-14.968c1.294-1.107,2.587-2.217,3.88-3.325c2.596-1.057,3.819-3.378,5.006-5.646
			c2.735-5.23,6.818-8.743,12.442-10.615c7.431-2.474,15.101-2.43,22.696-1.863c5.454,0.407,10.853,1.98,15.902,4.179
			c7.859,3.42,12.354,9.864,14.921,17.821c1.811,5.478,3.042,10.639,3.323,16.431c0.154,3.185-0.957,7.692,0.149,10.705
			c0.518,1.407,1.75,1.86,2.645,2.966c1.098,1.358,1.494,3.415,1.656,5.149c0.5,5.34-0.347,11.884-1.187,17.171
			c-0.229,1.45-0.6,2.885-1.195,4.228c-0.528,1.189-1.771,2.326-2.068,3.551c-0.636,2.616,0.752,6.306,0.65,9.086
			c-0.142,3.919-1.094,7.798-3.023,11.225c-1.994,3.542-1.89,6.714-0.552,10.387c2.652,7.275,5.394,9.382,13.269,9.462
			c0.89,0.009,1.972-0.415,2.767,0.704c-2.453,0.626-4.852,0.955-7.026,1.838c-11.513,4.684-20.339,12.487-26.757,23.151
			c-6.477,10.76-7.048,22.34-5.214,34.31c0.121,0.788,0.267,1.73,1.47,2.094c2.902,0.875,5.784,1.741,8.776,2.311
			c1.793,0.342,1.882-0.192,1.57-1.644c-1.126-5.227-1.592-10.499-1.521-15.869c0.093-7.014,2.478-13.133,6.503-18.687
			c5.257-7.25,12.669-11.604,20.741-15.001c7.457-3.141,15.182-5.663,22.35-9.467c3.775-2.004,7.346-4.29,8.893-8.655
			c1.104-3.12,0.021-5.091-3.025-4.861c-6.078,0.462-12.072-0.58-18.096-0.916c-2.834-0.157-5.783-0.98-8.455-2.325
			c-1.91-0.961-2.991-2.252-2.828-4.558c0.246-3.482,0.09-6.962,0.484-10.47c0.859-7.656,2.691-15.177,3.232-22.851
			c0.506-7.135,0.605-14.315-2.008-21.193c-0.008-0.923-0.012-1.845-0.016-2.768c-1.465-5.448-1.447-11.091-2.213-16.631
			c-0.171-3.044,0.379-6.062,0.655-9.06c0.76-8.312,5.49-18.388,15.889-20.582c2.828-0.597,5.883,0.626,8.359-0.322
			c2.613-0.999,3.957-4.244,6.74-5.556c13.672-6.438,25.568-3.602,36.688,6.038c2.357,2.044,4.168,4.614,5.773,7.269
			c0.781,1.295,1.59,2.597,2.297,3.934c0.766,1.45,0.912,3.058,1.512,4.564c0.607,1.533,0.947,3.066,1.516,4.611
			c0.639,1.74,0.547,3.638,0.936,5.454c0.404,1.893,0.775,3.811,1.066,5.725c0.699,4.601,0.895,9.215,1.938,13.768
			c1.035,4.514,2.547,8.899,4.381,13.147c1.049,2.427,2.209,4.806,3.434,7.146c3.771,7.187,7.451,14.419,9.824,22.229
			c0.676,2.223,0.996,4.434-1.291,5.934c-3.766,2.47-7.926,4.189-11.957,6.165c-3.668,1.795-7.625,2.622-11.467,3.843
			c-3.27,1.042-3.857,2.562-2.242,5.628c0.488,0.927,1.141,1.606,2.018,2.2c4.689,3.168,10.092,3.668,15.479,4.369
			c4.469,0.583,9.002,0.162,13.445,1.018c1.629,0.314,2.818-0.104,3.502-1.838c5.205-13.206,8.027-26.887,8.492-41.077
			c0.291-8.873-0.738-17.608-2.32-26.308c-0.766-4.209-1.885-8.345-3.162-12.424c-1.129-3.61-2.068-7.553-3.934-10.863
			c-0.709-1.255-1.424-1.979-1.807-3.413c-0.363-1.363-1.094-2.56-1.859-3.73c-0.57-0.868-0.707-1.835-1.273-2.611
			c-0.309-0.424-0.592-0.547-0.795-1.087c-0.223-0.597-0.205-1.094-0.617-1.624c-0.713-0.924-1.254-1.5-1.779-2.565
			c-0.705-1.425-2.369-2.41-2.264-4.162c0.096-1.574-0.488-1.981-1.596-3.104c-2.93-2.97-5.268-6.49-8.072-9.583
			c-1.865-2.058-3.037-4.894-6.02-5.812c-2.148-0.817-2.572-3.261-4.264-4.511c-5.072-3.75-9.895-7.863-15.336-11.08
			c-9.885-5.845-20.182-10.634-31.443-13.44c-10.08-2.513-20.178-4.605-30.559-4.146c-8.855,0.392-17.664,1.298-26.399,3.305
			c-6.1,1.402-12.089,3.195-17.798,5.448c-6.035,2.381-11.732,5.762-17.293,9.34c-10.943,7.045-20.364,15.685-28.772,25.491
			c-1.633,1.902-3.646,3.656-4.421,6.219C164.149,193.637,163.466,194.784,163.093,196.138z"/>
		
			<circle fill-rule="evenodd" clip-rule="evenodd" fill="none" stroke="#FFFFFF" stroke-width="17" stroke-miterlimit="10" cx="260.138" cy="260.438" r="118.845"/>
	</g>
</g>
</svg>
