<svg xmlns="http://www.w3.org/2000/svg" width="512" height="512"><circle fill="{{bg}}" cx="256" cy="256" r="256"/><g clip-rule="evenodd" stroke="{{fg}}" stroke-miterlimit="10"><path fill-rule="evenodd" fill="{{fg}}" d="M136.24 212.218l.552-1.664c.448-.238.546-.651.548-1.11l6.659-14.411c.924-1.382 2.185-2.596 2.226-4.422 1.685-.482 1.769-2.03 2.217-3.336.732-.314 1.101-.866 1.109-1.661 2.265-2.289 4.196-4.817 5.541-7.765 1.615-.857 2.334-2.483 3.319-3.881 3.01-3.102 5.956-6.266 9.038-9.294 15.087-14.828 32.966-24.957 53.184-30.874 11.046-3.233 22.365-4.759 33.972-4.863 14.204-.127 28 1.8 41.419 6.236 15.725 5.198 29.845 13.406 42.72 23.781 1.5 1.21 2.85 2.613 4.268 3.925a32.134 32.134 0 0 0 5.552 5.541 11.822 11.822 0 0 0 3.315 3.333c.749.914 1.091 2.159 2.224 2.767.201.532.571.898 1.096 1.114.158 1.391 1.195 2.076 2.222 2.77.894 2.345 2.606 4.182 3.99 6.203 8.592 12.556 14.878 26.1 18.357 40.957.688 2.938 1.219 5.921 2.055 8.827.016 2.274.444 4.482 1.099 6.652.24 1.473-.537 3.07.552 4.437l.011 3.325v3.881c.007 1.661.011 3.324.018 4.987-.007 1.294-.011 2.587-.016 3.882-.002 1.109-.002 2.218-.002 3.325.091 2.79-.912 5.507-.567 8.314-.002.367-.004.735-.009 1.103-1.84 7.394-3.681 14.786-5.523 22.181-2.326 5.309-4.255 10.778-6.816 16.006-3.616 7.386-7.843 14.341-13.033 20.709-.656.806-1.375 1.496-1.226 2.642a8.643 8.643 0 0 0-2.767 2.773c-3.367 2.179-5 6.089-8.313 8.321-1.4.446-2.827.866-2.771 2.77-.721.018-1.091.386-1.106 1.108-.697 1.024-1.37 2.079-2.775 2.218-.722.015-1.09.388-1.111 1.106-.861-.089-1.087.769-1.66 1.108-1.992.855-3.564 1.973-5.004 3.826-1.451 1.868-4.18 2.736-6.343 4.056-4.911 2.994-9.858 5.915-15.321 7.843-.243.084-.336.593-.5.902-.183.003-.366.003-.551.005-.799 0-1.354.373-1.667 1.104-1.829-.383-2.956 1.107-4.431 1.668-4.805.9-9.031 3.605-13.859 4.433-2.202.452-4.359 1.188-6.65 1.112-3.3.717-6.589 1.496-9.979 1.665-1.996.21-3.993.401-5.984.633-8.045.933-16.073.714-24.076-.425-5.141-.731-10.26-1.617-15.389-2.434-.026-.717-.395-1.089-1.115-1.103-1.579.117-3.09-.145-4.589-.667-8.505-2.962-16.296-5.467-24.139-10.026-2.021-1.176-4.593-1.957-6.342-3.072-.432-.274-.896-1.113-1.54-1.505-.569-.349-1.509-.598-2.149-.857-.25-5.301-4.742-7.453-9.417-7.685-.156-1.199-.782-.654-1.417-1.124-5.365-3.958-10.497-9.04-14.741-14.167-2.505-3.027-5.305-5.842-7.532-9.056-2.456-3.545-4.507-7.384-6.563-11.188-2.661-4.924-6.052-9.483-7.085-15.232-.316-1.767-.977-3.915-3.177-4.701 0-.184 0-.365-.004-.55-.112-1.483.206-3.15-1.659-3.885-2.619-8.312-4.506-16.844-5.354-25.457-.676-6.866-1.044-13.818-.357-20.845.758-7.752 1.544-15.44 3.486-22.987.005-.553.011-1.104.015-1.657 1.794-3.711 2.516-7.783 3.865-11.645zm22.714-20.517c-1.057 1.395-2.549 2.519-2.77 4.435-.474.429-1.115.768-1.392 1.298-2.938 5.616-5.802 11.286-7.976 17.241-3.28 8.982-5.558 18.188-6.879 27.721-1.228 8.852-1.185 17.663-.199 26.391a120.342 120.342 0 0 0 5.715 25.44c3.756 10.995 9.217 20.981 15.702 30.509.722 1.059 1.419 1.256 2.533.701 6.688-3.319 13.858-5.389 20.794-8.061 5.025-1.938 7.565-4.738 8.611-11.466.416-2.679.039-.685.416-2.679.435-2.306-.462-6.827-2.062-8.289-4.439-4.051-8.396-8.355-9.356-14.786-.444-2.979-.994-6.275-4.4-8.049-1.742-.907-2.888-2.83-3.416-4.867-1.154-4.451-3.212-8.545-4.875-12.795-.993-2.536-1.137-5.54.302-8.038 1.104-1.918 1.041-3.613.39-5.515-.594-1.736-1.473-3.362-1.773-5.216-.857-5.24-1.793-10.467-2.698-15.696.085-5.087-.007-10.199 2.216-14.968 1.294-1.107 2.587-2.217 3.88-3.325 2.596-1.057 3.819-3.378 5.006-5.646 2.735-5.23 6.818-8.743 12.442-10.615 7.431-2.474 15.101-2.43 22.696-1.863 5.454.407 10.853 1.98 15.902 4.179 7.859 3.42 12.354 9.864 14.921 17.821 1.811 5.478 3.042 10.639 3.323 16.431.154 3.185-.957 7.692.149 10.705.518 1.407 1.75 1.86 2.645 2.966 1.098 1.358 1.494 3.415 1.656 5.149.5 5.34-.347 11.884-1.187 17.171-.229 1.45-.6 2.885-1.195 4.228-.528 1.189-1.771 2.326-2.068 3.551-.636 2.616.752 6.306.65 9.086-.142 3.919-1.094 7.798-3.023 11.225-1.994 3.542-1.89 6.714-.552 10.387 2.652 7.275 5.394 9.382 13.269 9.462.891.009 1.973-.415 2.768.704-2.453.626-4.853.955-7.026 1.838-11.513 4.684-20.339 12.487-26.757 23.151-6.477 10.76-7.048 22.34-5.214 34.31.121.788.267 1.73 1.47 2.094 2.902.875 5.784 1.741 8.776 2.311 1.793.342 1.882-.192 1.57-1.644-1.126-5.227-1.592-10.499-1.521-15.869.093-7.014 2.478-13.133 6.503-18.687 5.257-7.25 12.669-11.604 20.741-15.001 7.457-3.141 15.181-5.663 22.35-9.467 3.774-2.004 7.344-4.29 8.891-8.655 1.104-3.12.021-5.091-3.025-4.861-6.078.462-12.071-.58-18.096-.916-2.834-.157-5.783-.98-8.455-2.325-1.91-.961-2.99-2.252-2.828-4.558.247-3.482.091-6.962.485-10.47.859-7.656 2.691-15.177 3.232-22.851.505-7.135.604-14.315-2.009-21.193-.007-.923-.012-1.845-.016-2.768-1.464-5.448-1.446-11.091-2.213-16.631-.171-3.044.379-6.062.654-9.06.76-8.312 5.49-18.388 15.889-20.582 2.828-.597 5.883.626 8.36-.322 2.613-.999 3.956-4.244 6.74-5.556 13.672-6.438 25.568-3.602 36.687 6.038 2.358 2.044 4.169 4.614 5.773 7.269.781 1.295 1.591 2.597 2.297 3.934.767 1.45.912 3.058 1.512 4.564.608 1.533.948 3.066 1.516 4.611.639 1.74.548 3.638.936 5.454a99.227 99.227 0 0 1 1.067 5.725c.699 4.601.895 9.215 1.938 13.768 1.035 4.514 2.547 8.899 4.381 13.147a105.794 105.794 0 0 0 3.434 7.146c3.771 7.187 7.451 14.419 9.824 22.229.676 2.223.996 4.434-1.292 5.934-3.766 2.47-7.926 4.189-11.957 6.165-3.668 1.795-7.624 2.622-11.466 3.843-3.27 1.042-3.858 2.562-2.243 5.628.489.927 1.142 1.606 2.019 2.2 4.689 3.168 10.092 3.668 15.478 4.369 4.469.583 9.003.162 13.446 1.018 1.628.314 2.817-.104 3.501-1.838 5.206-13.206 8.027-26.887 8.492-41.077.291-8.873-.738-17.608-2.32-26.308-.765-4.209-1.885-8.345-3.162-12.424-1.128-3.61-2.067-7.553-3.934-10.863-.709-1.255-1.423-1.979-1.807-3.413-.363-1.363-1.093-2.56-1.859-3.73-.57-.868-.706-1.835-1.273-2.611-.308-.424-.591-.547-.795-1.087-.223-.597-.205-1.094-.617-1.624-.712-.924-1.254-1.5-1.779-2.565-.704-1.425-2.369-2.41-2.263-4.162.095-1.574-.489-1.981-1.597-3.104-2.93-2.97-5.268-6.49-8.072-9.582-1.864-2.059-3.037-4.895-6.02-5.812-2.147-.817-2.572-3.261-4.263-4.511-5.073-3.75-9.896-7.863-15.337-11.08-9.885-5.845-20.181-10.634-31.442-13.44-10.08-2.513-20.178-4.605-30.559-4.146-8.855.392-17.664 1.298-26.399 3.305-6.1 1.402-12.089 3.195-17.798 5.448-6.035 2.381-11.732 5.762-17.293 9.34-10.943 7.045-20.364 15.685-28.772 25.491-1.633 1.902-3.646 3.656-4.421 6.219-1.171.816-1.854 1.963-2.227 3.317z"/><circle fill="none" stroke-width="17" cx="255.999" cy="256" r="118.845"/></g><circle clip-rule="evenodd" fill="none" stroke="{{fg}}" stroke-width="21" stroke-miterlimit="10" cx="256" cy="256" r="118.845"/></svg>
