 <svg xmlns="http://www.w3.org/2000/svg" width="512" height="512"><circle fill="{{bg}}" cx="256" cy="256" r="256"/><g fill="{{fg}}"><path d="M224.085 276.65l-56.734 4.963-7.918 23.994c-1.953 5.908-2.806 10.264-2.56 13.074.196 2.234 1.431 4.105 3.704 5.611 2.271 1.508 6.961 2.205 14.066 2.09l.35 3.998-46.144 4.037-.35-3.998c6.028-1.615 9.867-3.367 11.519-5.254 3.371-3.781 6.826-11.16 10.367-22.141l40.996-125.112 3.782-.331 61.671 117.435c4.965 9.439 9.25 15.471 12.855 18.096 3.603 2.625 8.413 3.855 14.425 3.691l.348 4-57.813 5.057-.351-3.998c5.81-.797 9.669-2.115 11.578-3.953 1.909-1.836 2.759-3.943 2.551-6.322-.277-3.168-2.157-8.047-5.638-14.641l-10.704-20.296zm-3.725-7.732l-30.036-57.045-20.323 61.45 50.359-4.405zM348.703 300.811c-9.471 8.742-15.449 13.838-17.938 15.289-3.73 2.141-7.797 3.404-12.191 3.789-6.844.598-12.686-1.248-17.525-5.545-4.842-4.295-7.594-10.262-8.264-17.898-.422-4.824.293-9.098 2.146-12.818 2.523-5.156 7.254-10.217 14.188-15.18 6.936-4.963 18.631-11.283 35.094-18.967l-.342-3.891c-.863-9.87-3.021-16.506-6.477-19.905-3.457-3.401-8.176-4.839-14.152-4.316-4.541.397-8.035 1.938-10.486 4.619-2.525 2.69-3.646 5.621-3.369 8.789l.764 6.248c.291 3.317-.334 5.947-1.867 7.896-1.537 1.949-3.672 3.044-6.41 3.283-2.666.232-4.928-.513-6.783-2.238-1.857-1.725-2.928-4.209-3.211-7.45-.543-6.195 2.129-12.165 8.014-17.906 5.887-5.741 14.559-9.114 26.014-10.115 8.789-.77 16.123.077 22 2.54 4.447 1.861 7.885 5.08 10.318 9.658 1.568 2.985 2.771 9.269 3.609 18.849l2.941 33.608c.826 9.439 1.51 15.207 2.059 17.299.545 2.094 1.264 3.467 2.156 4.111.889.65 1.877.926 2.957.83 1.152-.1 2.141-.439 2.961-1.02 1.43-1.068 4.117-3.955 8.062-8.654l.529 6.051c-7.123 11.512-14.361 17.59-21.709 18.232-3.531.309-6.447-.67-8.75-2.936-2.303-2.268-3.752-6.35-4.338-12.252zm-.615-7.026l-3.299-37.714c-10.5 5.275-17.258 8.953-20.27 11.029-5.414 3.67-9.195 7.338-11.342 11.01-2.146 3.674-3.041 7.564-2.682 11.67.455 5.186 2.379 9.357 5.777 12.506 3.396 3.152 7.111 4.551 11.146 4.197 5.477-.479 12.367-4.712 20.67-12.698z"/></g></svg>
