<?xml version="1.0" encoding="utf-8"?>
<!-- Generator: Adobe Illustrator 16.0.0, SVG Export Plug-In . SVG Version: 6.00 Build 0)  -->
<!DOCTYPE svg PUBLIC "-//W3C//DTD SVG 1.1//EN" "http://www.w3.org/Graphics/SVG/1.1/DTD/svg11.dtd">
<svg version="1.1" id="Layer_1" xmlns="http://www.w3.org/2000/svg" xmlns:xlink="http://www.w3.org/1999/xlink" x="0px" y="0px"
	 width="520px" height="520px" viewBox="0 0 520 520" enable-background="new 0 0 520 520" xml:space="preserve">
<g>
	<g>
		<circle fill="#1E1E1E" cx="260" cy="260" r="256"/>
	</g>
	<g>
		<path fill="#FFFFFF" d="M228.085,280.649l-56.734,4.963l-7.918,23.995c-1.953,5.908-2.805,10.264-2.559,13.073
			c0.196,2.234,1.43,4.105,3.704,5.612c2.271,1.507,6.961,2.204,14.066,2.089l0.35,3.999l-46.144,4.037l-0.35-3.999
			c6.029-1.615,9.867-3.367,11.519-5.253c3.371-3.781,6.826-11.161,10.367-22.141l40.996-125.112l3.782-0.331l61.671,117.436
			c4.965,9.439,9.25,15.47,12.855,18.095c3.603,2.625,8.413,3.856,14.425,3.692l0.348,3.999l-57.814,5.058l-0.351-3.999
			c5.81-0.797,9.669-2.114,11.578-3.952c1.909-1.836,2.759-3.943,2.551-6.322c-0.277-3.168-2.157-8.048-5.638-14.642
			L228.085,280.649z M224.36,272.917l-30.036-57.045l-20.323,61.45L224.36,272.917z"/>
		<path fill="#FFFFFF" d="M352.704,304.81c-9.471,8.742-15.449,13.838-17.938,15.29c-3.73,2.141-7.797,3.404-12.191,3.788
			c-6.844,0.599-12.686-1.248-17.525-5.544c-4.842-4.295-7.594-10.262-8.264-17.899c-0.422-4.824,0.293-9.098,2.146-12.817
			c2.523-5.157,7.254-10.218,14.188-15.18c6.936-4.964,18.631-11.283,35.094-18.968l-0.342-3.891
			c-0.863-9.87-3.021-16.506-6.477-19.905c-3.457-3.401-8.176-4.839-14.152-4.316c-4.541,0.397-8.035,1.938-10.486,4.619
			c-2.525,2.69-3.646,5.621-3.369,8.789l0.764,6.248c0.291,3.317-0.334,5.947-1.867,7.896c-1.537,1.949-3.672,3.044-6.41,3.283
			c-2.666,0.232-4.928-0.513-6.783-2.238c-1.857-1.725-2.928-4.209-3.211-7.45c-0.543-6.195,2.129-12.165,8.014-17.906
			c5.887-5.741,14.559-9.114,26.014-10.115c8.789-0.77,16.123,0.077,22,2.54c4.447,1.861,7.885,5.08,10.318,9.658
			c1.568,2.985,2.771,9.269,3.609,18.849l2.941,33.608c0.826,9.439,1.51,15.206,2.059,17.298c0.545,2.095,1.264,3.467,2.156,4.112
			c0.889,0.649,1.877,0.925,2.957,0.83c1.152-0.101,2.141-0.439,2.961-1.02c1.43-1.068,4.117-3.955,8.062-8.655l0.529,6.052
			c-7.123,11.512-14.361,17.589-21.709,18.232c-3.531,0.309-6.447-0.67-8.75-2.937S353.29,310.712,352.704,304.81z M352.088,297.785
			l-3.299-37.715c-10.5,5.274-17.258,8.952-20.27,11.029c-5.414,3.669-9.195,7.338-11.342,11.01
			c-2.146,3.674-3.041,7.563-2.682,11.669c0.455,5.187,2.379,9.357,5.777,12.507c3.396,3.151,7.111,4.551,11.146,4.196
			C336.895,310.004,343.786,305.771,352.088,297.785z"/>
	</g>
</g>
</svg>
