<?xml version="1.0" encoding="utf-8"?>
<!-- Generator: Adobe Illustrator 16.0.0, SVG Export Plug-In . SVG Version: 6.00 Build 0)  -->
<!DOCTYPE svg PUBLIC "-//W3C//DTD SVG 1.1//EN" "http://www.w3.org/Graphics/SVG/1.1/DTD/svg11.dtd">
<svg version="1.1" id="Layer_1" xmlns="http://www.w3.org/2000/svg" xmlns:xlink="http://www.w3.org/1999/xlink" x="0px" y="0px"
	 width="520px" height="520px" viewBox="0 0 520 520" enable-background="new 0 0 520 520" xml:space="preserve">
<g>
	<circle fill="#1E1E1E" cx="260" cy="260" r="256"/>
</g>
<path fill="#FFFFFF" d="M294.714,168.306l-3.059,3.493c37.116,11.352,54.363,27.728,54.363,27.728
	c-22.704-12.445-44.975-18.559-65.715-20.96c-15.72-1.746-30.784-1.311-44.101,0.437c-1.31,0-2.401,0.219-3.713,0.438
	c-7.642,0.654-26.199,3.493-49.558,13.754c-8.078,3.712-12.883,6.332-12.883,6.332s18.12-17.249,57.42-28.601l-2.184-2.62
	c0,0-29.91-0.655-61.347,22.924c0,0-31.439,56.982-31.439,127.282c0,0,18.339,31.656,66.587,33.185c0,0,8.08-9.824,14.63-18.121
	c-27.729-8.297-38.208-25.762-38.208-25.762s2.184,1.528,6.112,3.712c0.22,0.219,0.437,0.436,0.874,0.654
	c0.654,0.438,1.31,0.655,1.964,1.092c5.46,3.057,10.917,5.458,15.939,7.423c8.95,3.492,19.647,6.986,32.092,9.388
	c16.374,3.057,35.587,4.149,56.547,0.219c10.26-1.746,20.739-4.803,31.656-9.388c7.642-2.839,16.157-6.986,25.107-12.881
	c0,0-10.917,17.902-39.516,25.979c6.55,8.297,14.408,17.685,14.408,17.685c48.249-1.528,66.807-33.185,66.807-33.185
	c0-70.3-31.439-127.282-31.439-127.282C324.622,167.65,294.714,168.306,294.714,168.306z"/>
<g>
	<linearGradient id="SVGID_1_" gradientUnits="userSpaceOnUse" x1="286.998" y1="242.6768" x2="307.0015" y2="277.3237">
		<stop  offset="0" style="stop-color:#1E1E1E"/>
		<stop  offset="1" style="stop-color:#3C3C3C"/>
	</linearGradient>
	<circle fill="url(#SVGID_1_)" cx="297" cy="260" r="20"/>
</g>
<g>
	<linearGradient id="SVGID_2_" gradientUnits="userSpaceOnUse" x1="212.9985" y1="242.6768" x2="233.002" y2="277.3237">
		<stop  offset="0" style="stop-color:#1E1E1E"/>
		<stop  offset="1" style="stop-color:#3C3C3C"/>
	</linearGradient>
	<circle fill="url(#SVGID_2_)" cx="223" cy="260" r="20"/>
</g>
</svg>
