<svg xmlns="http://www.w3.org/2000/svg" width="512" height="512"><circle fill="#1e1e1e" cx="256" cy="256" r="256"/><path fill="#fff" d="M352.061 187.23c-31.438-23.579-61.347-22.924-61.347-22.924l-3.059 3.493c37.116 11.352 54.363 27.728 54.363 27.728-22.704-12.445-44.975-18.559-65.715-20.96a184.68 184.68 0 0 0-44.101.437c-1.31 0-2.401.219-3.713.438-7.642.654-26.199 3.493-49.558 13.754-8.078 3.712-12.883 6.332-12.883 6.332s18.12-17.249 57.42-28.601l-2.184-2.62s-29.91-.655-61.347 22.924c0 0-31.439 56.982-31.439 127.283 0 0 18.339 31.656 66.587 33.184 0 0 8.08-9.824 14.63-18.121-27.729-8.297-38.208-25.762-38.208-25.762s2.184 1.529 6.112 3.713c.22.219.437.436.874.654.654.438 1.31.654 1.964 1.092 5.46 3.057 10.917 5.457 15.939 7.422 8.95 3.492 19.647 6.986 32.092 9.389 16.374 3.057 35.587 4.148 56.547.219 10.26-1.746 20.739-4.803 31.656-9.389 7.642-2.838 16.157-6.986 25.107-12.881 0 0-10.917 17.902-39.516 25.98 6.55 8.297 14.408 17.684 14.408 17.684 48.249-1.527 66.807-33.184 66.807-33.184.003-70.302-31.436-127.284-31.436-127.284zM219 276.001c-11.045 0-20-8.955-20-20s8.955-20 20-20c11.047 0 20 8.955 20 20s-8.953 20-20 20zm74 0c-11.045 0-20-8.955-20-20s8.955-20 20-20c11.047 0 20 8.955 20 20s-8.953 20-20 20z"/></svg>