<?xml version="1.0" encoding="utf-8"?>
<!-- Generator: Adobe Illustrator 16.0.0, SVG Export Plug-In . SVG Version: 6.00 Build 0)  -->
<!DOCTYPE svg PUBLIC "-//W3C//DTD SVG 1.1//EN" "http://www.w3.org/Graphics/SVG/1.1/DTD/svg11.dtd">
<svg version="1.1" id="Layer_1" xmlns="http://www.w3.org/2000/svg" xmlns:xlink="http://www.w3.org/1999/xlink" x="0px" y="0px"
	 width="520px" height="520px" viewBox="0 0 520 520" enable-background="new 0 0 520 520" xml:space="preserve">
<g>
	<circle fill="#1E1E1E" cx="259.6" cy="259.6" r="256"/>
</g>
<g id="g3022" transform="matrix(8.1469128,0,0,8.1469128,-242.48759,-272.19257)">
	<polygon id="polygon8" fill="#FFFFFF" points="54.702,49.625 44.803,56.089 51.648,61.57 61.629,55.407 	"/>
	<polygon id="polygon10" fill="#FFFFFF" points="44.803,67.052 54.702,73.515 61.629,67.733 51.648,61.57 	"/>
	<polygon id="polygon12" fill="#FFFFFF" points="61.629,67.733 68.556,73.515 78.455,67.052 71.611,61.57 	"/>
	<polygon id="polygon14" fill="#FFFFFF" points="78.455,56.089 68.556,49.625 61.629,55.407 71.611,61.57 	"/>
	<polygon id="polygon16" fill="#FFFFFF" points="61.65,68.977 54.702,74.742 51.729,72.801 51.729,74.977 61.65,80.925 
		71.57,74.977 71.57,72.801 68.597,74.742 	"/>
</g>
</svg>
