<svg width="512" height="512" fill="none" xmlns="http://www.w3.org/2000/svg"><path d="M256 512c141.385 0 256-114.615 256-256S397.385 0 256 0 0 114.615 0 256s114.615 256 256 256z" fill="#1E1E1E"/><g filter="url(#filter0_d)" fill="#fff"><path d="M255.139 390.884C212.53 371.743 232.265 263.9 296.532 243.83c1.147 16.622 4.604 67.576 59.92 98.773-22.767 28.362-62.664 47.865-101.313 48.281z"/><path d="M299.411 215.897c-2.483 11.281-2.684 18.278-2.883 27.912-77.728 53.642-52.387 125.838-41.333 147.074-33.303-2.852-53.395-9.85-80.17-29.18-17.921-49.762 18.444-172.902 124.386-145.806z"/><path d="M314.078 217.183c1.729-2.229 25.708-1.42 46.334 8.907-19 .678-37.566 6.509-48.411 10.757-.355-5.03.471-13.309 2.077-19.664z" fill-opacity=".8"/><path d="M220.934 263.884c-38.98 25.407-45.421 82.063-45.909 97.814-74.197-57.445-45.13-142.019-16.748-169.41-11.86 3.161-26.391 13.014-32.277 15.765 21.53-58.786 127.128-127.432 212.01-54.594-33.099 30.174-36.594 54.301-38.595 62.436-37.633-4.081-101.52 25.954-113.234 55.022 15.349-5.989 19.957-7.033 34.753-7.033zM349.146 163.123c29.619 20.485 40.74 64.16 35.674 90.341-14.822-20.363-37.901-35.351-70.745-36.288 5.471-22.003 17.162-40.02 35.071-54.053z"/></g><defs><filter id="filter0_d" x="114" y="115" width="284" height="292.884" filterUnits="userSpaceOnUse" color-interpolation-filters="sRGB"><feFlood flood-opacity="0" result="BackgroundImageFix"/><feColorMatrix in="SourceAlpha" values="0 0 0 0 0 0 0 0 0 0 0 0 0 0 0 0 0 0 127 0"/><feOffset dy="5"/><feGaussianBlur stdDeviation="6"/><feColorMatrix values="0 0 0 0 0 0 0 0 0 0 0 0 0 0 0 0 0 0 0.1 0"/><feBlend in2="BackgroundImageFix" result="effect1_dropShadow"/><feBlend in="SourceGraphic" in2="effect1_dropShadow" result="shape"/></filter></defs></svg>