<?xml version="1.0" encoding="utf-8"?>
<!-- Generator: Adobe Illustrator 16.0.0, SVG Export Plug-In . SVG Version: 6.00 Build 0)  -->
<!DOCTYPE svg PUBLIC "-//W3C//DTD SVG 1.1//EN" "http://www.w3.org/Graphics/SVG/1.1/DTD/svg11.dtd">
<svg version="1.1" id="Layer_1" xmlns="http://www.w3.org/2000/svg" xmlns:xlink="http://www.w3.org/1999/xlink" x="0px" y="0px"
	 width="520px" height="520px" viewBox="0 0 520 520" enable-background="new 0 0 520 520" xml:space="preserve">
<g>
	<circle fill="#1E1E1E" cx="260" cy="259.083" r="256"/>
</g>
<g transform="translate(0.699997, 0.400002)">
	<path fill="#FFFFFF" d="M221.763,179.886c-36.122-6.58-64.681,0.309-76.063,20.021c-8.494,14.713-6.066,34.219,5.888,55.07
		c1.018,1.775,3.282,2.389,5.054,1.369c1.776-1.016,2.392-3.279,1.371-5.055c-10.768-18.781-12.862-35.617-5.898-47.68
		c9.458-16.379,34.931-22.52,68.322-16.438c2.015,0.365,3.942-0.969,4.308-2.98C225.113,182.181,223.778,180.251,221.763,179.886
		L221.763,179.886z M170.373,280.322c14.606,16.051,33.579,31.105,55.222,43.6c52.399,30.252,108.18,38.338,135.672,19.594
		c1.689-1.152,2.125-3.457,0.973-5.146c-1.15-1.691-3.455-2.127-5.148-0.977c-24.604,16.777-77.594,9.098-127.792-19.887
		c-20.995-12.119-39.367-26.699-53.445-42.17c-1.379-1.512-3.722-1.623-5.234-0.246
		C169.107,276.468,168.995,278.808,170.373,280.322L170.373,280.322z"/>
	<path fill="#FFFFFF" d="M352.497,275.816c23.65-27.941,31.908-56.043,20.551-75.721c-8.359-14.475-26.031-22.119-49.514-22.424
		c-2.043-0.027-3.723,1.609-3.75,3.654s1.607,3.727,3.656,3.752c21.117,0.275,36.342,6.859,43.189,18.723
		c9.438,16.342,2.074,41.404-19.789,67.23c-1.32,1.559-1.125,3.896,0.434,5.219C348.837,277.572,351.175,277.376,352.497,275.816
		L352.497,275.816z M291.71,181.12c-21.385,4.58-44.144,13.539-66.007,26.162c-54.093,31.229-89.378,77.277-84.478,110.67
		c0.297,2.023,2.178,3.422,4.204,3.125c2.023-0.295,3.424-2.178,3.125-4.201c-4.35-29.648,29.097-73.299,80.853-103.18
		c21.208-12.244,43.247-20.918,63.854-25.334c2-0.428,3.277-2.398,2.848-4.396C295.681,181.966,293.71,180.691,291.71,181.12
		L291.71,181.12z"/>
	<path fill="#FFFFFF" d="M204.082,341.099c12.364,34.533,32.596,55.795,55.344,55.795c16.593,0,31.945-11.312,43.914-31.223
		c1.057-1.752,0.488-4.027-1.266-5.086c-1.754-1.053-4.029-0.486-5.082,1.27c-10.76,17.895-23.973,27.629-37.566,27.629
		c-18.896,0-36.938-18.963-48.369-50.881c-0.691-1.926-2.811-2.928-4.738-2.238C204.393,337.054,203.391,339.173,204.082,341.099
		L204.082,341.099z M317.038,334.347c6.402-20.459,9.838-44.059,9.838-68.652c0-61.365-21.475-114.266-52.066-127.848
		c-1.869-0.832-4.059,0.012-4.891,1.883c-0.828,1.867,0.016,4.057,1.881,4.889c27.285,12.113,47.668,62.316,47.668,121.076
		c0,23.859-3.328,46.713-9.502,66.439c-0.607,1.951,0.479,4.029,2.432,4.641C314.349,337.386,316.427,336.298,317.038,334.347
		L317.038,334.347z"/>
	<path fill="#FFFFFF" d="M386.8,330.716c0-9.789-7.936-17.727-17.729-17.727c-9.791,0-17.729,7.938-17.729,17.727
		c0,9.791,7.938,17.729,17.729,17.729C378.864,348.445,386.8,340.507,386.8,330.716L386.8,330.716z M379.392,330.716
		c0,5.699-4.619,10.32-10.32,10.32c-5.699,0-10.318-4.621-10.318-10.32c0-5.697,4.619-10.318,10.318-10.318
		C374.773,320.398,379.392,325.019,379.392,330.716L379.392,330.716z"/>
	<path fill="#FFFFFF" d="M149.53,348.445c9.789,0,17.729-7.938,17.729-17.729c0-9.789-7.939-17.727-17.729-17.727
		c-9.791,0-17.729,7.938-17.729,17.727C131.8,340.507,139.739,348.445,149.53,348.445L149.53,348.445z M149.53,341.036
		c-5.7,0-10.32-4.621-10.32-10.32c0-5.697,4.62-10.318,10.32-10.318c5.697,0,10.32,4.621,10.32,10.318
		C159.85,336.415,155.227,341.036,149.53,341.036L149.53,341.036z"/>
	<path fill="#FFFFFF" d="M259.425,155.931c9.792,0,17.728-7.939,17.728-17.73c0-9.789-7.936-17.729-17.728-17.729
		c-9.787,0-17.728,7.939-17.728,17.729C241.698,147.992,249.638,155.931,259.425,155.931L259.425,155.931z M259.425,148.523
		c-5.696,0-10.319-4.621-10.319-10.322c0-5.699,4.623-10.32,10.319-10.32c5.701,0,10.32,4.621,10.32,10.32
		C269.745,143.902,265.126,148.523,259.425,148.523L259.425,148.523z"/>
	<path fill="#FFFFFF" d="M262.134,278.232c-6.921,1.498-13.744-2.904-15.245-9.828c-1.49-6.926,2.904-13.746,9.831-15.246
		c6.923-1.496,13.744,2.904,15.244,9.83C273.46,269.911,269.058,276.736,262.134,278.232z"/>
</g>
</svg>
