<svg xmlns="http://www.w3.org/2000/svg" width="512" height="512"><circle fill="#1e1e1e" cx="256" cy="256" r="256"/><g fill="#fff"><path d="M218.463 177.204c-36.122-6.58-64.681.309-76.063 20.021-8.494 14.713-6.066 34.219 5.888 55.07a3.7 3.7 0 0 0 5.054 1.369 3.698 3.698 0 0 0 1.371-5.055c-10.768-18.781-12.862-35.617-5.898-47.68 9.458-16.379 34.931-22.52 68.322-16.438a3.705 3.705 0 0 0 4.308-2.98 3.702 3.702 0 0 0-2.982-4.307zm-51.391 100.434c14.606 16.051 33.579 31.105 55.222 43.6 52.399 30.252 108.181 38.338 135.673 19.594a3.704 3.704 0 0 0-4.175-6.123c-24.604 16.777-77.594 9.098-127.793-19.887-20.995-12.119-39.367-26.699-53.445-42.17a3.707 3.707 0 0 0-5.234-.246 3.703 3.703 0 0 0-.248 5.232z"/><path d="M349.197 273.132c23.65-27.94 31.908-56.042 20.551-75.72-8.359-14.475-26.031-22.119-49.514-22.424a3.703 3.703 0 1 0-.094 7.406c21.117.275 36.342 6.859 43.189 18.723 9.438 16.342 2.074 41.404-19.789 67.229a3.706 3.706 0 0 0 .434 5.219 3.706 3.706 0 0 0 5.223-.433zm-60.787-94.694c-21.385 4.58-44.145 13.539-66.008 26.162-54.093 31.229-89.378 77.276-84.478 110.669a3.704 3.704 0 0 0 7.329-1.076c-4.35-29.648 29.097-73.298 80.853-103.179 21.208-12.244 43.247-20.918 63.854-25.334a3.703 3.703 0 1 0-1.55-7.242z"/><path d="M200.781 338.416c12.364 34.533 32.596 55.795 55.344 55.795 16.594 0 31.945-11.312 43.914-31.223a3.706 3.706 0 0 0-1.266-5.086 3.702 3.702 0 0 0-5.082 1.27c-10.76 17.895-23.973 27.629-37.566 27.629-18.896 0-36.938-18.963-48.369-50.881a3.706 3.706 0 0 0-4.738-2.238 3.701 3.701 0 0 0-2.237 4.734zm112.957-6.752c6.402-20.459 9.838-44.059 9.838-68.652 0-61.364-21.475-114.265-52.066-127.847a3.705 3.705 0 0 0-3.01 6.772c27.285 12.113 47.668 62.316 47.668 121.075 0 23.859-3.328 46.713-9.502 66.439a3.704 3.704 0 1 0 7.072 2.213zm69.762-3.631c0-9.789-7.936-17.727-17.729-17.727-9.791 0-17.729 7.938-17.729 17.727 0 9.791 7.938 17.729 17.729 17.729 9.793-.001 17.729-7.938 17.729-17.729zm-7.408 0c0 5.699-4.619 10.32-10.32 10.32-5.699 0-10.318-4.621-10.318-10.32 0-5.697 4.619-10.318 10.318-10.318 5.701-.001 10.32 4.62 10.32 10.318zm-229.863 17.728c9.789 0 17.729-7.938 17.729-17.729 0-9.789-7.939-17.727-17.729-17.727-9.791 0-17.729 7.938-17.729 17.727 0 9.792 7.938 17.729 17.729 17.729zm0-7.408c-5.7 0-10.32-4.621-10.32-10.32 0-5.697 4.62-10.318 10.32-10.318 5.697 0 10.32 4.621 10.32 10.318.001 5.699-4.622 10.32-10.32 10.32z"/><path d="M256.125 153.249c9.793 0 17.729-7.939 17.729-17.73 0-9.789-7.936-17.729-17.729-17.729-9.787 0-17.728 7.939-17.728 17.729s7.941 17.73 17.728 17.73zm0-7.409c-5.696 0-10.319-4.621-10.319-10.322 0-5.699 4.623-10.32 10.319-10.32 5.701 0 10.32 4.621 10.32 10.32 0 5.701-4.619 10.322-10.32 10.322zm2.709 129.708c-6.922 1.498-13.744-2.904-15.245-9.828-1.49-6.926 2.904-13.745 9.831-15.245 6.924-1.496 13.744 2.904 15.244 9.829 1.496 6.924-2.906 13.748-9.83 15.244z"/></g></svg>