<?xml version="1.0" encoding="utf-8"?>
<!-- Generator: Adobe Illustrator 16.0.0, SVG Export Plug-In . SVG Version: 6.00 Build 0)  -->
<!DOCTYPE svg PUBLIC "-//W3C//DTD SVG 1.1//EN" "http://www.w3.org/Graphics/SVG/1.1/DTD/svg11.dtd">
<svg version="1.1" id="Layer_1" xmlns="http://www.w3.org/2000/svg" xmlns:xlink="http://www.w3.org/1999/xlink" x="0px" y="0px"
	 width="520px" height="520px" viewBox="0 0 520 520" enable-background="new 0 0 520 520" xml:space="preserve">
<g>
	<circle fill="#1E1E1E" cx="259.4" cy="259.4" r="256"/>
</g>
<path id="rect3019" inkscape:connector-curvature="0" fill="#FFFFFF" d="M165.422,185.668c-11.567,0-20.872,9.318-20.872,20.886
	V312.26c0,11.567,9.305,20.872,20.872,20.872h127.776c11.567,0,20.886-9.305,20.886-20.872V206.554
	c0-11.568-9.318-20.886-20.886-20.886H165.422z M375.838,201.682l-55.12,37.667v6.54v6.54v6.567v6.54v6.554v6.541v6.566v6.541
	l55.12,26.47V201.682z M379,201.682v116.526h7.9v-6.474v-16.795v-16.82v-16.809v-16.808v-16.808v-16.822v-4.198v-4.198v-0.794H379z
	 M135.332,219.028c-1.905,0-3.432,1.578-3.432,3.526v13.013c0,1.948,1.526,3.512,3.432,3.512h0.687h2.92h1.386v-3.512v-13.013
	v-3.526h-1.386h-2.92H135.332z"/>
</svg>
