<svg xmlns="http://www.w3.org/2000/svg" width="512" height="512"><circle fill="#1E1E1E" cx="256" cy="256" r="256"/><g fill="#FFF"><path d="M129.71 379.768c-.009-.001-.016-.006-.025-.007l-.016-.001.041.008zM298.5 213.5c23.46 0 42.5-19.04 42.5-42.5s-19.04-42.5-42.5-42.5h-85c-23.46 0-42.5 19.04-42.5 42.5s19.04 42.5 42.5 42.5c-23.46 0-42.5 19.04-42.5 42.5s19.04 42.5 42.5 42.5c-23.46 0-42.5 19.04-42.5 42.5s19.04 42.5 42.5 42.5S256 364.46 256 341V213.5h42.5z"/><path d="M298.5 213.5c-23.46 0-42.5 19.04-42.5 42.5s19.04 42.5 42.5 42.5S341 279.46 341 256s-19.04-42.5-42.5-42.5z"/></g></svg>