<svg xmlns="http://www.w3.org/2000/svg" width="512" height="512"><circle fill="#1E1E1E" cx="256" cy="256" r="256"/><path fill="#FFF" d="M260.057 384.008a8.436 8.436 0 0 1-7.513-4.566 154.737 154.737 0 0 1-11.041-27.344l-2.412-9.166a160.77 160.77 0 0 1-4.09-32.416l.032-9.185c.353-11.227 1.79-20.551 3.052-26.803H208.67a8.5 8.5 0 0 1-6.088-2.585 8.525 8.525 0 0 1-2.375-6.157c1.287-39.927 18.648-76.481 32.986-100.117l5.686-8.999c10.394-15.78 18.966-25.434 19.326-25.837l.092-.102a8.473 8.473 0 0 1 6.233-2.739c2.079 0 4.079.763 5.631 2.148a8.399 8.399 0 0 1 2.822 5.824 8.408 8.408 0 0 1-2.122 6.123c-.237.271-6.346 7.271-14.382 18.982l-5.841 8.876c-13.291 21.026-29.542 53.02-32.931 87.646h31.243c.91.002 1.8.146 2.656.428 4.441 1.476 6.852 6.28 5.381 10.713-.041.124-3.506 10.826-4.625 27.521 20.212-2.484 37.107-7.831 45.763-14.567a8.469 8.469 0 0 1 5.194-1.789 8.418 8.418 0 0 1 6.689 3.273 8.413 8.413 0 0 1 1.72 6.247 8.413 8.413 0 0 1-3.203 5.635c-11.522 8.966-31.918 15.562-56.344 18.285.427 9.413 1.747 18.706 3.933 27.676l2.455 8.812a135.604 135.604 0 0 0 9 21.812 8.414 8.414 0 0 1 .561 6.455 8.419 8.419 0 0 1-4.168 4.965 8.542 8.542 0 0 1-3.901.95h-.004z"/><path fill="#FFF" d="M262.765 190.556h16.938v39.723h-16.938z"/></svg>