<svg xmlns="http://www.w3.org/2000/svg" width="512" height="512"><circle fill="#1e1e1e" cx="256" cy="256" r="256"/><g fill="#fff"><path d="M332.085 152.227c-6.206 7.226-9.096 23.489-2.803 39.975 6.292 16.486 15.937 12.905 21.949 29.717 7.936 22.183 4.242 51.982 4.242 51.982s9.541 27.627 16.189-1.719c14.715-55.121-39.577-106.381-39.577-119.955zm-15.337 200.877c42.207-4.888 60.891-48.383 36.897-49.238-21.672-.692-56.889 51.545-36.897 49.238z"/><path d="M356.685 294.982c29.038-16.9 21.467-53.405 21.467-53.405s-11.207 13.019-18.821 33.772c-7.52 20.55-20.105 29.84-2.646 19.633zm-92.187 79.724c40.486 12.918 75.282-18.975 53.833-29.625-19.501-9.607-73.049 23.516-53.833 29.625z"/><path d="M359.702 310.481c.984-1.39 2.317-5.84 3.493-7.829 7.147-11.538 7.198-20.737 7.198-20.948 4.317-21.566 3.926-30.372 1.271-46.657-2.139-13.113-11.486-31.899-19.584-40.945-8.344-9.32-2.466-6.283-10.545-13.092-7.082-7.85-13.948-15.624-17.687-18.75-27.022-22.592-26.413-27.391-25.892-28.208a26.46 26.46 0 0 0-.381.426c-.32-1.276-.546-2.349-.546-2.349s-14.771 14.771-17.881 39.391c-2.03 16.073 3.986 32.828 12.698 43.537a98.742 98.742 0 0 0 15.29 15.03v-.006c6.583 9.452 10.205 21.117 10.205 33.665 0 31.42-25.484 56.891-56.922 56.891a57.07 57.07 0 0 1-12.733-1.431c-14.832-2.826-23.397-10.309-27.67-15.388-2.448-2.911-3.489-5.033-3.489-5.033 13.29 4.76 27.984 3.765 36.92-1.171 9.004-4.992 14.454-8.693 18.875-7.233 4.359 1.453 7.829-2.764 4.717-7.136-3.051-4.366-10.988-10.618-22.773-8.886-9.016 1.313-17.274 7.712-29.086 1.515a24.944 24.944 0 0 1-2.217-1.3c-.779-.459 2.531.698 1.759.176-2.298-1.119-6.368-3.558-7.423-4.424-.176-.145 1.784.56 1.606.415-11.045-8.15-9.666-13.655-9.318-17.108.278-2.762 2.284-6.303 5.665-7.738 1.632.798 2.65 1.408 2.65 1.408s-.697-1.275-1.073-1.947c.131-.05.257-.037.389-.087 1.337.578 4.295 2.081 5.853 2.998 2.028 1.282 2.675 2.425 2.675 2.425s.534-.264.139-1.381c-.144-.458-.759-1.916-2.768-3.386l.125.013a23.563 23.563 0 0 1 3.404 2.118c.566-1.846 1.585-3.772 1.361-7.22-.137-2.423-.074-3.051-.55-3.987-.427-.803.24-1.117.98-.282a7.783 7.783 0 0 0-.633-1.903l.006-.062c.926-2.888 19.575-10.398 20.932-11.276a18.217 18.217 0 0 0 5.488-5.346c1.036-1.481 1.817-3.559 2.008-6.711.063-1.42-.374-2.544-5.313-3.619-2.964-.645-7.55-1.273-14.624-1.937-5.157-.455-8.183-3.804-9.902-6.894a42.152 42.152 0 0 0-.954-1.871 13.818 13.818 0 0 1-.734-2.167 41.066 41.066 0 0 1 15.88-19.711c.415-.339-1.658.086-1.243-.252.483-.395 3.644-1.536 4.241-1.793.729-.307-3.121-1.772-6.521-1.416-3.461.35-4.196.719-6.043 1.421.767-.684 3.205-1.581 2.633-1.574-3.731.513-8.37 2.457-12.335 4.658a2.513 2.513 0 0 1 .24-1.118c-1.847.702-6.384 3.544-7.706 5.948.057-.46.083-.924.077-1.388a22.972 22.972 0 0 0-3.784 3.55l-.069.057c-10.715-3.868-20.144-4.118-28.123-2.384-1.746-1.571-4.552-3.946-8.524-11.765-.27-.471-.415.973-.622.508-1.543-3.579-2.475-9.444-2.322-13.487 0 0-3.192 1.455-5.834 7.531a37.614 37.614 0 0 1-1.12 2.297c-.145.176.328-1.996.252-1.877-.459.778-1.647 1.864-2.169 3.27-.358 1.042-.862 1.625-1.183 2.925l-.075.12c-.026-.383.095-1.576.007-1.331a61.28 61.28 0 0 0-3.19 7.733c-1.422 4.677-3.078 11.042-3.341 19.324-.062.628-.006 1.331-.063 1.896-3.369 3.847-5.665 7.104-6.532 8.792-4.355 6.73-9.155 17.219-13.808 33.811a82.69 82.69 0 0 1 7.396-12.955c-3.869 8.807-7.608 22.636-8.356 43.933a113.586 113.586 0 0 1 3.595-13.02c-.668 14.201.986 31.808 9.964 51.672 5.331 11.684 17.601 35.412 47.584 53.928l-.003.002s10.2 7.593 27.733 13.283c1.296.471 2.608.933 3.948 1.382-.42-.17-.827-.348-1.222-.532a125.67 125.67 0 0 0 35.97 5.287c45.397.038 58.786-18.192 58.786-18.192s-.047.036-.133.098c.64-.603 1.257-1.23 1.851-1.88-7.162 6.763-23.508 7.212-29.62 6.724 10.424-3.062 17.283-5.651 30.625-10.76a72.774 72.774 0 0 0 4.789-1.979c.177-.078.355-.162.532-.243.324-.151.645-.293.972-.452a90.449 90.449 0 0 0 18.208-11.399c13.397-10.702 16.312-21.135 17.837-28.014-.213.659-.875 2.197-1.34 3.192-3.451 7.381-11.102 11.91-19.412 15.794a178.076 178.076 0 0 0 10.984-16.18c2.708-2.696 3.554-6.905 5.58-9.734z"/><path d="M343.394 336.071c5.462-6.023 10.369-12.911 14.084-20.723 9.562-20.105 24.348-53.534 12.703-88.448-9.203-27.595-21.839-42.684-37.882-57.424-26.055-23.936-33.332-34.622-33.332-40.977 0 0-30.084 33.536-17.037 68.513 13.047 34.978 39.769 33.696 57.447 70.197 20.803 42.952-16.832 89.823-47.953 102.942 1.905-.423 69.184-15.648 72.72-54.131-.081.709-1.597 11.353-20.75 20.051zm-87.159-124.806c.102-2.273-1.077-3.799-19.872-5.562-7.733-.714-10.694-7.861-11.596-10.868-2.75 7.143-3.885 14.639-3.275 23.705.417 5.94 4.408 12.315 6.315 16.058 0 0 .424-.551.62-.754 3.592-3.74 18.642-9.438 20.056-10.247 1.559-.985 7.491-5.32 7.752-12.332zm-82.739-42.216c-.27-.471.415.973-.623.508-1.542-3.58-2.482-9.381-2.26-13.481 0 0-3.192 1.455-5.834 7.531-.49 1.093-.805 1.695-1.12 2.297-.145.176.328-1.995.253-1.877-.459.777-1.647 1.864-2.163 3.207-.428 1.099-.868 1.688-1.196 3.05-.1.371.102-1.638.014-1.394-6.145 11.875-7.317 29.831-6.669 29.072 13.081-13.968 28.072-17.281 28.072-17.281-1.595-1.174-5.061-4.567-8.474-11.632zm49.634 146.062c-18.068-7.714-38.61-18.595-37.835-43.313 1.056-32.554 30.357-26.12 30.357-26.12-1.105.269-4.062 2.374-5.11 4.618-1.107 2.805-3.127 9.142 2.994 15.782 9.611 10.416-19.747 24.711 25.568 51.717 1.143.623-10.623-.37-15.974-2.684z"/><path d="M216.711 298.889c12.813 4.459 27.739 3.677 36.675-1.258 5.982-3.331 13.657-8.665 18.379-7.348-4.088-1.616-7.185-2.371-10.91-2.556-.634 0-1.395-.013-2.085-.083a35.029 35.029 0 0 0-4.083.224c-2.307.212-4.864 1.667-7.188 1.434-.125-.013 2.254-.978 2.061-.934-1.231.256-2.57.312-3.983.487-.898.1-1.671.213-2.563.25-26.688 2.264-49.242-14.463-49.242-14.463-1.92 6.463 8.594 19.253 22.939 24.247zm126.635 37.355c26.993-26.503 40.65-58.719 34.877-94.853 0 0 2.307 18.528-6.439 37.479 4.202-18.501 4.69-41.493-6.472-65.302-14.899-31.779-39.402-48.501-48.758-55.478-14.174-10.571-20.049-21.333-20.155-23.553-4.234 8.675-17.043 38.406-1.376 64.008 14.678 23.988 37.8 31.108 53.987 53.112 29.821 40.537-5.664 84.587-5.664 84.587z"/><path d="M339.479 267.286c-9.433-19.488-21.208-27.988-32.345-37.201 1.296 1.814 1.615 2.455 2.332 3.628 9.803 10.448 24.258 35.933 13.764 67.924-19.754 60.219-98.771 31.862-107.056 23.896 3.352 34.853 61.687 51.53 99.667 28.929 21.613-20.459 39.097-55.239 23.638-87.176z"/></g></svg>