<?xml version="1.0" encoding="utf-8"?>
<!-- Generator: Adobe Illustrator 16.0.0, SVG Export Plug-In . SVG Version: 6.00 Build 0)  -->
<!DOCTYPE svg PUBLIC "-//W3C//DTD SVG 1.1//EN" "http://www.w3.org/Graphics/SVG/1.1/DTD/svg11.dtd">
<svg version="1.1" id="Layer_1" xmlns="http://www.w3.org/2000/svg" xmlns:xlink="http://www.w3.org/1999/xlink" x="0px" y="0px"
	 width="520px" height="520px" viewBox="0 0 520 520" enable-background="new 0 0 520 520" xml:space="preserve">
<g>
	<g>
		<circle fill="#1E1E1E" cx="260" cy="259.466" r="256"/>
	</g>
	<g>
		<path fill="#FFFFFF" d="M237.678,158.741l7.91,90.437l41.911-3.667c9.612-0.841,16.469-3.577,20.567-8.21
			c4.099-4.633,6.331-13.292,6.704-25.975l6.278-0.55l6.814,77.881l-6.279,0.549c-0.896-8.925-2.627-15.383-5.198-19.379
			c-2.573-3.988-5.902-6.861-9.988-8.613c-4.086-1.75-9.976-2.291-17.666-1.618l-41.91,3.667l6.324,72.281
			c1.018,11.652,2.427,19.279,4.225,22.884c1.377,2.729,3.965,4.954,7.766,6.672c5.213,2.278,10.535,3.18,15.964,2.706l8.314-0.729
			l0.55,6.28l-98.749,8.64l-0.552-6.279l8.146-0.712c9.501-0.831,16.156-4.205,19.97-10.126c2.399-3.855,2.994-12.684,1.787-26.486
			l-13.006-148.636c-1.018-11.648-2.426-19.278-4.221-22.882c-1.381-2.727-3.914-4.959-7.597-6.688
			c-5.103-2.289-10.424-3.19-15.966-2.707l-8.143,0.713l-0.55-6.279l171.201-14.977l6.629,50.369l-5.937,0.52
			c-3.882-10.489-7.994-18.078-12.336-22.771c-4.344-4.689-9.473-7.917-15.381-9.682c-5.911-1.761-14.861-2.119-26.851-1.07
			L237.678,158.741z"/>
	</g>
</g>
</svg>
