<svg xmlns="http://www.w3.org/2000/svg" width="512" height="512"><circle fill="#1E1E1E" cx="256" cy="256" r="256"/><path fill="#FFF" d="M233.896 373.136s2.323 5.646 22.104 5.646 22.104-5.646 22.104-5.646.886-36.257 2.396-43.338c1.161-5.444 14.551-14.454 19.382-20.035 6.098-7.042 6.098-22.213 6.098-22.213l-10.235-160.718s-.871-3.049-3.92-3.049-3.049 2.613-3.049 2.613l-1.742 135.891c0 4.465-6.098 4.574-6.098 4.574-5.662 0-6.533-4.791-6.533-4.791l-2.396-135.457s-.436-2.831-3.92-2.831-3.702 3.049-3.702 3.049l-2.178 135.02s-.599 5.01-6.533 5.01h.653c-5.935 0-6.533-5.01-6.533-5.01l-2.178-135.02s-.218-3.049-3.702-3.049-3.92 2.831-3.92 2.831l-2.396 135.457s-.871 4.791-6.534 4.791c0 0-6.098-.109-6.098-4.574l-1.742-135.891s0-2.613-3.049-2.613-3.92 3.049-3.92 3.049L206.021 287.55s0 15.171 6.098 22.213c4.831 5.581 18.221 14.591 19.382 20.035 1.509 7.081 2.395 43.338 2.395 43.338z"/></svg>