<svg width="512" height="512" fill="none" xmlns="http://www.w3.org/2000/svg"><path d="M256 512c141.385 0 256-114.615 256-256S397.385 0 256 0 0 114.615 0 256s114.615 256 256 256z" fill="#1E1E1E"/><mask id="a" maskUnits="userSpaceOnUse" x="123" y="128" width="266" height="257"><path d="M388.24 302.8l-.01 9.3c-.02 2.62-.05 5.23-.13 7.84-.15 5.68-.49 11.42-1.5 17.04a56.889 56.889 0 0 1-5.4 16.22 54.48 54.48 0 0 1-10.14 13.8 55.06 55.06 0 0 1-13.95 10.02 58.44 58.44 0 0 1-16.38 5.35 115.93 115.93 0 0 1-17.23 1.5c-11.05.13-14.18.13-17.31.13H205.06a763.36 763.36 0 0 1-17.32-.13c-5.75-.16-11.54-.5-17.23-1.5a58.44 58.44 0 0 1-16.37-5.35 55.005 55.005 0 0 1-24.09-23.82 57.158 57.158 0 0 1-5.4-16.22 112.361 112.361 0 0 1-1.5-17.04c-.08-2.61-.11-5.22-.13-7.83-.02-3.1-.02-6.2-.02-9.3v-93.62c0-3.1 0-6.2.02-9.3.02-2.6.05-5.22.12-7.83.16-5.69.5-11.42 1.51-17.05a57.168 57.168 0 0 1 5.4-16.2 54.872 54.872 0 0 1 24.09-23.83 58.388 58.388 0 0 1 16.37-5.34 116.063 116.063 0 0 1 17.23-1.5c11.05-.14 14.19-.14 17.32-.14h98.56l-38.16.01 40.73-.01c12.03.04 14.67.06 17.31.13 5.75.16 11.55.5 17.23 1.5a58.42 58.42 0 0 1 16.38 5.35 54.92 54.92 0 0 1 24.08 23.82 56.898 56.898 0 0 1 5.4 16.21 112.761 112.761 0 0 1 1.52 17.05c.07 2.61.1 5.22.12 7.84l.01 9.3v93.61-.01z" fill="#fff"/></mask><g mask="url(#a)" fill="#fff"><path d="M388.23 312.1l-17.91-.1v.01l17.9.1.01-.01zm-.13 7.84l-17.9-.5v.01l17.9.49zm-1.5 17.04l-17.63-3.2 17.62 3.2h.01zm-5.4 16.22l-15.92-8.22v.01l15.91 8.2.01.01zM371.05 367l12.59 12.74L371.06 367h-.01zm-30.33 15.37l-3.12-17.65 3.12 17.64v.01zm-17.23 1.5l.22 17.91h.26l-.48-17.91zm-118.44.13l-.05 17.92h.05V384zm-17.32-.13l.49-17.92h-.01l-.48 17.92zm-17.23-1.5l3.14-17.65h-.01l-3.13 17.64v.01zm-16.37-5.35l8.05-16h-.01l-8.04 16zM140.19 367l-12.6 12.74L140.2 367h-.01zm-15.54-30.02l-17.61 3.21 17.61-3.2v-.01zm-1.5-17.04l17.89-.49v-.01l-17.9.5h.01zm-.13-7.83l17.9-.1v-.03l-17.9.13zm0-112.21l17.9.13v-.04l-17.9-.1v.01zm.12-7.84l17.9.5v-.01l-17.9-.49zm6.91-33.25l-15.92-8.21 15.92 8.2v.01zm10.13-13.8l12.58 12.74h.02L140.18 145v.01zm13.96-10.03l8.04 16h.01l-8.05-16zm16.37-5.34l3.13 17.64-3.13-17.65v.01zm17.23-1.5l-.22-17.92h-.25l.47 17.91v.01zm118.45-.14l.05-17.92h-.06V128h.01zm64.87 17l-12.6 12.74.02.01L371.06 145zm10.13 13.8l-15.92 8.2.01.02 15.91-8.22zm6.92 33.26l-17.9.49v.01l17.9-.5zm.12 7.84l-17.91.09v.01l17.9-.1h.01zm-17.9 102.9l-.01 9.2 35.8.21c.03-3.16.03-6.31.03-9.4h-35.81l-.01-.01zm-.01 9.21c-.01 2.54-.04 5-.11 7.43l35.8 1c.07-2.8.1-5.55.12-8.24l-35.81-.19zm-.11 7.44a95.017 95.017 0 0 1-1.23 14.32l35.22 6.42a130.097 130.097 0 0 0 1.8-19.76l-35.8-.98h.01zm-1.24 14.33a39.042 39.042 0 0 1-3.69 11.2l31.82 16.43c3.6-6.96 5.8-14 7.1-21.23l-35.23-6.4zm-3.7 11.22a36.546 36.546 0 0 1-6.8 9.25l25.18 25.49a72.39 72.39 0 0 0 13.46-18.34L365.27 345zm-6.8 9.25a37.15 37.15 0 0 1-9.4 6.76l16.09 32.02a73.015 73.015 0 0 0 18.49-13.29l-25.17-25.49h-.01zm-9.41 6.77a40.546 40.546 0 0 1-11.45 3.7l6.25 35.29a76.34 76.34 0 0 0 21.3-6.98l-16.1-32.01zm-11.46 3.7a98.774 98.774 0 0 1-14.57 1.23l.95 35.83c6.05-.16 12.89-.53 19.89-1.77l-6.27-35.29zm-14.31 1.23c-11 .13-14.05.13-17.1.13v35.84c3.21 0 6.42 0 17.53-.14l-.43-35.83zm-17.1.13h-65.15v35.84h65.15v-35.84zm-65.15 0h-35.98v35.84h35.98v-35.84zm-35.93 0c-12.1-.04-14.5-.06-16.88-.13l-.97 35.83c2.9.08 5.78.1 17.75.14l.1-35.84zm-16.9-.13a98.764 98.764 0 0 1-14.56-1.23l-6.27 35.29c7 1.24 13.84 1.6 19.89 1.77l.95-35.83h-.01zm-14.57-1.23a40.546 40.546 0 0 1-11.45-3.7l-16.1 32a76.317 76.317 0 0 0 21.3 6.99l6.25-35.29zm-11.46-3.7a37.067 37.067 0 0 1-9.4-6.77l-25.18 25.49a72.82 72.82 0 0 0 18.5 13.3L162.18 361v.02zm-9.4-6.77a36.688 36.688 0 0 1-6.82-9.27l-31.82 16.43a72.489 72.489 0 0 0 13.46 18.33l25.17-25.49h.01zm-6.81-9.26a39.29 39.29 0 0 1-3.7-11.22l-35.23 6.43a75.09 75.09 0 0 0 7.1 21.2l31.83-16.4v-.01zm-3.7-11.22c-.78-4.26-1.09-8.93-1.23-14.32l-35.8.98c.17 5.97.53 12.79 1.8 19.76l35.23-6.42zm-1.23-14.33c-.07-2.43-.1-4.9-.11-7.43l-35.81.2c.01 2.68.05 5.44.12 8.23l35.8-1zm-.11-7.46c-.03-3.03-.03-6.06-.03-9.18h-35.8c0 3.1 0 6.26.02 9.44l35.8-.26h.01zm-.03-9.18v-30.86h-35.8v30.87h35.8v-.01zm0-30.86v-31.88h-35.8v31.88h35.8zm0-31.88v-30.87h-35.8v30.87h35.8zm0-30.87c0-3.1 0-6.14.03-9.16l-35.81-.27c-.02 3.18-.02 6.35-.02 9.44h35.8v-.01zm.03-9.2c.01-2.54.04-5 .1-7.43l-35.79-1c-.07 2.8-.1 5.55-.12 8.24l35.8.19h.01zm.1-7.44c.15-5.4.46-10.06 1.24-14.33l-35.23-6.41a130.097 130.097 0 0 0-1.8 19.76l35.8.98h-.01zm1.24-14.33c.76-4.2 1.94-7.8 3.7-11.21l-31.84-16.41a75.06 75.06 0 0 0-7.1 21.2l35.24 6.42zm3.7-11.21a36.531 36.531 0 0 1 6.8-9.26l-25.17-25.5a72.31 72.31 0 0 0-13.46 18.35l31.83 16.4v.01zm6.8-9.27c2.75-2.72 5.93-5 9.4-6.75l-16.07-32.03a72.763 72.763 0 0 0-18.51 13.3l25.19 25.48h-.01zm9.42-6.76a40.546 40.546 0 0 1 11.45-3.7l-6.25-35.29a76.274 76.274 0 0 0-21.3 6.98l16.1 32.01zm11.46-3.7a98.91 98.91 0 0 1 14.57-1.23l-.95-35.83c-6.05.16-12.9.53-19.89 1.77l6.27 35.29zm14.31-1.23c11-.13 14.05-.13 17.1-.13v-35.84c-3.22 0-6.42 0-17.54.14l.44 35.83zm17.1-.13h35.98v-35.84h-35.98v35.84zm35.98 0h62.58v-35.84h-62.58v35.84zm24.41-35.83l.02 35.84 38.15-.01v-35.84l-38.17.01zm.02 35.84l40.72-.01v-35.84l-40.73.01v35.84h.01zm40.66-.01c12.11.04 14.5.06 16.89.13l.97-35.83c-2.9-.08-5.78-.1-17.75-.14l-.1 35.84h-.01zm16.9.13c5.45.14 10.2.45 14.57 1.23l6.27-35.29c-7-1.24-13.84-1.6-19.9-1.77l-.94 35.83zm14.58 1.23c4.28.76 7.95 1.94 11.45 3.7l16.1-32a76.317 76.317 0 0 0-21.3-6.99l-6.25 35.29zm11.45 3.7a37.065 37.065 0 0 1 9.4 6.76l25.2-25.47a72.868 72.868 0 0 0-18.5-13.3l-16.1 32.02v-.01zm9.42 6.77a36.402 36.402 0 0 1 6.79 9.25l31.84-16.4a72.223 72.223 0 0 0-13.47-18.35l-25.16 25.5zm6.8 9.27c1.76 3.41 2.93 7 3.7 11.2l35.22-6.4a74.788 74.788 0 0 0-7.1-21.23l-31.82 16.43zm3.7 11.2a95.16 95.16 0 0 1 1.23 14.33l35.8-.98c-.17-5.99-.54-12.8-1.8-19.76l-35.24 6.4.01.01zm1.23 14.34c.07 2.43.1 4.9.11 7.43l35.8-.19c0-2.7-.04-5.45-.12-8.24l-35.8 1h.01zm.11 7.44c.02 3.03.02 6.09.02 9.2h35.8l-.01-9.41-35.81.21zm.02 9.2v30.86h35.8v-30.87h-35.8v.01zm0 30.86v31.88h35.8v-31.88h-35.8zm0 31.88v30.87h35.8v-30.87h-35.8z"/><path fill-rule="evenodd" clip-rule="evenodd" d="M227.34 237.37c0-.7.57-1.28 1.28-1.28h40.97c.7 0 1.28.57 1.28 1.28v5.96c0 .7-.57 1.28-1.28 1.28h-40.97c-.7 0-1.28-.57-1.28-1.28v-5.96zm-14.09-23.72c.4-.36.32-1-.15-1.25l-16.31-8.67a.766.766 0 0 1-.35-.96l11.47-28.6c.3-.75-.62-1.4-1.23-.85l-35.13 31.83a.774.774 0 0 0-.248.619.754.754 0 0 0 .098.328.754.754 0 0 0 .23.253l15.53 10.56c.3.2.41.58.28.91l-10.51 26.77c-.3.76.63 1.4 1.23.85l35.1-31.79h-.01z"/></g></svg>