<svg width="512" height="512" fill="none" xmlns="http://www.w3.org/2000/svg"><circle cx="256" cy="256" r="256" fill="#000"/><mask id="a" maskUnits="userSpaceOnUse" x="151" y="155" width="210" height="202"><path d="M360.4 292.93l-.01 7.34a270.8 270.8 0 0 1-.1 6.18 88.63 88.63 0 0 1-1.2 13.45 44.9 44.9 0 0 1-4.25 12.8 43.01 43.01 0 0 1-19.02 18.8 46.17 46.17 0 0 1-12.93 4.21 91.8 91.8 0 0 1-13.6 1.18c-8.72.11-11.2.11-13.67.11H215.8c-9.51-.03-11.6-.05-13.68-.1a91.82 91.82 0 0 1-13.6-1.19c-4.56-.8-8.8-2.13-12.93-4.21a43.4 43.4 0 0 1-19.01-18.8 45.15 45.15 0 0 1-4.26-12.8 88.63 88.63 0 0 1-1.2-13.45c-.06-2.06-.08-4.12-.1-6.18l-.01-7.34V219.07c0-2.45 0-4.9.02-7.34 0-2.06.03-4.12.1-6.18.11-4.49.38-9.02 1.19-13.45.82-4.51 2.15-8.7 4.26-12.8a43.3 43.3 0 0 1 19.01-18.8 46.15 46.15 0 0 1 12.93-4.21c4.49-.8 9.06-1.06 13.6-1.18 8.73-.11 11.2-.11 13.67-.11h77.81l-30.12.01 32.15-.01c9.5.03 11.59.05 13.67.1 4.54.13 9.12.4 13.6 1.19 4.56.8 8.8 2.13 12.93 4.22a43.36 43.36 0 0 1 19.01 18.8 44.87 44.87 0 0 1 4.27 12.79c.8 4.43 1.07 8.96 1.2 13.45.05 2.06.08 4.12.09 6.18l.01 7.34V292.93z" fill="#fff"/></mask><g mask="url(#a)"><path d="M360.4 292.93l-.01 7.34a270.8 270.8 0 0 1-.1 6.18 88.63 88.63 0 0 1-1.2 13.45 44.9 44.9 0 0 1-4.25 12.8 43.01 43.01 0 0 1-19.02 18.8 46.17 46.17 0 0 1-12.93 4.21 91.8 91.8 0 0 1-13.6 1.18c-8.72.11-11.2.11-13.67.11H215.8c-9.51-.03-11.6-.05-13.68-.1a91.82 91.82 0 0 1-13.6-1.19c-4.56-.8-8.8-2.13-12.93-4.21a43.4 43.4 0 0 1-19.01-18.8 45.15 45.15 0 0 1-4.26-12.8 88.63 88.63 0 0 1-1.2-13.45c-.06-2.06-.08-4.12-.1-6.18l-.01-7.34V219.07c0-2.45 0-4.9.02-7.34 0-2.06.03-4.12.1-6.18.11-4.49.38-9.02 1.19-13.45.82-4.51 2.15-8.7 4.26-12.8a43.3 43.3 0 0 1 19.01-18.8 46.15 46.15 0 0 1 12.93-4.21c4.49-.8 9.06-1.06 13.6-1.18 8.73-.11 11.2-.11 13.67-.11h77.81l-30.12.01 32.15-.01c9.5.03 11.59.05 13.67.1 4.54.13 9.12.4 13.6 1.19 4.56.8 8.8 2.13 12.93 4.22a43.36 43.36 0 0 1 19.01 18.8 44.87 44.87 0 0 1 4.27 12.79c.8 4.43 1.07 8.96 1.2 13.45.05 2.06.08 4.12.09 6.18l.01 7.34V292.93z" fill="#000"/><path d="M360.39 300.27l-14.14-.08v.01l14.14.07zm-.1 6.18l-14.13-.4v.02l14.13.38zm-1.2 13.45l-13.9-2.53 13.9 2.53zm-4.25 12.8l-12.57-6.49v.01l12.56 6.47zm-8 10.88l9.94 10.06-9.94-10.06zm-11.02 7.92l-6.35-12.64 6.35 12.63zm-12.93 4.21l-2.46-13.92 2.46 13.92zm-13.6 1.18l.17 14.14h.2l-.37-14.14zm-93.5.11l-.05 14.14h.04V357zm-13.68-.1l.39-14.14h-.01l-.38 14.13zm-13.6-1.19l2.47-13.92-2.47 13.92zm-12.93-4.21l6.36-12.63h-.01l-6.35 12.63zm-11.01-7.92l-9.94 10.06 9.94-10.06zm-8-10.89L144 339.17l12.57-6.48zm-4.26-12.79l-13.91 2.53 13.9-2.53zm-1.2-13.45l14.13-.38v-.01l-14.13.4zm-.1-6.18l14.14-.07v-.03l-14.13.1zm0-88.54l14.14.1v-.03l-14.13-.07zm.1-6.18l14.13.4v-.02l-14.13-.38zm1.2-13.45l-13.91-2.54 13.9 2.54zm4.26-12.8L144 172.84l12.57 6.48zm8-10.88l9.93 10.06.01-.01-9.94-10.05zm11.01-7.91l6.35 12.63h.01l-6.36-12.63zm12.93-4.22l2.47 13.92-2.47-13.92zm13.6-1.18l-.17-14.14h-.2l.37 14.14zm91.48-.11v14.14-28.28V155zm-30.12.01v-14.14 28.28-14.14zm32.15-.01l.04-14.14h-.04V155zm13.67.1l-.38 14.14.38-14.13zm13.6 1.19l-2.47 13.92 2.47-13.92zm12.93 4.22l-6.36 12.62h.01l6.35-12.63zm11.02 7.9l-9.94 10.06 9.94-10.05zm8 10.9l-12.57 6.46v.02l12.56-6.48zm4.26 12.79l-13.91 2.52 13.9-2.52zm1.2 13.45l-14.13.38v.01l14.12-.4zm.09 6.18l-14.14.07v.01l14.14-.08zm-14.12 81.2c0 2.45 0 4.86-.02 7.26l28.27.17c.02-2.5.02-4.99.02-7.43h-28.27zm-.02 7.27c0 2-.03 3.94-.08 5.86l28.25.79c.06-2.2.1-4.38.1-6.5l-28.27-.15zm-.08 5.87a75.14 75.14 0 0 1-.98 11.3l27.81 5.06c1-5.5 1.3-10.87 1.42-15.6l-28.25-.76zm-.98 11.3a30.73 30.73 0 0 1-2.92 8.84l25.13 12.97a59 59 0 0 0 5.6-16.75l-27.81-5.05zm-2.92 8.85a28.84 28.84 0 0 1-5.37 7.3l19.88 20.12a57.14 57.14 0 0 0 10.62-14.47l-25.13-12.95zm-5.37 7.3a29.3 29.3 0 0 1-7.43 5.34l12.7 25.27a57.63 57.63 0 0 0 14.6-10.5l-19.87-20.1zm-7.44 5.35a32.04 32.04 0 0 1-9.03 2.92l4.93 27.84a60.3 60.3 0 0 0 16.82-5.5l-12.72-25.26zm-9.04 2.92c-3.45.61-7.2.85-11.5.97l.75 28.27a105.5 105.5 0 0 0 15.7-1.4l-4.95-27.84zm-11.3.96c-8.68.11-11.1.11-13.5.11v28.28c2.54 0 5.07 0 13.84-.1l-.34-28.29zm-13.5.11H244.2v28.28h51.43v-28.28zm-51.43 0h-28.4v28.28h28.4v-28.28zm-28.37 0c-9.56-.03-11.45-.05-13.32-.1l-.77 28.27c2.29.06 4.56.08 14.01.11l.08-28.28zm-13.33-.1c-4.3-.12-8.06-.36-11.5-.97l-4.95 27.84c5.52.98 10.92 1.27 15.7 1.4l.75-28.27zm-11.51-.97a32.05 32.05 0 0 1-9.04-2.92l-12.72 25.25a60.27 60.27 0 0 0 16.82 5.51l4.94-27.84zm-9.05-2.93a29.27 29.27 0 0 1-7.43-5.33l-19.87 20.1a57.53 57.53 0 0 0 14.6 10.5l12.7-25.27zm-7.43-5.33a28.91 28.91 0 0 1-5.37-7.32L144 339.17a57.25 57.25 0 0 0 10.63 14.47l19.87-20.11zm-5.37-7.31a31 31 0 0 1-2.92-8.86l-27.81 5.08a59.24 59.24 0 0 0 5.6 16.73l25.13-12.95zm-2.92-8.85a75.01 75.01 0 0 1-.97-11.3l-28.26.77c.13 4.71.42 10.09 1.42 15.6l27.81-5.07zm-.97-11.31c-.05-1.92-.08-3.86-.09-5.86l-28.27.15c.02 2.12.04 4.3.1 6.5l28.26-.8zm-.09-5.89c-.02-2.39-.02-4.78-.02-7.24h-28.26l.01 7.45 28.27-.21zm-.02-7.24v-24.35h-28.26v24.35h28.26zm0-24.35v-25.16h-28.26v25.16h28.26zm0-25.16v-24.35h-28.26v24.35h28.26zm0-24.35c0-2.46 0-4.85.02-7.24l-28.27-.2-.01 7.44h28.26zm.02-7.27c.01-2 .04-3.94.09-5.86l-28.26-.79c-.06 2.2-.08 4.38-.1 6.5l28.27.15zm.1-5.87c.1-4.25.35-7.93.96-11.3l-27.81-5.06c-1 5.5-1.29 10.88-1.42 15.6l28.26.76zm.96-11.3c.6-3.32 1.53-6.15 2.92-8.85L144 172.83a59.2 59.2 0 0 0-5.6 16.73l27.81 5.07zm2.92-8.85c1.39-2.7 3.2-5.16 5.37-7.3l-19.87-20.12A57.1 57.1 0 0 0 144 172.83l25.13 12.95zm5.38-7.31a29.16 29.16 0 0 1 7.42-5.33l-12.7-25.27a57.43 57.43 0 0 0-14.6 10.5l19.88 20.1zm7.43-5.34a32.05 32.05 0 0 1 9.04-2.92l-4.94-27.84a60.2 60.2 0 0 0-16.82 5.5l12.72 25.26zm9.04-2.92c3.45-.61 7.2-.85 11.5-.97l-.74-28.27c-4.78.13-10.18.42-15.7 1.4l4.94 27.84zm11.3-.97c8.68-.1 11.1-.1 13.5-.1v-28.28c-2.54 0-5.07 0-13.84.1l.34 28.28zm13.5-.1h28.41v-28.28h-28.4v28.28zm28.41 0h49.4v-28.28h-49.4v28.28zm49.4-28.28l-30.13.01.02 28.28 30.12-.01-.01-28.28zm-30.12 28.3l32.16-.02-.01-28.28-32.16.01.01 28.28zm32.11-.02c9.56.03 11.45.05 13.33.1l.77-28.27c-2.3-.06-4.57-.08-14.02-.11l-.08 28.28zm13.34.1c4.3.12 8.05.36 11.5.97l4.95-27.84a105.48 105.48 0 0 0-15.7-1.4l-.75 28.27zm11.5.97c3.39.6 6.29 1.53 9.04 2.92l12.72-25.25a60.22 60.22 0 0 0-16.82-5.51l-4.93 27.84zm9.05 2.93a29.24 29.24 0 0 1 7.43 5.33l19.88-20.1a57.54 57.54 0 0 0-14.6-10.5l-12.7 25.27zm7.44 5.34a28.72 28.72 0 0 1 5.35 7.3l25.14-12.94a56.96 56.96 0 0 0-10.63-14.48l-19.86 20.12zm5.36 7.3a30.73 30.73 0 0 1 2.92 8.84l27.81-5.05a59 59 0 0 0-5.6-16.75l-25.13 12.97zm2.92 8.84c.61 3.38.86 7.07.98 11.31l28.25-.77c-.13-4.72-.42-10.1-1.42-15.6l-27.81 5.06zm.98 11.32c.05 1.92.07 3.86.08 5.86l28.27-.14c0-2.13-.04-4.3-.1-6.5l-28.25.78zm.08 5.87c.02 2.4.02 4.8.02 7.26h28.27c0-2.44 0-4.93-.02-7.42l-28.27.16zm.02 7.26v24.35h28.27v-24.35h-28.27zm0 24.35v25.16h28.27v-25.16h-28.27zm0 25.16v24.35h28.27v-24.35h-28.27z" fill="#fff"/><path fill-rule="evenodd" clip-rule="evenodd" d="M233.37 241.3c0-.56.45-1.01 1.01-1.01h32.35c.56 0 1.01.45 1.01 1.01v4.7c0 .56-.45 1.01-1 1.01h-32.36c-.56 0-1-.45-1-1v-4.71zM222.25 222.58a.6.6 0 0 0-.12-.98l-12.88-6.84a.6.6 0 0 1-.27-.76l9.06-22.57c.23-.6-.5-1.1-.97-.67l-27.74 25.11a.6.6 0 0 0 .06.95l12.26 8.33a.6.6 0 0 1 .22.72l-8.3 21.13c-.23.6.5 1.1.98.67l27.7-25.09z" fill="#fff"/></g></svg>