<svg xmlns="http://www.w3.org/2000/svg" width="512" height="512"><circle fill="#1E1E1E" cx="256" cy="256" r="256"/><path fill-rule="evenodd" clip-rule="evenodd" fill="#FFF" d="M160.548 207.168v5.125h3.686c66.026-.009 132.051-.031 198.075.027 3.107.003 6.355.291 9.29 1.225 7.586 2.412 11.807 8.597 11.809 16.553.004 44.544-.13 89.087.092 133.628.053 10.58-7.862 17.76-17.602 18.436-.99.07-1.989.049-2.984.049-71.334 0-142.667-.01-214.001.021-5.222.002-10.05-1.021-14.186-4.365-4.039-3.264-6.221-7.461-6.222-12.713-.002-62.045-.013-124.089.003-186.134.002-7.396 4.211-11.872 12.494-13.212 11.043-1.787 22.11-3.425 33.163-5.147 27.264-4.251 54.525-8.521 81.79-12.769 27.184-4.234 54.37-8.445 81.554-12.68a6618.646 6618.646 0 0 0 33.148-5.235c3.347-.539 6.453-.069 9.268 1.839 2.271 1.539 3.521 3.657 3.51 6.484-.032 7.631.015 15.262-.047 22.893-.04 5.227-1.585 7.804-6.678 9.154-6.146 1.631-12.459 2.676-18.739 3.74-22.549 3.818-45.113 7.533-67.672 11.294-28.28 4.713-56.559 9.438-84.84 14.149-14.305 2.384-28.612 4.75-42.917 7.133-.641.107-1.266.318-1.994.505z"/></svg>