<?xml version="1.0" encoding="utf-8"?>
<!-- Generator: Adobe Illustrator 16.0.0, SVG Export Plug-In . SVG Version: 6.00 Build 0)  -->
<!DOCTYPE svg PUBLIC "-//W3C//DTD SVG 1.1//EN" "http://www.w3.org/Graphics/SVG/1.1/DTD/svg11.dtd">
<svg version="1.1" id="Layer_1" xmlns="http://www.w3.org/2000/svg" xmlns:xlink="http://www.w3.org/1999/xlink" x="0px" y="0px"
	 width="520px" height="520px" viewBox="0 0 520 520" enable-background="new 0 0 520 520" xml:space="preserve">
<g>
	<g>
		<circle fill="#1E1E1E" cx="260.383" cy="260.055" r="256"/>
	</g>
	<path fill-rule="evenodd" clip-rule="evenodd" fill="#FFFFFF" d="M164.932,211.223c0,1.61,0,3.164,0,5.125c1.265,0,2.476,0,3.686,0
		c66.026-0.009,132.05-0.031,198.076,0.027c3.107,0.003,6.355,0.291,9.289,1.225c7.586,2.412,11.807,8.597,11.809,16.553
		c0.004,44.543-0.129,89.086,0.092,133.627c0.053,10.58-7.861,17.761-17.602,18.437c-0.99,0.069-1.988,0.048-2.984,0.048
		c-71.334,0.001-142.667-0.009-214,0.022c-5.222,0.002-10.05-1.021-14.186-4.365c-4.039-3.265-6.221-7.462-6.222-12.714
		c-0.002-62.045-0.013-124.088,0.003-186.133c0.002-7.396,4.211-11.872,12.494-13.212c11.043-1.787,22.11-3.425,33.163-5.147
		c27.264-4.251,54.525-8.521,81.79-12.769c27.184-4.234,54.37-8.445,81.553-12.68c11.053-1.722,22.104-3.457,33.148-5.235
		c3.348-0.539,6.453-0.069,9.268,1.839c2.271,1.539,3.521,3.657,3.51,6.484c-0.031,7.631,0.016,15.262-0.047,22.893
		c-0.039,5.227-1.584,7.804-6.678,9.154c-6.145,1.631-12.459,2.676-18.738,3.74c-22.549,3.818-45.113,7.533-67.672,11.294
		c-28.281,4.713-56.559,9.438-84.84,14.149c-14.305,2.384-28.612,4.75-42.917,7.133
		C166.284,210.824,165.659,211.035,164.932,211.223z"/>
</g>
</svg>
