<svg xmlns="http://www.w3.org/2000/svg" width="512" height="512"><circle fill="#1e1e1e" cx="256" cy="256" r="256"/><path fill="#fff" d="M137.123 364.304c3.223 9.245 10.373 15.794 19.995 18.315 9.084 2.377 26.087-.266 34.784-5.412 3.636-2.15 8.311-6.668 10.743-10.381.96-1.469 2.411-4.428 3.217-6.578 2.833-7.525 2.775-5.919 2.78-76.741 0-46.11.145-64.835.505-66.524.615-2.862 2.528-4.961 5.167-5.673 2.376-.64 97.607-19.909 100.285-20.292 2.52-.359 4.906.541 6.051 2.289.773 1.178.819 3.51.937 45.951.134 48.847.188 47.702-2.402 50.785-1.889 2.243-4.247 3.109-13.925 5.133-14.727 3.075-19.768 4.536-25.402 7.354-7.047 3.521-10.955 7.378-13.98 13.784-2.135 4.531-2.934 7.927-2.928 12.438.011 8.066 2.732 14.371 8.867 20.539 4.215 4.242 8.068 6.466 13.384 7.717 5.972 1.409 18.134.482 26.458-2.019 11.777-3.535 20.088-12.105 23.494-24.216l1.003-3.561.13-95.464c.1-71.492.004-95.912-.382-97.246-1.11-3.826-3.965-6.009-7.857-6.004-1.169 0-5.229.578-9.024 1.285-16.778 3.126-115.682 23.285-117.37 23.924-2.612.987-5.202 3.338-6.43 5.832l-1.044 2.112-.22 74.771c-.21 70.75-.269 74.865-1.023 76.55-1.154 2.562-3.712 4.993-6.069 5.767-1.12.368-5.536 1.382-9.819 2.252-19.843 4.044-27.215 6.954-33.448 13.219-3.541 3.556-6.164 8.409-7.297 13.506-1.084 4.871-.721 12.159.82 16.588z"/></svg>