<?xml version="1.0" encoding="utf-8"?>
<!-- Generator: Adobe Illustrator 16.0.0, SVG Export Plug-In . SVG Version: 6.00 Build 0)  -->
<!DOCTYPE svg PUBLIC "-//W3C//DTD SVG 1.1//EN" "http://www.w3.org/Graphics/SVG/1.1/DTD/svg11.dtd">
<svg version="1.1" id="Layer_1" xmlns="http://www.w3.org/2000/svg" xmlns:xlink="http://www.w3.org/1999/xlink" x="0px" y="0px"
	 width="520px" height="520px" viewBox="0 0 520 520" enable-background="new 0 0 520 520" xml:space="preserve">
<g>
	<circle fill="#1E1E1E" cx="259.599" cy="259.4" r="256"/>
</g>
<g>
	<path fill="#FFFFFF" d="M142.8,367.703c3.223,9.246,10.373,15.795,19.995,18.316c9.084,2.377,26.087-0.266,34.784-5.412
		c3.636-2.15,8.311-6.668,10.743-10.381c0.96-1.469,2.411-4.428,3.217-6.578c2.833-7.525,2.775-5.92,2.78-76.742
		c0-46.11,0.145-64.834,0.505-66.524c0.615-2.862,2.528-4.961,5.167-5.673c2.376-0.64,97.607-19.909,100.285-20.292
		c2.52-0.359,4.906,0.541,6.051,2.289c0.773,1.178,0.819,3.51,0.937,45.951c0.134,48.846,0.188,47.702-2.402,50.786
		c-1.889,2.242-4.247,3.109-13.925,5.133c-14.727,3.074-19.768,4.535-25.402,7.354c-7.047,3.521-10.955,7.379-13.98,13.785
		c-2.135,4.531-2.934,7.926-2.928,12.438c0.011,8.066,2.732,14.371,8.867,20.539c4.215,4.242,8.068,6.467,13.384,7.717
		c5.972,1.41,18.134,0.482,26.458-2.018c11.777-3.535,20.088-12.105,23.494-24.217l1.003-3.561l0.13-95.463
		c0.1-71.492,0.004-95.912-0.382-97.246c-1.11-3.826-3.965-6.009-7.857-6.004c-1.169,0-5.229,0.578-9.024,1.285
		c-16.778,3.126-115.682,23.285-117.37,23.924c-2.612,0.987-5.202,3.338-6.43,5.832l-1.044,2.112l-0.22,74.771
		c-0.21,70.75-0.269,74.866-1.023,76.549c-1.154,2.562-3.712,4.994-6.069,5.768c-1.12,0.367-5.536,1.381-9.819,2.252
		c-19.843,4.043-27.215,6.953-33.448,13.219c-3.541,3.555-6.164,8.408-7.297,13.506C140.896,355.986,141.259,363.273,142.8,367.703z
		"/>
</g>
</svg>
