<svg xmlns="http://www.w3.org/2000/svg" width="512" height="512"><circle fill="#1E1E1E" cx="256" cy="256" r="256"/><g fill="#FFF"><path d="M382.822 128.84h-10.166c-39.844 0-81.383 14.408-122.922 55.947-6.782 6.781-12.723 12.719-19.505 20.35-34.757 0-60.189 9.324-84.773 33.908L128.5 256h76.296l-8.477 25.431 33.909 33.91 25.432-8.477v76.295l16.955-16.953c24.586-24.586 33.91-50.018 33.91-84.775 7.629-5.934 13.566-11.873 20.35-19.504 44.929-44.928 60.185-91.548 55.947-133.087zm-76.297 93.252c-9.365 0-16.955-7.592-16.955-16.955 0-9.365 7.59-16.955 16.955-16.955 9.363 0 16.955 7.59 16.955 16.955 0 9.363-7.592 16.955-16.955 16.955z"/><path d="M185.921 296.467c-1.713 1.355-3.345 2.766-4.769 4.189-13.563 13.562-19.508 31.359-18.66 48.314 16.955 1.695 34.768-4.236 48.331-17.799 1.552-1.553 3.062-3.385 4.537-5.266l-6.922-6.922c-7.969 4.848-14.936 5.174-20.514 4.553-.611-5.477.158-12.285 5-20.066l-7.003-7.003z"/></g></svg>