<?xml version="1.0" encoding="utf-8"?>
<!-- Generator: Adobe Illustrator 16.0.0, SVG Export Plug-In . SVG Version: 6.00 Build 0)  -->
<!DOCTYPE svg PUBLIC "-//W3C//DTD SVG 1.1//EN" "http://www.w3.org/Graphics/SVG/1.1/DTD/svg11.dtd">
<svg version="1.1" id="Layer_1" xmlns="http://www.w3.org/2000/svg" xmlns:xlink="http://www.w3.org/1999/xlink" x="0px" y="0px"
	 width="520px" height="520px" viewBox="0 0 520 520" enable-background="new 0 0 520 520" xml:space="preserve">
<g>
	<g>
		<circle fill="#1E1E1E" cx="260.401" cy="260.6" r="256.001"/>
	</g>
	<g>
		<path fill="#FFFFFF" d="M387.222,133.438h-10.166c-39.844,0-81.383,14.408-122.922,55.947
			c-6.782,6.781-12.723,12.719-19.505,20.35c-34.757,0-60.189,9.324-84.773,33.908l-16.955,16.955h76.296l-8.477,25.432
			l33.909,33.91l25.432-8.477v76.295l16.955-16.953c24.585-24.586,33.909-50.018,33.909-84.775
			c7.63-5.934,13.567-11.873,20.35-19.504C376.205,221.597,391.46,174.978,387.222,133.438z M310.925,226.69
			c-9.364,0-16.954-7.592-16.954-16.955c0-9.365,7.59-16.955,16.954-16.955c9.363,0,16.955,7.59,16.955,16.955
			C327.88,219.099,320.289,226.69,310.925,226.69z"/>
		<path fill="#FFFFFF" d="M190.322,301.065c-1.713,1.355-3.345,2.766-4.769,4.189c-13.563,13.562-19.508,31.359-18.66,48.314
			c16.955,1.695,34.768-4.236,48.331-17.799c1.552-1.553,3.062-3.385,4.537-5.266l-6.922-6.922
			c-7.969,4.848-14.936,5.174-20.514,4.553c-0.611-5.477,0.158-12.285,5-20.066L190.322,301.065z"/>
	</g>
</g>
</svg>
