<?xml version="1.0" encoding="utf-8"?>
<!-- Generator: Adobe Illustrator 16.0.0, SVG Export Plug-In . SVG Version: 6.00 Build 0)  -->
<!DOCTYPE svg PUBLIC "-//W3C//DTD SVG 1.1//EN" "http://www.w3.org/Graphics/SVG/1.1/DTD/svg11.dtd">
<svg version="1.1" id="Layer_1" xmlns="http://www.w3.org/2000/svg" xmlns:xlink="http://www.w3.org/1999/xlink" x="0px" y="0px"
	 width="520px" height="520px" viewBox="0 0 520 520" enable-background="new 0 0 520 520" xml:space="preserve">
<g>
	<g>
		<rect x="297" y="361.301" fill="#FFFFFF" width="108" height="20"/>
	</g>
	<g>
		<rect x="297" y="320.701" fill="#FFFFFF" width="108" height="20"/>
	</g>
</g>
<g>
	<rect x="297" y="159" fill="#FFFFFF" width="108" height="20"/>
</g>
<g>
	<circle fill="#1E1E1E" cx="260" cy="260.588" r="256"/>
</g>
<g id="g963">
	<path id="path922" inkscape:connector-curvature="0" fill="#FFFFFF" d="M260,146.417c-70.417,0-127.498,47.545-127.5,106.198
		c0.064,37.263,23.57,71.774,61.94,90.933c-5.022,11.25-12.56,21.797-22.293,31.208c18.876-3.311,36.596-10.274,51.784-20.342
		c11.708,2.895,23.854,4.379,36.069,4.397c70.415,0,127.497-47.547,127.5-106.197C387.496,193.963,330.414,146.417,260,146.417z"/>
</g>
<g>
	<linearGradient id="SVGID_1_" gradientUnits="userSpaceOnUse" x1="199.998" y1="243.2646" x2="220.001" y2="277.9107">
		<stop  offset="0" style="stop-color:#1E1E1E"/>
		<stop  offset="1" style="stop-color:#3C3C3C"/>
	</linearGradient>
	<circle fill="url(#SVGID_1_)" cx="210" cy="260.588" r="20"/>
</g>
<g>
	<linearGradient id="SVGID_2_" gradientUnits="userSpaceOnUse" x1="249.998" y1="243.2651" x2="270.001" y2="277.9112">
		<stop  offset="0" style="stop-color:#1E1E1E"/>
		<stop  offset="1" style="stop-color:#3C3C3C"/>
	</linearGradient>
	<circle fill="url(#SVGID_2_)" cx="260" cy="260.588" r="20"/>
</g>
<g>
	<linearGradient id="SVGID_3_" gradientUnits="userSpaceOnUse" x1="299.998" y1="243.2646" x2="320.001" y2="277.9107">
		<stop  offset="0" style="stop-color:#1E1E1E"/>
		<stop  offset="1" style="stop-color:#3C3C3C"/>
	</linearGradient>
	<circle fill="url(#SVGID_3_)" cx="310" cy="260.588" r="20"/>
</g>
</svg>
