<?xml version="1.0" encoding="utf-8"?>
<!-- Generator: Adobe Illustrator 16.0.0, SVG Export Plug-In . SVG Version: 6.00 Build 0)  -->
<!DOCTYPE svg PUBLIC "-//W3C//DTD SVG 1.1//EN" "http://www.w3.org/Graphics/SVG/1.1/DTD/svg11.dtd">
<svg version="1.1" id="Layer_1" xmlns="http://www.w3.org/2000/svg" xmlns:xlink="http://www.w3.org/1999/xlink" x="0px" y="0px"
	 width="520px" height="520px" viewBox="0 0 520 520" enable-background="new 0 0 520 520" xml:space="preserve">
<g>
	<g>
		<circle fill="#1E1E1E" cx="259.601" cy="259.2" r="256.001"/>
	</g>
	<g>
		<path fill-rule="evenodd" clip-rule="evenodd" fill="#FFFFFF" d="M171.552,131.762c8.018,0,16.035,0.065,24.051-0.023
			c5.148-0.057,9.348,1.614,13.057,5.331c57.62,57.762,115.288,115.474,173.016,173.127c3.625,3.621,5.381,7.655,5.361,12.702
			c-0.061,16.361-0.031,32.722-0.049,49.082c-0.004,4.459-0.801,8.601-4.477,11.693c-2.842,2.39-6.211,2.96-9.715,2.969
			c-16.688,0.037-33.371,0.006-50.057,0.02c-4.676,0.004-8.48-1.637-11.855-5.015c-57.811-57.875-115.67-115.7-173.583-173.477
			c-3.547-3.539-5.197-7.542-5.189-12.45c0.025-16.36-0.031-32.721-0.006-49.082c0.014-9.918,4.889-14.821,14.742-14.869
			C155.082,131.73,163.316,131.762,171.552,131.762z"/>
		<path fill-rule="evenodd" clip-rule="evenodd" fill="#FFFFFF" d="M333.385,131.764c13-0.002,26-0.014,39,0.005
			c4.221,0.005,8.189,0.777,11.258,4.04c2.619,2.783,3.438,6.239,3.441,9.874c0.031,26.541,0.02,53.083-0.037,79.625
			c-0.014,5.762-2.188,10.466-7.854,12.631c-5.422,2.073-10.064,0.461-14.141-3.625c-26.777-26.843-53.594-53.65-80.455-80.409
			c-4.191-4.173-5.799-8.911-3.613-14.428c2.232-5.637,7.01-7.675,12.75-7.696C306.951,131.732,320.168,131.766,333.385,131.764z"/>
		<path fill-rule="evenodd" clip-rule="evenodd" fill="#FFFFFF" d="M132.173,332.731c0-12.781-0.037-25.562,0.035-38.344
			c0.012-2.14,0.166-4.381,0.811-6.399c2.479-7.744,11.988-10.735,18.574-5.953c0.959,0.694,1.822,1.533,2.662,2.374
			c26.803,26.81,53.639,53.587,80.311,80.524c2.066,2.088,3.844,5.188,4.264,8.037c1.061,7.211-3.518,12.482-10.814,13.441
			c-1.389,0.182-2.803,0.239-4.207,0.24c-25.344,0.014-50.689,0.018-76.035-0.007c-1.832-0.003-3.682-0.143-5.492-0.417
			c-4.912-0.743-8.898-4.736-9.633-9.663c-0.283-1.919-0.414-3.877-0.418-5.816c-0.037-12.672-0.02-25.345-0.02-38.018
			C132.199,332.731,132.185,332.731,132.173,332.731z"/>
	</g>
</g>
</svg>
