<svg xmlns="http://www.w3.org/2000/svg" width="512" height="512"><circle fill="{{bg}}" cx="256" cy="256" r="256"/><g fill-rule="evenodd" clip-rule="evenodd" fill="{{fg}}"><path d="M167.952 128.562c8.018 0 16.035.065 24.051-.023 5.148-.057 9.348 1.614 13.057 5.331a129543.993 129543.993 0 0 0 173.016 173.126c3.625 3.621 5.381 7.656 5.361 12.703-.061 16.361-.031 32.721-.049 49.082-.004 4.459-.801 8.6-4.477 11.693-2.842 2.389-6.211 2.959-9.715 2.969-16.688.037-33.371.006-50.057.02-4.676.004-8.48-1.637-11.855-5.016a141952.549 141952.549 0 0 0-173.583-173.476c-3.547-3.539-5.197-7.542-5.189-12.45.025-16.36-.031-32.721-.006-49.082.014-9.918 4.889-14.821 14.742-14.869 8.233-.039 16.467-.008 24.704-.008zM329.784 128.564c13-.002 26-.014 39 .005 4.221.005 8.189.777 11.258 4.04 2.619 2.783 3.438 6.239 3.441 9.874.031 26.541.02 53.083-.037 79.625-.014 5.762-2.188 10.466-7.854 12.631-5.422 2.073-10.064.461-14.141-3.625a36305.508 36305.508 0 0 0-80.455-80.409c-4.191-4.173-5.799-8.911-3.613-14.428 2.232-5.637 7.01-7.675 12.75-7.696 13.218-.048 26.434-.015 39.651-.017zM128.573 329.531c0-12.781-.037-25.562.035-38.344.012-2.139.166-4.381.811-6.398 2.479-7.744 11.988-10.736 18.574-5.953.959.693 1.822 1.533 2.662 2.373 26.803 26.811 53.639 53.588 80.311 80.525 2.066 2.088 3.844 5.188 4.264 8.037 1.061 7.211-3.518 12.482-10.814 13.441-1.389.182-2.803.238-4.207.24-25.344.014-50.689.018-76.035-.008a37.242 37.242 0 0 1-5.492-.416c-4.912-.744-8.898-4.736-9.633-9.664a40.56 40.56 0 0 1-.418-5.816c-.037-12.672-.02-25.344-.02-38.018a.508.508 0 0 1-.038.001z"/></g></svg>
