<svg xmlns="http://www.w3.org/2000/svg" width="512" height="512"><circle fill="#1E1E1E" cx="256" cy="256" r="256"/><path fill="#FFF" d="M175.874 173.207c7.933 6.443 10.906 5.951 25.801 4.958l140.408-8.431c2.979 0 .501-2.971-.491-3.465l-23.319-16.857c-4.469-3.469-10.421-7.441-21.83-6.448l-135.958 9.917c-4.958.491-5.948 2.97-3.975 4.958l19.364 15.368zm8.43 32.722v147.733c0 7.94 3.968 10.91 12.896 10.419l154.311-8.929c8.935-.491 9.929-5.952 9.929-12.401V196.009c0-6.439-2.478-9.912-7.946-9.417l-161.254 9.417c-5.951.499-7.936 3.476-7.936 9.92zm152.333 7.925c.988 4.466 0 8.929-4.475 9.432l-7.436 1.48v109.067c-6.455 3.468-12.408 5.453-17.369 5.453-7.94 0-9.93-2.481-15.878-9.914l-48.633-76.347v73.867l15.39 3.474s0 8.92-12.417 8.92l-34.227 1.984c-.996-1.984 0-6.938 3.471-7.932l8.933-2.475v-97.667l-12.402-.994c-.994-4.467 1.482-10.906 8.435-11.407l36.72-2.475 50.609 77.342v-68.418l-12.903-1.481c-.989-5.46 2.974-9.425 7.937-9.917l34.245-1.992zm-187.569-74.359l141.419-10.414c17.366-1.489 21.835-.491 32.75 7.438l45.142 31.728c7.449 5.456 9.932 6.941 9.932 12.89v174.017c0 10.906-3.974 17.356-17.863 18.343l-164.227 9.918c-10.427.496-15.39-.989-20.851-7.935l-33.244-43.132c-5.956-7.938-8.435-13.878-8.435-20.827v-154.68c0-8.918 3.975-16.359 15.377-17.346z"/></svg>