<svg xmlns="http://www.w3.org/2000/svg" width="512" height="512"><circle fill="#1E1E1E" cx="256" cy="256" r="256"/><path fill="#FFF" d="M174.969 184.675c4.927-23.801 21.063-45.197 42.776-56.175-3.775 3.832-8.356 6.786-11.829 10.936-14.292 15.431-20.762 37.749-16.813 58.423 4.985 31.351 34.42 56.81 66.305 56.463 24.752 1.11 49.015-13.139 61.09-34.606 25.934.878 51.147 14.265 65.856 35.73 7.579 11.225 13.502 24.364 13.904 38.052-4.784-18.153-16.872-34.29-33.34-43.396-15.934-8.963-35.486-11.253-53.006-5.95-21.871 6.282-39.939 24.19-46.394 46.018-5.303 17.534-3.026 36.869 5.287 53.094-11.568 20.025-32.46 34.361-55.152 38.641-17.434 3.661-35.774.836-51.911-6.483 14.537 4.236 30.313 4.972 44.736-.158 19.378-6.426 35.399-21.985 42.445-41.163 7.823-20.892 4.841-45.602-8.313-63.711-9.841-14.121-25.286-24.104-42.114-27.605-5.316-.951-10.719-1.383-16.107-1.873-8.544-17.264-11.7-37.334-7.42-56.237z"/></svg>