<?xml version="1.0" encoding="utf-8"?>
<!-- Generator: Adobe Illustrator 16.0.0, SVG Export Plug-In . SVG Version: 6.00 Build 0)  -->
<!DOCTYPE svg PUBLIC "-//W3C//DTD SVG 1.1//EN" "http://www.w3.org/Graphics/SVG/1.1/DTD/svg11.dtd">
<svg version="1.1" id="Layer_1" xmlns="http://www.w3.org/2000/svg" xmlns:xlink="http://www.w3.org/1999/xlink" x="0px" y="0px"
	 width="520px" height="520px" viewBox="0 0 520 520" enable-background="new 0 0 520 520" xml:space="preserve">
<g>
	<circle fill="#1E1E1E" cx="259.799" cy="259" r="255.999"/>
</g>
<g id="path3030" sodipodi:nodetypes="cssssssssssssssscssssssssssssssscsssssssssssssssccacssssssssssssssssssssssscssssssssssssssssssssssscc" inkscape:connector-curvature="0" inkscape:original-d="m 618.73436,682.96881 c 0,0 0.5176,0.77639 1.43551,2.15125 0.91792,1.37482 2.23615,3.34814 3.83745,5.742 1.60129,2.39385 3.48564,5.20825 5.53578,8.26528 2.05015,3.05704 4.26609,6.35667 6.53055,9.72098 2.26445,3.36435 4.57744,6.79338 6.82168,10.10922 2.24424,3.31581 4.41974,6.5184 6.40923,9.42984 1.98949,2.91143 3.79297,5.53176 5.29317,7.68298 1.50021,2.15126 2.69713,3.83343 3.47353,4.8686 0.77638,1.03517 1.14839,2.13503 1.20501,3.2673 0.0566,1.13221 -0.20216,2.2968 -0.68743,3.46136 -0.48524,1.16458 -1.19693,2.32918 -2.0461,3.4614 -0.84917,1.13221 -1.83583,2.23209 -2.87101,3.2673 -1.03518,1.03516 -2.11888,2.00565 -3.16216,2.87906 -1.04327,0.87344 -2.0461,1.64984 -2.91953,2.2968 -0.87343,0.64702 -1.61747,1.1646 -2.14315,1.52046 -0.52568,0.35578 -0.833,0.54992 -0.833,0.54992 0,0 -0.14559,0.19409 -0.38618,0.55399 -0.24058,0.35971 -0.57623,0.88554 -0.95633,1.54872 -0.3801,0.66318 -0.80469,1.4638 -1.22321,2.37365 -0.41852,0.90981 -0.83098,1.92881 -1.18682,3.02869 -0.35586,1.09988 -0.65507,2.28064 -0.84716,3.51398 -0.19207,1.23329 -0.27698,2.51921 -0.20421,3.82935 0.0728,1.31015 0.30329,2.64457 0.74201,3.97491 0.43874,1.33039 1.08573,2.6567 1.99151,3.95068 0.90578,1.29398 2.62031,3.39669 4.92723,6.08572 2.30691,2.68904 5.20623,5.96445 8.48161,9.60374 3.27539,3.63932 6.92682,7.64254 10.73799,11.78732 3.81117,4.14477 7.78205,8.43107 11.69633,12.63649 3.91428,4.20542 7.77195,8.32997 11.35667,12.15124 3.58471,3.82127 6.89648,7.33933 9.71897,10.33166 2.82248,2.99232 5.15568,5.45893 6.78326,7.17749 1.62758,1.71857 2.54953,2.68909 2.54953,2.68909 0,0 0.24262,0.21023 0.68137,0.56408 0.43873,0.35404 1.07359,0.85117 1.85807,1.42538 0.78447,0.57422 1.71856,1.22526 2.75576,1.88642 1.03721,0.6611 2.17752,1.33232 3.37446,1.94701 1.19692,0.61464 2.45046,1.17262 3.71411,1.60729 1.26365,0.43469 2.53741,0.74615 3.77477,0.86747 1.23736,0.12132 2.43834,0.0526 3.55641,-0.27301 1.11808,-0.32552 2.15326,-0.90774 3.05905,-1.81359 0.90577,-0.90572 1.90862,-1.86007 2.99839,-2.82848 1.08977,-0.96854 2.26648,-1.95109 3.52003,-2.91352 1.25353,-0.96243 2.5839,-1.90456 3.98099,-2.79213 1.3971,-0.88758 2.8609,-1.7206 4.38133,-2.46464 1.52042,-0.74404 3.09745,-1.39915 4.72098,-1.93085 1.62355,-0.53175 3.29357,-0.94015 5,-1.19088 1.70644,-0.25059 3.44927,-0.34353 5.21837,-0.24448 1.7691,0.099 3.5645,0.39039 5.37607,0.90774 l 52.58412,38.71888 c 6.6965,11.96082 4.67314,16.37621 1.24546,23.39203 -6.0929,12.47107 -21.35769,18.18928 -34.16098,23.80923 -0.64698,0.25888 -1.61747,0.40439 -2.85281,0.44881 -1.23535,0.0447 -2.73554,-0.0131 -4.44198,-0.15773 -1.70643,-0.14551 -3.61909,-0.38033 -5.67934,-0.69152 -2.06025,-0.31146 -4.26811,-0.69949 -6.56491,-1.15237 -2.29681,-0.45296 -4.68258,-0.97052 -7.09868,-1.54066 -2.41609,-0.57014 -4.86252,-1.19292 -7.28064,-1.85605 -2.41811,-0.66314 -4.80793,-1.36676 -7.1108,-2.0987 -2.30287,-0.73188 -4.51881,-1.49209 -6.58917,-2.26846 -2.07037,-0.77644 -4.44805,-1.86013 -7.06633,-3.20664 -2.61828,-1.34657 -5.47716,-2.95591 -8.50992,-4.78371 -3.03276,-1.82773 -6.23939,-3.87378 -9.55319,-6.0938 -3.31379,-2.21996 -6.73474,-4.61382 -10.19613,-7.13708 -3.46138,-2.52327 -6.9632,-5.17594 -10.43874,-7.91345 -3.47554,-2.73758 -6.9248,-5.56007 -10.28105,-8.42299 -3.35625,-2.86292 -6.61949,-5.76631 -9.72302,-8.66561 -3.10352,-2.89939 -6.04732,-5.79457 -8.76467,-8.64138 -2.71735,-2.84675 -5.4994,-5.74206 -8.28752,-8.62923 -2.78811,-2.88717 -5.5823,-5.76625 -8.32391,-8.58067 -2.74162,-2.8144 -5.43066,-5.56409 -8.0085,-8.19243 -2.57785,-2.62842 -5.04449,-5.13555 -7.3413,-7.46474 -2.2968,-2.32911 -4.42378,-4.4804 -6.32228,-6.39705 -1.8985,-1.91671 -3.56854,-3.5989 -4.95147,-4.98992 -1.38295,-1.39104 -2.47878,-2.49091 -3.22888,-3.24303 -0.7501,-0.75212 -1.15447,-1.15649 -1.15447,-1.15649 0,0 -0.50141,-0.53375 -1.39103,-1.51029 -0.88961,-0.97659 -2.16741,-2.39592 -3.72017,-4.16704 -1.55277,-1.77111 -3.38052,-3.89407 -5.37001,-6.2778 -1.98949,-2.38374 -4.14072,-5.0283 -6.34049,-7.8427 -2.19975,-2.81438 -4.44804,-5.79864 -6.63163,-8.86172 -2.18358,-3.06308 -4.30246,-6.20504 -6.24343,-9.33484 -1.94096,-3.12977 -3.70401,-6.24745 -5.17591,-9.26203 -1.4719,-3.01458 -2.65265,-5.92602 -3.42903,-8.64336 -0.77639,-2.71734 -1.56895,-5.43468 -2.34736,-8.14799 -0.77841,-2.71331 -1.54266,-5.42259 -2.26243,-8.12376 -0.71978,-2.70117 -1.39507,-5.39428 -1.99556,-8.07521 -0.60049,-2.68097 -1.12616,-5.34981 -1.54671,-8.00244 -0.42053,-2.65267 -0.73594,-5.28912 -0.91589,-7.90538 -0.17995,-2.61626 -0.22441,-5.21233 -0.10309,-7.78412 0.12132,-2.57174 0.4084,-5.11925 0.89163,-7.63847 0.48322,-2.51921 1.16255,-5.01011 2.06833,-7.46868 0.90579,-2.45858 2.31299,-4.62596 4.0821,-6.53663 1.76911,-1.91062 3.90013,-3.56449 6.25354,-4.99591 2.35342,-1.43147 4.92924,-2.64054 7.58796,-3.66155 2.65871,-1.02105 5.40034,-1.85406 8.08533,-2.53336 2.685,-0.67935 5.31339,-1.20503 7.74566,-1.61142 2.43228,-0.4066 4.66842,-0.6935 6.56896,-0.89566 1.90052,-0.20242 3.46543,-0.31941 4.5552,-0.386 1.08976,-0.0666 1.70441,-0.0829 1.70441,-0.0829 z" inkscape:path-effect="#path-effect3032">
	<path fill="#FFFFFF" d="M182.229,131.654c0.482,0.723,0.963,1.443,1.445,2.165c1.285,1.927,2.574,3.854,3.861,5.778
		c1.855,2.773,3.711,5.547,5.57,8.318c2.189,3.262,4.381,6.521,6.574,9.783c2.279,3.395,4.561,6.791,6.863,10.174
		c2.152,3.161,4.324,6.31,6.451,9.489c1.738,2.603,3.449,5.227,5.326,7.731c1.203,1.607,2.479,3.169,3.496,4.9
		c0.596,1.015,1.109,2.113,1.213,3.287c0.104,1.192-0.221,2.385-0.691,3.484c-0.533,1.243-1.252,2.399-2.061,3.482
		c-0.873,1.171-1.855,2.257-2.889,3.289c-1.016,1.014-2.082,1.976-3.182,2.896c-0.957,0.801-1.938,1.57-2.939,2.312
		c-0.707,0.526-1.426,1.037-2.156,1.53c-0.277,0.188-0.557,0.372-0.84,0.554c-0.131,0.184-0.26,0.369-0.387,0.557
		c-0.342,0.508-0.66,1.029-0.963,1.56c-0.443,0.777-0.857,1.575-1.23,2.389c-0.457,0.991-0.859,2.009-1.195,3.048
		c-0.373,1.155-0.666,2.337-0.854,3.537c-0.197,1.272-0.273,2.566-0.205,3.854c0.074,1.357,0.311,2.711,0.748,3.999
		c0.477,1.411,1.188,2.732,2.004,3.977c1.441,2.199,3.211,4.16,4.959,6.125c2.857,3.211,5.676,6.456,8.535,9.665
		c3.559,3.993,7.18,7.93,10.807,11.862c3.916,4.246,7.836,8.486,11.771,12.717c3.799,4.085,7.611,8.159,11.428,12.229
		c3.256,3.47,6.516,6.936,9.781,10.396c2.273,2.41,4.549,4.819,6.826,7.224c0.855,0.902,1.711,1.805,2.566,2.707
		c0.225,0.191,0.455,0.38,0.686,0.567c0.609,0.494,1.234,0.971,1.869,1.435c0.904,0.66,1.828,1.296,2.773,1.897
		c1.104,0.704,2.234,1.362,3.396,1.96c1.209,0.621,2.451,1.177,3.738,1.617c1.23,0.422,2.504,0.737,3.797,0.873
		c1.199,0.126,2.432,0.093,3.58-0.274c1.145-0.366,2.16-1.053,3.078-1.825c1.059-0.89,2.006-1.903,3.018-2.847
		c1.121-1.046,2.32-2.006,3.543-2.932c1.301-0.984,2.631-1.933,4.006-2.81c1.424-0.907,2.895-1.74,4.41-2.48
		c1.537-0.752,3.123-1.411,4.75-1.943c1.641-0.538,3.324-0.948,5.033-1.199c1.736-0.254,3.498-0.344,5.25-0.245
		c1.83,0.102,3.65,0.409,5.412,0.913l52.918,38.966c3.736,7.188,4.207,15.997,1.254,23.541c-2.656,6.786-7.889,12.373-14.043,16.277
		c-6.152,3.903-13.197,6.221-20.336,7.684c-0.949,0.194-1.904,0.374-2.871,0.451c-1.488,0.119-2.984-0.01-4.471-0.158
		c-1.91-0.191-3.816-0.417-5.715-0.696c-2.213-0.326-4.414-0.724-6.607-1.159c-2.391-0.475-4.771-0.993-7.145-1.551
		c-2.451-0.578-4.895-1.199-7.326-1.868c-2.398-0.661-4.781-1.368-7.156-2.112c-2.23-0.699-4.453-1.431-6.631-2.283
		c-2.426-0.947-4.791-2.042-7.111-3.227c-2.916-1.49-5.76-3.12-8.564-4.814c-3.254-1.966-6.455-4.018-9.613-6.133
		c-3.471-2.323-6.887-4.722-10.262-7.182c-3.551-2.589-7.053-5.244-10.504-7.964c-3.502-2.76-6.953-5.586-10.348-8.478
		c-3.326-2.832-6.6-5.729-9.785-8.72c-3.01-2.828-5.938-5.741-8.818-8.697c-2.805-2.873-5.561-5.789-8.342-8.684
		c-2.777-2.894-5.576-5.765-8.377-8.636c-2.684-2.751-5.369-5.5-8.059-8.244c-2.459-2.508-4.924-5.012-7.389-7.513
		c-2.119-2.148-4.238-4.296-6.363-6.438c-1.66-1.675-3.324-3.346-4.982-5.021c-1.08-1.091-2.158-2.184-3.25-3.264
		c-0.389-0.386-0.779-0.77-1.162-1.164c-0.477-0.496-0.938-1.009-1.398-1.521c-1.254-1.393-2.506-2.786-3.744-4.193
		c-1.832-2.08-3.631-4.188-5.404-6.317c-2.166-2.6-4.297-5.229-6.381-7.893c-2.287-2.925-4.521-5.893-6.674-8.919
		c-2.186-3.069-4.289-6.197-6.283-9.394c-1.887-3.021-3.676-6.106-5.209-9.321c-1.344-2.816-2.488-5.729-3.451-8.699
		c-0.877-2.705-1.604-5.457-2.361-8.199c-0.756-2.726-1.543-5.443-2.277-8.176c-0.725-2.694-1.4-5.402-2.008-8.126
		c-0.598-2.669-1.129-5.353-1.557-8.053c-0.42-2.638-0.738-5.293-0.922-7.957c-0.182-2.606-0.234-5.224-0.104-7.833
		c0.129-2.578,0.438-5.146,0.896-7.688c0.463-2.562,1.084-5.11,2.082-7.516c0.994-2.4,2.367-4.649,4.107-6.579
		c1.805-2,3.986-3.635,6.293-5.027c2.424-1.462,4.996-2.669,7.637-3.685c2.654-1.021,5.381-1.853,8.137-2.55
		c2.574-0.65,5.178-1.185,7.795-1.621c2.193-0.367,4.398-0.665,6.611-0.901c1.525-0.164,3.053-0.298,4.584-0.39
		C181.085,131.704,181.657,131.677,182.229,131.654L182.229,131.654"/>
</g>
</svg>
