<svg xmlns="http://www.w3.org/2000/svg" width="512" height="512"><circle fill="#1E1E1E" cx="256" cy="256" r="256"/><path fill="#FFF" d="M178.43 128.654l1.445 2.165a7529.588 7529.588 0 0 0 9.431 14.096c2.189 3.262 4.381 6.521 6.574 9.783a1947.54 1947.54 0 0 0 6.863 10.174c2.152 3.161 4.324 6.31 6.451 9.489 1.738 2.603 3.449 5.227 5.326 7.731 1.203 1.607 2.479 3.169 3.496 4.9.596 1.015 1.109 2.113 1.213 3.287.104 1.192-.221 2.385-.691 3.484-.533 1.243-1.252 2.399-2.061 3.482-.873 1.171-1.855 2.257-2.889 3.289a48.974 48.974 0 0 1-3.182 2.896 63.364 63.364 0 0 1-2.939 2.312 57.928 57.928 0 0 1-2.156 1.53c-.277.188-.557.372-.84.554a24.757 24.757 0 0 0-1.35 2.117 30.414 30.414 0 0 0-1.23 2.389 27.471 27.471 0 0 0-1.195 3.048 23.215 23.215 0 0 0-.854 3.537 18.752 18.752 0 0 0-.205 3.854 15 15 0 0 0 .748 3.999c.477 1.411 1.188 2.732 2.004 3.977 1.441 2.199 3.211 4.16 4.959 6.125 2.857 3.211 5.676 6.456 8.535 9.665 3.559 3.993 7.18 7.93 10.807 11.863 3.916 4.246 7.836 8.486 11.771 12.717 3.799 4.084 7.611 8.158 11.428 12.229a5338.381 5338.381 0 0 0 16.607 17.619l2.566 2.707a45.771 45.771 0 0 0 2.555 2.002c.904.66 1.828 1.297 2.773 1.898a42.742 42.742 0 0 0 3.396 1.959c1.209.621 2.451 1.178 3.738 1.617 1.23.422 2.504.738 3.797.873 1.199.127 2.432.094 3.58-.273 1.145-.367 2.16-1.053 3.078-1.826 1.059-.889 2.006-1.902 3.018-2.846 1.121-1.047 2.32-2.006 3.543-2.932a61.39 61.39 0 0 1 4.006-2.811 45.112 45.112 0 0 1 4.41-2.48 37.123 37.123 0 0 1 4.75-1.943 30.509 30.509 0 0 1 5.033-1.199 26.05 26.05 0 0 1 5.25-.244c1.83.102 3.65.408 5.412.912l52.918 38.967c3.736 7.188 4.207 15.996 1.254 23.541-2.656 6.785-7.889 12.373-14.043 16.277-6.152 3.902-13.197 6.221-20.336 7.684-.949.193-1.904.373-2.871.451-1.488.119-2.984-.01-4.471-.158-1.91-.191-3.816-.418-5.715-.697a135.36 135.36 0 0 1-6.607-1.158 212.804 212.804 0 0 1-7.145-1.551 202.534 202.534 0 0 1-14.482-3.98c-2.23-.699-4.453-1.432-6.631-2.283-2.426-.947-4.791-2.043-7.111-3.227-2.916-1.49-5.76-3.121-8.564-4.814a245.726 245.726 0 0 1-9.613-6.133 315.74 315.74 0 0 1-10.262-7.182 352.67 352.67 0 0 1-20.852-16.442 268.574 268.574 0 0 1-9.785-8.721 279.242 279.242 0 0 1-8.818-8.697c-2.805-2.873-5.561-5.789-8.342-8.684a1482.457 1482.457 0 0 0-8.377-8.635c-2.684-2.752-5.369-5.5-8.059-8.244a4362.906 4362.906 0 0 0-7.389-7.514 3509.54 3509.54 0 0 0-6.363-6.438c-1.66-1.674-3.324-3.346-4.982-5.021-1.08-1.09-2.158-2.184-3.25-3.264-.389-.385-.779-.77-1.162-1.164a60.903 60.903 0 0 1-1.398-1.52 511.48 511.48 0 0 1-3.744-4.193 300.461 300.461 0 0 1-5.404-6.318 330.188 330.188 0 0 1-6.381-7.893 246.538 246.538 0 0 1-6.674-8.919 184.544 184.544 0 0 1-6.283-9.394c-1.887-3.021-3.676-6.106-5.209-9.321a71.12 71.12 0 0 1-3.451-8.699c-.877-2.705-1.604-5.457-2.361-8.199-.756-2.726-1.543-5.443-2.277-8.176-.725-2.694-1.4-5.402-2.008-8.126a129.812 129.812 0 0 1-1.557-8.053 90.128 90.128 0 0 1-.922-7.957 65.619 65.619 0 0 1-.104-7.833 60.4 60.4 0 0 1 .896-7.688c.463-2.562 1.084-5.11 2.082-7.516.994-2.4 2.367-4.649 4.107-6.579 1.805-2 3.986-3.635 6.293-5.027 2.424-1.462 4.996-2.669 7.637-3.685 2.654-1.021 5.381-1.853 8.137-2.55a96.846 96.846 0 0 1 7.795-1.621c2.193-.367 4.398-.665 6.611-.901a97.662 97.662 0 0 1 4.584-.39c.574-.03 1.146-.057 1.718-.08"/></svg>