<?xml version="1.0" encoding="utf-8"?>
<!-- Generator: Adobe Illustrator 16.0.0, SVG Export Plug-In . SVG Version: 6.00 Build 0)  -->
<!DOCTYPE svg PUBLIC "-//W3C//DTD SVG 1.1//EN" "http://www.w3.org/Graphics/SVG/1.1/DTD/svg11.dtd">
<svg version="1.1" id="Layer_1" xmlns="http://www.w3.org/2000/svg" xmlns:xlink="http://www.w3.org/1999/xlink" x="0px" y="0px"
	 width="520px" height="520px" viewBox="0 0 520 520" enable-background="new 0 0 520 520" xml:space="preserve">
<g>
	<circle fill="#1E1E1E" cx="260" cy="260" r="256"/>
</g>
<g>
	<path fill="#FFFFFF" d="M274.285,216.646c0,33.916-27.286,61.202-62.476,61.202h-26.776v56.102h-40.801V155.445h67.577
		C247,155.445,274.285,182.731,274.285,216.646z M233.484,216.646c0-13.005-9.18-22.95-21.675-22.95h-26.776v45.901h26.776
		C224.304,239.597,233.484,229.652,233.484,216.646z"/>
	<path fill="#FFFFFF" d="M384.699,295.697c0,29.326-25.5,41.822-53.041,41.822c-25.5,0-44.881-9.691-54.826-30.346l33.15-18.871
		c3.314,9.689,10.455,15.045,21.676,15.045c9.18,0,13.77-2.805,13.77-7.904c0-14.025-62.73-6.631-62.73-50.747
		c0-27.795,23.461-41.82,49.98-41.82c20.656,0,39.016,9.18,49.727,27.285l-32.641,17.596c-3.57-6.631-8.67-11.221-17.086-11.221
		c-6.629,0-10.709,2.551-10.709,7.141C321.969,258.212,384.699,248.522,384.699,295.697z"/>
</g>
</svg>
