<svg xmlns="http://www.w3.org/2000/svg" width="512" height="512"><circle fill="#1e1e1e" cx="256" cy="256" r="256"/><g fill="#fff"><path opacity=".6" d="M295.842 211.508c0 20.171-16.35 36.523-36.523 36.523h-6.641c-20.17 0-36.523-16.353-36.523-36.523v-46.484c0-20.172 16.354-36.523 36.523-36.523h6.641c20.174 0 36.523 16.352 36.523 36.523v46.484z"/><path opacity=".6" d="M253.27 196.924c14.264 14.264 14.264 37.388 0 51.652l-4.695 4.694c-14.264 14.264-37.387 14.264-51.65 0l-32.869-32.869c-14.264-14.263-14.264-37.388 0-51.651l4.695-4.696c14.264-14.263 37.387-14.263 51.65 0l32.869 32.87z"/><path opacity=".6" d="M315.076 253.271c-14.264 14.264-37.389 14.264-51.654 0l-4.695-4.694c-14.262-14.265-14.262-37.389 0-51.652l32.871-32.87c14.262-14.263 37.387-14.263 51.652 0l4.695 4.696c14.264 14.264 14.264 37.389 0 51.651l-32.869 32.869zm-19.234 93.705c0 20.172-16.35 36.523-36.523 36.523h-6.641c-20.17 0-36.523-16.352-36.523-36.523v-46.484c0-20.17 16.354-36.523 36.523-36.523h6.641c20.174 0 36.523 16.354 36.523 36.523v46.484z"/><path opacity=".6" d="M347.945 291.598c14.264 14.263 14.264 37.388 0 51.651l-4.695 4.695c-14.266 14.264-37.391 14.264-51.652 0l-32.871-32.869c-14.262-14.264-14.262-37.387 0-51.652l4.695-4.694c14.266-14.264 37.391-14.264 51.654 0l32.869 32.869z"/><path opacity=".6" d="M220.4 347.945c-14.264 14.264-37.387 14.264-51.65 0l-4.695-4.695c-14.264-14.264-14.264-37.389 0-51.651l32.869-32.869c14.264-14.264 37.387-14.264 51.65 0l4.695 4.694c14.264 14.266 14.264 37.389 0 51.652L220.4 347.945z"/><path opacity=".6" d="M165.023 295.843c-20.174 0-36.523-16.352-36.523-36.523v-6.64c0-20.172 16.35-36.523 36.523-36.523h46.482c20.172 0 36.523 16.352 36.523 36.523v6.64c0 20.172-16.352 36.523-36.523 36.523h-46.482zm135.467 0c-20.17 0-36.523-16.352-36.523-36.523v-6.64c0-20.172 16.354-36.523 36.523-36.523h46.486c20.17 0 36.523 16.352 36.523 36.523v6.64c0 20.172-16.354 36.523-36.523 36.523H300.49z"/></g></svg>