<?xml version="1.0" encoding="utf-8"?>
<!-- Generator: Adobe Illustrator 16.0.0, SVG Export Plug-In . SVG Version: 6.00 Build 0)  -->
<!DOCTYPE svg PUBLIC "-//W3C//DTD SVG 1.1//EN" "http://www.w3.org/Graphics/SVG/1.1/DTD/svg11.dtd">
<svg version="1.1" id="Layer_1" xmlns="http://www.w3.org/2000/svg" xmlns:xlink="http://www.w3.org/1999/xlink" x="0px" y="0px"
	 width="520px" height="520px" viewBox="0 0 520 520" enable-background="new 0 0 520 520" xml:space="preserve">
<g>
	<g>
		<circle fill="#1E1E1E" cx="259.201" cy="259.8" r="256"/>
	</g>
	<g>
		<path opacity="0.6" fill="#FFFFFF" d="M299.043,215.308c0,20.17-16.35,36.523-36.523,36.523h-6.641
			c-20.17,0-36.523-16.353-36.523-36.523v-46.485c0-20.172,16.354-36.523,36.523-36.523h6.641c20.174,0,36.523,16.352,36.523,36.523
			V215.308z"/>
		<path opacity="0.6" fill="#FFFFFF" d="M256.471,200.724c14.264,14.264,14.264,37.388,0,51.652l-4.695,4.695
			c-14.264,14.263-37.387,14.263-51.65,0l-32.869-32.869c-14.264-14.263-14.264-37.388,0-51.652l4.695-4.696
			c14.264-14.262,37.387-14.262,51.65,0L256.471,200.724z"/>
		<path opacity="0.6" fill="#FFFFFF" d="M318.277,257.071c-14.264,14.263-37.389,14.263-51.654,0l-4.695-4.695
			c-14.262-14.265-14.262-37.389,0-51.652l32.871-32.87c14.262-14.262,37.387-14.262,51.652,0l4.695,4.696
			c14.264,14.264,14.264,37.389,0,51.652L318.277,257.071z"/>
		<path opacity="0.6" fill="#FFFFFF" d="M299.043,350.776c0,20.172-16.35,36.523-36.523,36.523h-6.641
			c-20.17,0-36.523-16.352-36.523-36.523v-46.485c0-20.17,16.354-36.522,36.523-36.522h6.641c20.174,0,36.523,16.353,36.523,36.522
			V350.776z"/>
		<path opacity="0.6" fill="#FFFFFF" d="M351.146,295.398c14.264,14.263,14.264,37.387,0,51.651l-4.695,4.695
			c-14.266,14.263-37.391,14.263-51.652,0l-32.871-32.869c-14.262-14.264-14.262-37.388,0-51.652l4.695-4.694
			c14.266-14.264,37.391-14.264,51.654,0L351.146,295.398z"/>
		<path opacity="0.6" fill="#FFFFFF" d="M223.602,351.745c-14.264,14.263-37.387,14.263-51.65,0l-4.695-4.695
			c-14.264-14.265-14.264-37.389,0-51.651l32.869-32.869c14.264-14.264,37.387-14.264,51.65,0l4.695,4.694
			c14.264,14.265,14.264,37.389,0,51.652L223.602,351.745z"/>
		<path opacity="0.6" fill="#FFFFFF" d="M168.225,299.644c-20.174,0-36.523-16.352-36.523-36.523v-6.641
			c0-20.171,16.35-36.523,36.523-36.523h46.482c20.172,0,36.523,16.352,36.523,36.523v6.641c0,20.172-16.352,36.523-36.523,36.523
			H168.225z"/>
		<path opacity="0.6" fill="#FFFFFF" d="M303.691,299.644c-20.17,0-36.523-16.352-36.523-36.523v-6.641
			c0-20.171,16.354-36.523,36.523-36.523h46.486c20.17,0,36.523,16.352,36.523,36.523v6.641c0,20.172-16.354,36.523-36.523,36.523
			H303.691z"/>
	</g>
</g>
</svg>
