<svg width="512" height="512" fill="none" xmlns="http://www.w3.org/2000/svg"><path d="M256 512c141.385 0 256-114.615 256-256S397.385 0 256 0 0 114.615 0 256s114.615 256 256 256z" fill="#1E1E1E"/><path fill-rule="evenodd" clip-rule="evenodd" d="M96 256.001C96 167.635 167.634 96 256 96s160 71.635 160 160.001h-40.001C375.999 189.726 322.273 136 256 136c-66.274 0-120 53.726-120 120.001 0 66.273 53.726 119.998 120 119.998V416c-88.366 0-160-71.634-160-159.999zm160 95.998c-53.019 0-96-42.98-96-95.998 0-53.02 42.981-96.001 96-96.001 53.018 0 95.999 42.981 95.999 96.001H317.09c0-33.741-27.351-61.092-61.09-61.092-33.74 0-61.091 27.351-61.091 61.092 0 33.738 27.351 61.089 61.091 61.089v34.909z" fill="#fff"/></svg>