<svg xmlns="http://www.w3.org/2000/svg" width="512" height="512"><circle fill="#1E1E1E" cx="256" cy="256" r="256"/><g fill="#fff"><path d="M129.71 379.768c-.009-.001-.016-.006-.025-.007l-.016-.001.041.008zM233.808 266.61l78.101-78.101a14.997 14.997 0 0 1 10.401-4.397c-14.347-11.658-28.216-10.919-105.158 65.843l11.263 11.263 5.393 5.392zm98.679-56.116l-82.41 72.347 14.708 14.715c34.168-32.375 67.167-65.687 69.791-89.331a15.866 15.866 0 0 1-2.089 2.269zm-137.616 65.318l34.719-7.474-15.415-15.406-20.553 20.553a1.317 1.317 0 0 0-.247 1.644 1.3 1.3 0 0 0 1.496.683zM343.75 165.466l28.289-28.289c-13.515-11.351-33.672-9.595-45.021 3.92-11.35 13.516-9.595 33.673 3.921 45.022a31.954 31.954 0 0 0 34.68 4.19l-21.868-21.868a2.102 2.102 0 0 1-.001-2.975zm-14.041 41.887c4.503-3.961 4.945-10.822.985-15.326a11.075 11.075 0 0 0-.468-.499c-4.237-4.243-11.107-4.255-15.358-.025l-77.879 77.88 10.317 10.317 82.403-72.347zM172.181 357.711c37.341-18.72 67.415-37.999 89.447-57.293l-15.299-15.342-31.924 6.914-65.95 65.943 5.154 5.154 16.344 16.352a2.194 2.194 0 0 0 3.692-2.055h.033l-3.552-15.193a3.995 3.995 0 0 1 2.055-4.48zm-43.293 19.781a1.338 1.338 0 0 0 .009 1.894c.213.212.491.342.789.375l37.209 2.549-21.416-21.425-16.591 16.607zm93.607-93.617a1.087 1.087 0 0 0 .995 1.826l19.287-4.16-8.97-8.978-11.312 11.312z"/><path d="M375.113 140.07l-26.883 26.884 21.169 21.17a30.566 30.566 0 0 0 4.736-3.873 31.711 31.711 0 0 0 9.363-22.601 31.71 31.71 0 0 0-8.385-21.58zm-2.439 31.741l-.039.004c-.07.007-.139.023-.209.023-.07-.003-.14-.015-.208-.023a2.381 2.381 0 0 1-.302-.052 2.441 2.441 0 0 1-1.043-.485l.025.033a2.466 2.466 0 0 1-.346-3.461 7.291 7.291 0 0 0 .903-7.917 2.468 2.468 0 1 1 4.358-2.179l.005.012c.007.008.014.013.019.021a12.157 12.157 0 0 1-1.537 13.171c-.406.495-.994.79-1.626.853z"/></g></svg>