<svg xmlns="http://www.w3.org/2000/svg" width="512" height="512"><circle fill="#1E1E1E" cx="256" cy="256" r="256"/><path fill="#FFF" d="M307.904 258.21l-.002.002.002.005zM190.172 301.956l.02-.058-.02.058zM190.191 301.898l.025-.077a1.115 1.115 0 0 1-.025.077zM190.217 301.821l.025-.075-.025.075zM190.242 301.746c.023-.067.032-.096 0 0z"/><path fill="#FFF" d="M177.943 141.634c0-11.702 8.292-16.489 18.426-10.639l198.085 114.364c10.135 5.852 10.135 15.426 0 21.277L196.369 381.001c-10.134 5.851-18.426 1.063-18.426-10.639V141.634z"/></svg>