<svg width="512" height="512" fill="none" xmlns="http://www.w3.org/2000/svg"><circle cx="256" cy="256" r="256" fill="#1E1E1E"/><path fill-rule="evenodd" clip-rule="evenodd" d="M356.381 364.379H248.497c-30.086 0-58.009-12.082-78.624-34.014-20.596-21.921-30.904-50.602-29.03-80.768 3.35-54.091 46.655-97.406 100.756-100.766 2.333-.139 4.665-.209 6.978-.209a106.86 106.86 0 0 1 73.79 29.249 106.844 106.844 0 0 1 25.23 35.755 106.853 106.853 0 0 1 8.784 42.87v107.883zm-20.586-200.804c-25.899-24.344-59.773-36.556-95.412-34.313-63.941 3.968-115.151 55.178-119.129 119.119-2.203 35.619 9.979 69.513 34.333 95.412a128 128 0 0 0 92.91 40.195h117.694c5.413 0 9.809-4.386 9.809-9.799V256.496a127.998 127.998 0 0 0-40.205-92.911v-.01z" fill="#fff"/><path fill-rule="evenodd" clip-rule="evenodd" d="M292.64 290.819h-88.275a9.805 9.805 0 0 0-9.809 9.809 9.805 9.805 0 0 0 9.809 9.809h88.275a9.809 9.809 0 1 0 0-19.618zm-88.275-68.646h88.275a9.81 9.81 0 0 0 0-19.619h-88.275a9.805 9.805 0 0 0-9.809 9.809 9.805 9.805 0 0 0 2.873 6.936 9.806 9.806 0 0 0 6.936 2.874zm-29.418 24.523a9.81 9.81 0 0 0 0 19.609h147.111a9.81 9.81 0 0 0 0-19.619H174.947v.01z" fill="#fff"/></svg>