<?xml version="1.0" encoding="utf-8"?>
<!-- Generator: Adobe Illustrator 16.0.0, SVG Export Plug-In . SVG Version: 6.00 Build 0)  -->
<!DOCTYPE svg PUBLIC "-//W3C//DTD SVG 1.1//EN" "http://www.w3.org/Graphics/SVG/1.1/DTD/svg11.dtd">
<svg version="1.1" id="Layer_1" xmlns="http://www.w3.org/2000/svg" xmlns:xlink="http://www.w3.org/1999/xlink" x="0px" y="0px"
	 width="520px" height="520px" viewBox="0 0 520 520" enable-background="new 0 0 520 520" xml:space="preserve">
<g>
	<g>
		<circle fill="#1E1E1E" cx="260.495" cy="260.306" r="256"/>
	</g>
	<g>
		
			<rect x="154.897" y="146.704" transform="matrix(0.9877 -0.1564 0.1564 0.9877 -22.3569 40.3165)" fill="#D1D3D4" width="180.118" height="30.979"/>
		<path fill="#FFFFFF" d="M158.43,191.582l31.078,196.224l177.9-28.177L336.33,163.404L158.43,191.582z M218.556,358.362
			c-5.455,0.864-10.577-2.856-11.441-8.312c-0.863-5.454,2.857-10.578,8.312-11.442s10.578,2.859,11.441,8.313
			C227.732,352.377,224.011,357.498,218.556,358.362z M211.798,315.694c-5.455,0.864-10.577-2.858-11.441-8.312
			c-0.864-5.455,2.857-10.577,8.312-11.441c5.455-0.863,10.577,2.857,11.441,8.312C220.975,309.707,217.253,314.831,211.798,315.694
			z M205.04,273.024c-5.455,0.864-10.578-2.859-11.441-8.309c-0.864-5.455,2.858-10.576,8.313-11.439
			c5.454-0.864,10.576,2.855,11.44,8.311C214.216,267.036,210.494,272.16,205.04,273.024z M198.282,230.36
			c-5.455,0.864-10.577-2.857-11.441-8.312s2.857-10.577,8.312-11.441s10.577,2.857,11.441,8.312S203.736,229.496,198.282,230.36z"
			/>
	</g>
</g>
</svg>
