<svg xmlns="http://www.w3.org/2000/svg" width="512" height="512"><circle fill="#1e1e1e" cx="256" cy="256" r="256"/><path fill="#efefef" d="M149.083 156.685l177.903-28.17 4.845 30.598-177.902 28.17z"/><path fill="#fff" d="M153.934 187.277L185.012 383.5l177.9-28.176-31.078-196.225-177.9 28.178zm60.126 166.78c-5.455.865-10.577-2.855-11.441-8.311-.863-5.455 2.857-10.578 8.312-11.443 5.455-.863 10.578 2.859 11.441 8.314.865 5.455-2.857 10.576-8.312 11.44zm-6.758-42.668c-5.455.865-10.577-2.857-11.441-8.312s2.857-10.576 8.312-11.441c5.455-.863 10.577 2.857 11.441 8.312s-2.857 10.577-8.312 11.441zm-6.758-42.67c-5.455.865-10.578-2.859-11.441-8.309-.864-5.455 2.858-10.576 8.313-11.439 5.454-.864 10.576 2.855 11.44 8.311.864 5.448-2.857 10.573-8.312 11.437zm-6.757-42.664c-5.455.864-10.577-2.857-11.441-8.312s2.857-10.577 8.312-11.441 10.577 2.857 11.441 8.312-2.858 10.577-8.312 11.441z"/></svg>