<svg xmlns="http://www.w3.org/2000/svg" width="512" height="512"><circle fill="#1e1e1e" cx="256" cy="256" r="256"/><g fill="#FFF"><path d="M164.627 257.833c-11.719 11.372-19.027 25.559-19.027 40.266 0 39.535 49.427 71.591 110.4 71.591 60.973 0 110.4-32.056 110.4-71.591 0-14.707-7.44-29.015-19.152-40.383.317-.849 2.091-7.165 2.091-7.165 17.22 13.99 28.057 32.373 28.057 51.902 0 44.764-54.355 81.046-121.396 81.046-67.044 0-121.396-36.282-121.396-81.046 0-19.529 10.61-37.852 27.827-51.842.061.347 1.751 6.034 2.196 7.222z"/><path d="M347.655 222.446c1.796 4.596 2.739 9.398 2.739 14.342 0 32.991-42.266 59.735-94.395 59.735-52.133 0-94.395-26.744-94.395-59.735 0-4.751.875-9.373 2.532-13.803 15.13 20.639 50.431 35.116 91.565 35.116 41.493 0 77.043-14.726 91.954-35.655z"/><path d="M347.127 273.024a41.152 41.152 0 0 1 1.487 10.927c0 33.543-41.474 60.739-92.637 60.739-51.159 0-92.637-27.196-92.637-60.739 0-3.743.517-7.41 1.505-10.973 14.764 22.578 50.016 38.479 91.154 38.479 41.112 0 76.338-15.871 91.128-38.433zM256 243.771c53.117 0 96.176-25.804 96.176-57.638 0-31.829-43.059-57.634-96.176-57.634-53.118 0-96.176 25.805-96.176 57.634 0 31.834 43.058 57.638 96.176 57.638zm-42.153-90.655c0-2.653 2.125-4.804 4.751-4.804h73.021c2.626 0 4.754 2.147 4.754 4.804v37.221c0 2.652-2.128 4.804-4.754 4.804h-73.021c-2.622 0-4.751-2.151-4.751-4.804v-37.221z"/></g></svg>