<svg width="512" height="512" fill="none" xmlns="http://www.w3.org/2000/svg"><circle fill="#1E1E1E" cx="256" cy="256" r="256"/><path d="M192.65 328.46c4.12-5.1 8.42-10.41 9.56-11.78a18 18 0 0 0 2-2.78c0-.27-15.62-7.52-16.28-7.57-.2 0-.42.38-.49.9-.18 1.14-2 18.25-2.93 28-.21 2.07-.13 2.64.37 2.56.12 0 3.59-4.22 7.72-9.32zm134.25-14.07c2-3.76 2.31-11.25.67-17.67-1.87-7.3-4.7-12.1-9.23-15.68-3.36-2.66-5.9-3-8.42-1-3.95 3.08-7.66 6.27-8.16 7-1.52 2.25-.88 5.43 1.82 9.19s5.37 5.8 10.92 8.28c5.73 2.57 8.25 4.83 10.08 9 .59 1.35 1.06 1.88 1.6 1.81a3 3 0 0 0 .72-1zm-117.25-12.65c7-19.07 16.14-42.78 21.86-57 1.25-3.1 2.26-5.73 2.24-5.83-.05-.32-16.08-7-16.46-6.84s-10 24.21-16.67 41.86c-2.13 5.6-5.34 13.59-7.14 17.77l-3.88 9c-.35.81-.49 1.49-.33 1.6.76.52 17 7.62 17.2 7.52s1.57-3.69 3.18-8zm120.84-39.9c.07-.21-.51-4.3-1.3-9.1l-1.44-8.74-16.16 2.49c-14.1 2.17-16.13 2.54-16 2.87s3 4 6.44 8.35l6.3 8 1.07-.09c.59-.05 5.55-.83 11-1.74 7.86-1.31 10-1.73 10.08-2zm-51.13 7.71c0-.14-2.64-3.67-5.91-7.85l-5.95-7.6-19.68 3.12-19.69 3.11-3.31 9.15c-1.82 5-3.24 9.24-3.15 9.35.23.27 57.63-9 57.69-9.28zm-84.78 11.95c.38-1 2-5.1 3.51-9.12s2.79-7.44 2.77-7.58-5.48.61-16.56 2.41l-16.51 2.68.21 1.88c.11 1 .77 4.87 1.45 8.54l1.25 6.69 11.59-1.84 11.59-1.83.7-1.81zm96.81-18.8c6.15-4.78 6.06-4.7 6-5.17s-4.62-6.18-20-25.12q-14.64-18-29.26-36.12c-4.88-6-6-7.14-7.75-7.72a6.53 6.53 0 0 0-4.73.51 53.52 53.52 0 0 0-6.3 5.14 6 6 0 0 0-.58 7c.72 1.17.26.6 16.23 20.26q37.69 46.41 38.69 46.84c.17.08.86-.29 1.52-.82l6.18-4.82zm-55-31.5c2.31-5.74 2.63-6.73 2.6-8.17-.06-3-1.9-4.69-7.19-6.67-3-1.12-3.47-1.22-5.1-1.06a5.08 5.08 0 0 0-4.48 2.81c-.94 1.46-4.09 10-4 10.71.05.26 3.07 1.66 8 3.7 4.36 1.81 8 3.28 8.12 3.27a39.93 39.93 0 0 0 2-4.59z" stroke="#fff" stroke-miterlimit="10" stroke-width="3"/><path d="M128.5 193.17L154.13 355l213-33.74-25.63-161.82z" stroke="#fff" stroke-miterlimit="10" stroke-width="3"/><rect x="224.52" y="211.5" width="220.03" height="110.01" rx="10" ry="10" transform="rotate(-74.99 334.542 266.503)" fill="#1e1e1e" stroke="#fff" stroke-width="3"/></svg>