<?xml version="1.0" encoding="utf-8"?>
<!-- Generator: Adobe Illustrator 16.0.0, SVG Export Plug-In . SVG Version: 6.00 Build 0)  -->
<!DOCTYPE svg PUBLIC "-//W3C//DTD SVG 1.1//EN" "http://www.w3.org/Graphics/SVG/1.1/DTD/svg11.dtd">
<svg version="1.1" id="Layer_1" xmlns="http://www.w3.org/2000/svg" xmlns:xlink="http://www.w3.org/1999/xlink" x="0px" y="0px"
	 width="520px" height="520px" viewBox="0 0 520 520" enable-background="new 0 0 520 520" xml:space="preserve">
<g>
	<g>
		<circle fill="#1E1E1E" cx="260" cy="260" r="256"/>
	</g>
	<path fill="#FFFFFF" d="M379.506,287.241c2.191-9.357,3.385-19.114,3.385-29.162c0-68.718-54.334-124.426-121.355-124.426
		c-9.816,0-19.35,1.227-28.49,3.482c-9.078-4.198-19.199-6.557-29.883-6.557c-39.025,0-70.662,31.293-70.662,69.895
		c0,12.871,3.533,24.92,9.668,35.276c-1.281,7.248-1.988,14.702-1.988,22.329c0,68.72,54.334,124.428,121.355,124.428
		c7.156,0,14.156-0.671,20.973-1.891c10.164,5.602,21.867,8.806,34.33,8.806c39.023,0,70.662-31.294,70.662-69.896
		C387.5,307.875,384.602,296.899,379.506,287.241z M332.008,294.148c-0.395,13.241-5.551,24.905-14.922,33.751
		c-11.568,10.92-28.805,16.844-48.811,16.844c-1.156,0-2.318-0.02-3.49-0.059l-0.211-0.009
		c-32.668-1.495-52.666-18.686-63.689-32.842c-5.934-7.62-4.568-18.608,3.055-24.542c7.619-5.935,18.605-4.568,24.541,3.054
		c9.443,12.127,22.09,18.649,37.588,19.386c11.732,0.383,21.787-2.337,27.008-7.267c2.65-2.502,3.877-5.424,3.973-9.475l0.029-0.64
		c0.482-8-1.93-11.246-32.502-19.093c-1.707-0.438-3.428-0.88-5.156-1.331c-22.396-5.686-60.074-15.252-57.588-57.88l0.02-0.27
		c2.314-31.328,33.342-46.76,61.32-45.364l1.406,0.127c23.605,3.096,43.049,12.827,59.443,29.752
		c6.719,6.938,6.543,18.009-0.395,24.729c-6.936,6.719-18.008,6.543-24.729-0.395c-10.658-11.004-22.785-17.15-38.113-19.304
		c-7.928-0.2-23.18,2.592-24.047,12.929c-0.494,8.504-0.586,13.683,31.406,21.806c1.795,0.468,3.467,0.897,5.127,1.323
		c13.859,3.558,26.951,6.918,37.742,13.731C325.721,262.399,332.977,276.583,332.008,294.148z"/>
</g>
</svg>
