<svg xmlns="http://www.w3.org/2000/svg" width="512" height="512"><circle fill="#1e1e1e" cx="256" cy="256" r="256"/><path fill="#fff" d="M375.506 283.242a127.76 127.76 0 0 0 3.385-29.163c0-68.718-54.334-124.426-121.355-124.426-9.816 0-19.35 1.227-28.49 3.482a71.01 71.01 0 0 0-29.883-6.557c-39.025 0-70.662 31.293-70.662 69.895 0 12.871 3.533 24.92 9.668 35.276-1.281 7.248-1.988 14.702-1.988 22.329 0 68.719 54.334 124.428 121.355 124.428 7.156 0 14.156-.672 20.973-1.891 10.164 5.602 21.867 8.805 34.33 8.805 39.023 0 70.662-31.293 70.662-69.896a68.97 68.97 0 0 0-7.995-32.282zm-47.498 6.906c-.395 13.242-5.551 24.906-14.922 33.752-11.568 10.92-28.805 16.844-48.811 16.844-1.156 0-2.318-.02-3.49-.059l-.211-.01c-32.668-1.494-52.666-18.686-63.689-32.842-5.934-7.619-4.568-18.607 3.055-24.541 7.619-5.936 18.605-4.568 24.541 3.053 9.443 12.127 22.09 18.65 37.588 19.387 11.732.383 21.787-2.338 27.008-7.268 2.65-2.502 3.877-5.424 3.973-9.475l.029-.639c.482-8-1.93-11.246-32.502-19.094-1.707-.438-3.428-.879-5.156-1.33-22.396-5.686-60.074-15.252-57.588-57.88l.02-.27c2.314-31.328 33.342-46.76 61.32-45.364l1.406.127c23.605 3.096 43.049 12.827 59.443 29.752 6.719 6.938 6.543 18.009-.395 24.729-6.936 6.719-18.008 6.543-24.729-.395-10.658-11.004-22.785-17.15-38.113-19.304-7.928-.2-23.18 2.592-24.047 12.929-.494 8.504-.586 13.683 31.406 21.806 1.795.468 3.467.897 5.127 1.323 13.859 3.558 26.951 6.918 37.742 13.731 14.708 9.29 21.964 23.473 20.995 41.038z"/></svg>