<svg width="512" height="512" xmlns="http://www.w3.org/2000/svg"><circle fill="#1E1E1E" cx="256" cy="256" r="256"/><path d="M182.033 289.52c0 14.803-12.093 26.896-26.895 26.896-14.803 0-26.895-12.093-26.895-26.896 0-14.802 12.092-26.895 26.895-26.895h26.895v26.895zm13.551 0c0-14.802 12.093-26.895 26.896-26.895 14.802 0 26.895 12.093 26.895 26.895v67.342c0 14.803-12.093 26.895-26.895 26.895-14.803 0-26.896-12.092-26.896-26.895V289.52zm26.896-107.487c-14.803 0-26.896-12.093-26.896-26.895 0-14.803 12.093-26.895 26.896-26.895 14.802 0 26.895 12.092 26.895 26.895v26.895H222.48zm0 13.551c14.802 0 26.895 12.093 26.895 26.896 0 14.802-12.093 26.895-26.895 26.895h-67.342c-14.803 0-26.895-12.093-26.895-26.895 0-14.803 12.092-26.896 26.895-26.896h67.342zm107.487 26.896c0-14.803 12.093-26.896 26.895-26.896 14.803 0 26.895 12.093 26.895 26.896 0 14.802-12.092 26.895-26.895 26.895h-26.895V222.48zm-13.551 0c0 14.802-12.093 26.895-26.896 26.895-14.802 0-26.895-12.093-26.895-26.895v-67.342c0-14.803 12.093-26.895 26.895-26.895 14.803 0 26.896 12.092 26.896 26.895v67.342zM289.52 329.967c14.803 0 26.896 12.093 26.896 26.895 0 14.803-12.093 26.895-26.896 26.895-14.802 0-26.895-12.092-26.895-26.895v-26.895h26.895zm0-13.551c-14.802 0-26.895-12.093-26.895-26.896 0-14.802 12.093-26.895 26.895-26.895h67.342c14.803 0 26.895 12.093 26.895 26.895 0 14.803-12.092 26.896-26.895 26.896H289.52z" fill="#FFF"/></svg>