<svg xmlns="http://www.w3.org/2000/svg" width="512" height="512"><circle fill="#1E1E1E" cx="256" cy="256" r="256"/><g fill="#FFF"><path d="M172.897 159.732c10.913-3.336 22.465 2.806 25.801 13.719l56.247 183.974c3.337 10.914-2.806 22.466-13.719 25.802-10.913 3.337-22.465-2.806-25.801-13.719l-56.247-183.974c-3.336-10.913 2.806-22.465 13.719-25.802zm97.109-29.688c10.912-3.337 22.464 2.805 25.801 13.719l56.246 183.974c3.337 10.914-2.806 22.465-13.719 25.802-10.913 3.337-22.465-2.807-25.802-13.719l-56.246-183.975c-3.336-10.913 2.806-22.465 13.72-25.801z"/><path d="M159.186 338.463c-3.336-10.913 2.806-22.464 13.719-25.802l183.975-56.246c10.912-3.336 22.465 2.806 25.801 13.718 3.336 10.913-2.806 22.466-13.719 25.802l-183.974 56.247c-10.914 3.337-22.466-2.806-25.802-13.719zm-29.688-97.107c-3.336-10.913 2.806-22.465 13.719-25.801l183.974-56.246c10.913-3.337 22.465 2.805 25.802 13.719 3.336 10.913-2.807 22.465-13.72 25.801l-183.974 56.246c-10.913 3.337-22.465-2.805-25.801-13.719z"/></g></svg>