<?xml version="1.0" encoding="UTF-8"?>
<svg width="512px" height="512px" viewBox="0 0 512 512" version="1.1" xmlns="http://www.w3.org/2000/svg" xmlns:xlink="http://www.w3.org/1999/xlink">
    <!-- Generator: Sketch 52.6 (67491) - http://www.bohemiancoding.com/sketch -->
    <title>template</title>
    <desc>Created with Sketch.</desc>
    <g id="Page-1" stroke="none" stroke-width="1" fill="none" fill-rule="evenodd">
        <g id="template">
            <circle id="Oval" fill="#1E1E1E" cx="256" cy="256" r="256"></circle>
            <g id="snippetslab" transform="translate(128.000000, 126.000000)" fill="#FFFFFF" fill-rule="nonzero">
                <g id="Group" transform="translate(128.000000, 130.500000) scale(-1, 1) rotate(-180.000000) translate(-128.000000, -130.500000) ">
                    <path d="M67.2349864,260.960104 C64.534174,260.709954 61.083136,259.759382 58.415667,258.508629 C50.8800671,254.989846 45.4617707,248.102369 43.5945424,239.663958 C43.2277654,237.996288 43.2277654,237.879552 43.2277654,223.971184 C43.2277654,210.996711 43.2444371,209.846019 43.5445274,208.295086 C45.0949937,199.973413 50.363245,193.002552 57.9822033,189.200264 C59.616028,188.383106 62.8169908,187.19906 63.4004997,187.19906 C63.6005599,187.19906 63.6672466,187.099 63.6005599,186.915556 C63.5672165,186.748789 49.629691,154.229225 32.6412479,114.655416 C9.88440301,61.606833 1.61524913,42.1951542 1.21512878,40.7776347 C0.398216398,37.9092423 0.114797818,36.0080985 0.0147677304,32.7728187 C-0.251979169,23.5839571 3.09902875,15.3456673 9.73435787,8.92513781 C14.9359224,3.88877443 21.3211763,0.920321834 28.7734178,0.069810136 C30.0571373,-0.0802801636 52.4138618,0.00310333614 124.702271,0.403344135 C176.534528,0.686848034 221.047917,0.987028634 223.615356,1.07041213 C227.533201,1.22050243 228.600189,1.30388593 230.284029,1.65409663 C242.437684,4.20563173 251.990558,13.2777565 255.024803,25.1849203 C256.508583,30.9884119 256.291851,37.258851 254.424623,42.928929 C254.191219,43.6293504 240.170336,76.2823289 223.265251,115.505927 C206.360166,154.729526 192.522671,186.865526 192.522671,186.915556 C192.522671,186.965587 192.772746,187.065647 193.072836,187.115677 C195.656947,187.666008 199.35806,189.283648 201.925499,190.984671 C204.176176,192.468898 207.710572,195.987681 209.17768,198.205682 C211.211625,201.274195 212.64539,204.809655 213.295585,208.295086 C213.595676,209.846019 213.612347,210.996711 213.612347,223.8878 C213.612347,236.712183 213.595676,237.929582 213.312257,239.313748 C211.611746,247.702128 206.410181,254.539575 198.874581,258.308509 C197.124055,259.192374 194.639974,260.059562 192.339282,260.609894 L190.772144,260.976781 L129.336999,260.993458 C95.5435011,261.010134 67.6017633,260.993458 67.2349864,260.960104 Z M189.229573,239.461108 C190.230932,238.909246 191.048709,238.022924 191.616146,236.885755 L192,236.116494 L192,224.075885 C192,212.085445 192,212.035275 191.632835,211.249291 C191.132155,210.145569 190.03066,209.025123 188.929165,208.489985 L187.994563,208.021739 L173.975535,207.938124 L159.956507,207.854508 L167.399943,190.546132 L174.84338,173.237756 L171.40538,173.120695 C146.905459,172.301265 127.52916,166.581975 107.051365,154.123289 C99.6413071,149.608061 93.3160551,145.076109 80.2650074,134.94193 C72.6212992,129.00524 67.4642995,125.125488 63.6591347,122.449797 C60.4047175,120.17546 57.0501643,117.934569 57.0000963,118.001461 C56.9667177,118.034907 65.6117851,138.253097 76.1928135,162.953069 L95.4355986,207.854508 L81.8004248,207.938124 L68.1652509,208.021739 L67.2974063,208.423093 C66.1959113,208.908062 64.9108337,210.279353 64.4769114,211.366353 C64.1765036,212.16906 64.1598143,212.754367 64.1598143,224.1595 L64.1598143,236.116494 L64.7606298,237.203493 C65.4115133,238.390831 66.5130083,239.377492 67.6645714,239.778846 C68.2320082,239.979523 76.6934931,240.012969 128.330247,239.996246 L188.32835,239.9628 L189.229573,239.461108 Z" id="Shape"></path>
                </g>
            </g>
        </g>
    </g>
</svg>