<svg width="512" height="512" xmlns="http://www.w3.org/2000/svg"><g fill="none" fill-rule="evenodd"><circle fill="#1E1E1E" cx="256" cy="256" r="256"/><path d="M195.235 126.04c-2.7.25-6.152 1.2-8.82 2.451-7.535 3.52-12.953 10.407-14.82 18.845-.367 1.668-.367 1.784-.367 15.693 0 12.974.016 14.125.317 15.676 1.55 8.322 6.818 15.292 14.437 19.095 1.634.817 4.835 2 5.418 2 .2 0 .267.101.2.284-.033.167-13.97 32.687-30.959 72.26-22.757 53.05-31.026 72.46-31.426 73.878-.817 2.869-1.1 4.77-1.2 8.005-.267 9.189 3.084 17.427 9.72 23.848 5.2 5.036 11.586 8.005 19.038 8.855 1.284.15 23.64.067 95.93-.333 51.832-.284 96.345-.584 98.912-.667 3.918-.15 4.985-.234 6.669-.584 12.154-2.552 21.707-11.624 24.74-23.53 1.485-5.804 1.268-12.075-.6-17.745-.233-.7-14.254-33.353-31.159-72.577s-30.742-71.36-30.742-71.41c0-.05.25-.15.55-.2 2.584-.55 6.285-2.168 8.852-3.869 2.251-1.484 5.786-5.003 7.253-7.22 2.034-3.07 3.467-6.605 4.118-10.09.3-1.551.316-2.702.316-15.593 0-12.824-.016-14.042-.3-15.426-1.7-8.388-6.902-15.226-14.437-18.995-1.75-.883-4.235-1.75-6.536-2.3l-1.567-.368-61.435-.016c-33.793-.017-61.735 0-62.102.033zm121.995 21.499c1 .552 1.819 1.438 2.386 2.575l.384.77v12.04c0 11.99 0 12.04-.367 12.827-.5 1.103-1.602 2.224-2.704 2.759l-.934.468-14.02.084-14.018.083 7.443 17.309 7.443 17.308-3.438.117c-24.5.82-43.876 6.539-64.354 18.998-7.41 4.515-13.735 9.047-26.786 19.181-7.644 5.937-12.8 9.817-16.606 12.492-3.254 2.275-6.609 4.515-6.659 4.449-.033-.034 8.612-20.252 19.193-44.952l19.243-44.902-13.636-.083-13.635-.084-.868-.401c-1.101-.485-2.386-1.856-2.82-2.943-.3-.803-.317-1.388-.317-12.794v-11.956l.6-1.087c.652-1.188 1.753-2.174 2.905-2.576.567-.2 9.028-.234 60.665-.217l59.998.033.902.502z" fill="#FFF" fill-rule="nonzero"/></g></svg>