<svg xmlns="http://www.w3.org/2000/svg" width="512" height="512"><circle fill="#1e1e1e" cx="256" cy="256" r="256"/><path fill="#fff" d="M361.115 337.176l-45.349-45.348c10.93-15.777 16.391-33.363 16.391-52.752 0-12.604-2.447-24.658-7.34-36.16-4.885-11.504-11.502-21.419-19.832-29.748-8.328-8.33-18.242-14.94-29.744-19.832-11.506-4.884-23.56-7.339-36.164-7.339-12.602 0-24.658 2.446-36.159 7.339-11.505 4.884-21.42 11.502-29.749 19.832-8.33 8.329-14.94 18.246-19.833 29.748-4.884 11.504-7.336 23.557-7.336 36.16s2.445 24.654 7.336 36.158c4.885 11.504 11.502 21.417 19.833 29.746 8.329 8.332 18.246 14.941 29.749 19.834 11.503 4.9 23.557 7.338 36.159 7.338 19.394 0 36.977-5.467 52.754-16.39l45.348 45.214c3.173 3.351 7.137 5.025 11.898 5.025 4.584 0 8.552-1.675 11.898-5.025 3.35-3.35 5.025-7.314 5.025-11.898 0-4.667-1.623-8.637-4.886-11.896m-80.18-56.256c-11.592 11.592-25.539 17.385-41.845 17.385-16.309 0-30.254-5.797-41.846-17.385-11.592-11.592-17.385-25.539-17.385-41.845 0-16.309 5.795-30.255 17.385-41.845 11.59-11.592 25.541-17.386 41.846-17.386 16.307 0 30.253 5.797 41.845 17.386 11.592 11.59 17.387 25.54 17.387 41.845 0 16.309-5.797 30.253-17.387 41.845"/></svg>