<?xml version="1.0" encoding="utf-8"?>
<!-- Generator: Adobe Illustrator 16.0.0, SVG Export Plug-In . SVG Version: 6.00 Build 0)  -->
<!DOCTYPE svg PUBLIC "-//W3C//DTD SVG 1.1//EN" "http://www.w3.org/Graphics/SVG/1.1/DTD/svg11.dtd">
<svg version="1.1" id="Layer_1" xmlns="http://www.w3.org/2000/svg" xmlns:xlink="http://www.w3.org/1999/xlink" x="0px" y="0px"
	 width="520px" height="520px" viewBox="0 0 520 520" enable-background="new 0 0 520 520" xml:space="preserve">
<g>
	<circle fill="#1E1E1E" cx="259.8" cy="259" r="256"/>
</g>
<path fill="#FFFFFF" d="M364.915,340.177l-45.349-45.348c10.93-15.777,16.391-33.364,16.391-52.753
	c0-12.604-2.447-24.658-7.34-36.16c-4.885-11.504-11.502-21.419-19.832-29.749c-8.328-8.33-18.242-14.94-29.744-19.832
	c-11.506-4.883-23.56-7.338-36.164-7.338c-12.602,0-24.658,2.446-36.159,7.338c-11.505,4.884-21.42,11.502-29.749,19.832
	c-8.33,8.329-14.94,18.247-19.833,29.749c-4.884,11.503-7.336,23.556-7.336,36.16s2.445,24.654,7.336,36.159
	c4.885,11.503,11.502,21.417,19.833,29.745c8.329,8.332,18.246,14.941,29.749,19.834c11.503,4.9,23.557,7.338,36.159,7.338
	c19.394,0,36.977-5.467,52.754-16.389l45.348,45.213c3.173,3.352,7.137,5.025,11.898,5.025c4.584,0,8.552-1.674,11.898-5.025
	c3.35-3.349,5.025-7.314,5.025-11.898c0-4.666-1.623-8.636-4.886-11.895 M284.734,283.927
	c-11.592,11.591-25.539,17.384-41.845,17.384c-16.309,0-30.254-5.796-41.846-17.384c-11.592-11.592-17.385-25.54-17.385-41.845
	c0-16.309,5.795-30.255,17.385-41.845c11.59-11.592,25.541-17.386,41.846-17.386c16.307,0,30.253,5.797,41.845,17.386
	s17.387,25.54,17.387,41.845C302.121,258.39,296.324,272.335,284.734,283.927"/>
</svg>
