<?xml version="1.0" encoding="utf-8"?>
<!-- Generator: Adobe Illustrator 16.0.0, SVG Export Plug-In . SVG Version: 6.00 Build 0)  -->
<!DOCTYPE svg PUBLIC "-//W3C//DTD SVG 1.1//EN" "http://www.w3.org/Graphics/SVG/1.1/DTD/svg11.dtd">
<svg version="1.1" id="Layer_1" xmlns="http://www.w3.org/2000/svg" xmlns:xlink="http://www.w3.org/1999/xlink" x="0px" y="0px"
	 width="520px" height="520px" viewBox="0 0 520 520" enable-background="new 0 0 520 520" xml:space="preserve">
<g>
	<path fill="#1E1E1E" d="M516,260.589c0,141.385-114.615,256-256,256c-141.385,0-256-114.615-256-256
		C4,119.207,118.616,4.59,260,4.59C401.385,4.59,516,119.207,516,260.589z"/>
</g>
<g>
	<path fill="#FFFFFF" d="M355.709,271.741c-55.284-33.974-136.151-43.534-201.193-23.797c-7.373,2.248-11.538,10.031-9.312,17.416
		c2.24,7.372,10.042,11.533,17.429,9.303c56.942-17.283,130.327-8.713,178.468,20.887c6.567,4.038,15.164,1.966,19.207-4.612v0.004
		C364.347,284.383,362.275,275.786,355.709,271.741z"/>
	<path fill="#FFFFFF" d="M334.686,324.354c-47.21-28.852-105.732-35.569-173.959-19.977c-6.02,1.373-9.77,7.356-8.396,13.369
		c1.372,6.012,7.362,9.774,13.368,8.404c62.344-14.244,115.281-8.426,157.328,17.261c5.264,3.228,12.152,1.562,15.36-3.702
		C341.615,334.449,339.945,327.583,334.686,324.354z"/>
	<path fill="#FFFFFF" d="M385.145,234.298c4.729-7.948,2.118-18.229-5.859-22.953c-66.46-39.456-171.628-43.165-234.894-23.958
		c-8.856,2.69-13.848,12.04-11.166,20.896c2.681,8.852,12.042,13.847,20.891,11.161c55.112-16.725,150.348-13.574,208.072,20.711
		h0.007C370.133,244.883,380.442,242.259,385.145,234.298z"/>
</g>
</svg>
