<svg xmlns="http://www.w3.org/2000/svg" width="512" height="512"><circle fill="#1e1e1e" cx="256" cy="256" r="256"/><path d="M351.709 267.151c-55.284-33.974-136.151-43.534-201.193-23.797-7.373 2.248-11.538 10.031-9.312 17.416 2.24 7.372 10.042 11.533 17.429 9.303 56.941-17.283 130.327-8.713 178.468 20.887 6.567 4.038 15.164 1.966 19.207-4.612v.004c4.039-6.559 1.967-15.156-4.599-19.201zm-21.023 52.613c-47.21-28.852-105.732-35.569-173.959-19.977-6.02 1.373-9.77 7.356-8.396 13.369 1.371 6.012 7.362 9.774 13.368 8.404 62.344-14.244 115.281-8.426 157.328 17.261 5.264 3.228 12.152 1.562 15.36-3.702 3.228-5.26 1.558-12.126-3.701-15.355zm50.459-90.056c4.729-7.948 2.118-18.229-5.859-22.953-66.46-39.456-171.628-43.165-234.895-23.958-8.856 2.69-13.848 12.04-11.166 20.896 2.682 8.852 12.042 13.847 20.892 11.161 55.112-16.725 150.348-13.574 208.072 20.711h.007c7.937 4.728 18.246 2.104 22.949-5.857z" fill="#fff"/></svg>