<svg xmlns="http://www.w3.org/2000/svg" width="512" height="512"><circle fill="#1E1E1E" cx="256" cy="256" r="256"/><path fill="#FFF" d="M270.01 216.017c0 .252 0 .503.013.739l-36.558 53.105c-5.922-.27-11.865.77-17.5 3.091a40.624 40.624 0 0 0-6.995 3.693l-80.275-33.047s-1.858 30.559 5.883 53.334l56.75 23.416c2.849 12.734 11.585 23.903 24.473 29.276 21.086 8.81 45.398-1.23 54.17-22.325 2.283-5.515 3.347-11.298 3.193-17.069l52.308-37.381c.423.013.859.025 1.282.025 31.303 0 56.745-25.52 56.745-56.858 0-31.341-25.442-56.837-56.745-56.837-31.289.001-56.744 25.497-56.744 56.838zm-8.771 107.615c-6.789 16.299-25.52 24.031-41.8 17.248-7.511-3.13-13.182-8.861-16.453-15.697l18.472 7.656c12.007 5.002 25.782-.692 30.773-12.695 5.006-12.016-.673-25.814-12.674-30.815l-19.096-7.913c7.369-2.795 15.745-2.897 23.571.359 7.89 3.283 14.013 9.465 17.257 17.364 3.246 7.899 3.233 16.619-.05 24.493m65.516-69.736c-20.838 0-37.804-16.991-37.804-37.879 0-20.87 16.966-37.867 37.804-37.867 20.852 0 37.817 16.997 37.817 37.867.001 20.887-16.965 37.879-37.817 37.879m-28.328-37.937c0-15.713 12.722-28.457 28.392-28.457 15.685 0 28.405 12.744 28.405 28.457 0 15.715-12.721 28.447-28.405 28.447-15.67 0-28.392-12.732-28.392-28.447z"/></svg>