<?xml version="1.0" encoding="utf-8"?>
<!-- Generator: Adobe Illustrator 16.0.0, SVG Export Plug-In . SVG Version: 6.00 Build 0)  -->
<!DOCTYPE svg PUBLIC "-//W3C//DTD SVG 1.1//EN" "http://www.w3.org/Graphics/SVG/1.1/DTD/svg11.dtd">
<svg version="1.1" id="Layer_1" xmlns="http://www.w3.org/2000/svg" xmlns:xlink="http://www.w3.org/1999/xlink" x="0px" y="0px"
	 width="520px" height="520px" viewBox="0 0 520 520" enable-background="new 0 0 520 520" xml:space="preserve">
<g>
	<g>
		<circle fill="#1E1E1E" cx="259.799" cy="259.4" r="256"/>
	</g>
	<path fill-rule="evenodd" clip-rule="evenodd" fill="#FFFFFF" d="M266.33,386.926c-0.324-0.739-0.752-1.45-0.957-2.221
		c-0.678-2.57-1.203-5.184-1.938-7.736c-0.393-1.363-0.938-2.738-1.697-3.927c-1.042-1.634-2.771-1.65-3.736,0.028
		c-0.914,1.589-1.527,3.382-2.07,5.147c-0.654,2.132-1.057,4.339-1.652,6.491c-0.213,0.769-0.678,1.469-1.027,2.198
		c-0.182,0.006-0.363,0.011-0.547,0.016c-0.365-0.77-0.869-1.505-1.072-2.314c-0.703-2.838-1.244-5.716-1.967-8.548
		c-0.299-1.17-0.766-2.345-1.391-3.373c-1.191-1.949-3.139-2.067-4.371-0.16c-1.088,1.68-1.861,3.575-2.652,5.427
		c-0.752,1.76-1.279,3.616-2.051,5.364c-0.287,0.651-0.988,1.119-1.5,1.67c-0.275-0.685-0.734-1.354-0.791-2.056
		c-0.266-3.34-0.416-6.689-0.627-10.033c-0.023-0.364-0.168-0.723-0.271-1.079c-0.373-1.295-1.039-2.639-2.43-2.613
		c-1.055,0.02-2.471,0.673-3.062,1.511c-1.432,2.024-2.494,4.311-3.662,6.515c-0.646,1.222-1.152,2.52-1.832,3.722
		c-0.215,0.381-0.785,0.563-1.193,0.837c-0.221-0.449-0.643-0.905-0.627-1.347c0.076-2.285,0.336-4.564,0.393-6.848
		c0.045-1.852,0.111-3.748-0.219-5.553c-0.525-2.857-2.947-3.685-5.059-1.7c-1.574,1.479-2.834,3.302-4.178,5.017
		c-1.115,1.423-2.104,2.949-3.248,4.348c-0.355,0.433-1.043,0.594-1.576,0.879c-0.145-0.622-0.514-1.295-0.391-1.858
		c0.557-2.544,1.363-5.036,1.857-7.59c0.295-1.533,0.426-3.183,0.195-4.714c-0.32-2.129-2.213-3.079-4.076-2.005
		c-1.627,0.939-3.082,2.248-4.434,3.577c-1.629,1.603-3.037,3.429-4.613,5.09c-0.389,0.41-1.059,0.553-1.6,0.818
		c-0.086-0.64-0.395-1.349-0.217-1.905c0.574-1.823,1.393-3.568,1.99-5.384c0.596-1.811,1.141-3.65,1.516-5.517
		c0.268-1.335,0.051-2.696-1.217-3.567c-1.314-0.905-2.686-0.457-3.725,0.354c-2.26,1.762-4.361,3.728-6.52,5.617
		c-1.137,0.992-2.258,2.001-3.383,3.002c-0.199-0.098-0.396-0.195-0.594-0.293c0.076-0.776,0.002-1.608,0.26-2.319
		c0.865-2.401,1.953-4.725,2.754-7.146c0.561-1.694,0.998-3.484,1.115-5.258c0.137-2.091-1.475-3.263-3.371-2.376
		c-1.947,0.91-3.713,2.24-5.477,3.503c-1.383,0.989-2.582,2.238-3.979,3.206c-0.709,0.49-1.672,0.613-2.52,0.902
		c0.188-0.826,0.207-1.743,0.594-2.462c1.059-1.967,2.348-3.812,3.398-5.783c0.771-1.443,1.469-2.965,1.92-4.531
		c0.781-2.711-0.912-4.541-3.641-3.803c-1.812,0.491-3.514,1.471-5.186,2.378c-1.869,1.015-3.619,2.253-5.488,3.266
		c-0.512,0.276-1.271,0.095-1.916,0.125c0.117-0.59,0.07-1.29,0.381-1.75c1.43-2.117,3.012-4.132,4.438-6.252
		c0.914-1.362,1.816-2.776,2.436-4.286c1.02-2.494-0.152-4.088-2.797-3.739c-1.658,0.217-3.285,0.835-4.859,1.447
		c-2.229,0.869-4.373,1.951-6.602,2.82c-0.547,0.213-1.279-0.052-1.926-0.097c0.201-0.568,0.26-1.263,0.629-1.683
		c1.16-1.315,2.473-2.495,3.664-3.786c1.547-1.679,3.104-3.358,4.518-5.146c0.721-0.911,1.203-2.062,0.5-3.271
		c-0.732-1.262-2.012-1.418-3.227-1.25c-2.098,0.289-4.18,0.739-6.246,1.213c-1.76,0.403-3.475,1.011-5.242,1.368
		c-0.648,0.131-1.389-0.192-2.088-0.31c0.34-0.609,0.543-1.387,1.047-1.794c1.818-1.475,3.779-2.772,5.605-4.238
		c1.322-1.061,2.666-2.158,3.73-3.46c1.617-1.976,0.781-4.049-1.768-4.138c-3.014-0.104-6.041,0.266-9.062,0.421
		c-1.486,0.076-2.973,0.17-4.459,0.167c-0.354-0.001-0.904-0.29-0.998-0.57c-0.098-0.287,0.148-0.86,0.428-1.074
		c1.092-0.843,2.254-1.598,3.395-2.381c2.234-1.535,4.523-3.001,6.689-4.628c1.16-0.872,2.229-2.09,1.535-3.69
		c-0.66-1.521-2.234-1.77-3.688-1.709c-3.293,0.135-6.578,0.426-9.869,0.636c-0.582,0.037-1.18,0.053-1.754-0.034
		c-1.113-0.169-1.215-0.855-0.502-1.536c0.643-0.615,1.445-1.091,2.236-1.518c2.246-1.214,4.561-2.307,6.773-3.578
		c1.139-0.655,2.227-1.483,3.139-2.425c1.387-1.427,1.158-3.122-0.654-3.895c-1.682-0.717-3.541-1.092-5.359-1.395
		c-2.146-0.357-4.336-0.46-6.504-0.709c-0.576-0.066-1.188-0.164-1.693-0.424c-0.465-0.239-0.811-0.717-1.207-1.089
		c0.35-0.358,0.635-0.889,1.059-1.045c1.494-0.55,3.033-0.975,4.559-1.438c1.777-0.54,3.566-1.047,5.336-1.617
		c0.652-0.211,1.289-0.511,1.883-0.858c1.025-0.6,2.256-1.346,1.867-2.655c-0.293-0.984-1.158-2.153-2.062-2.529
		c-2.189-0.908-4.541-1.435-6.846-2.048c-1.795-0.479-3.637-0.791-5.416-1.318c-0.506-0.149-0.865-0.788-1.293-1.204
		c0.426-0.415,0.789-1.075,1.291-1.207c2.723-0.714,5.488-1.26,8.219-1.945c1.385-0.348,2.791-0.735,4.078-1.339
		c2.641-1.239,2.82-3.271,0.338-4.753c-1.809-1.079-3.838-1.801-5.799-2.606c-1.967-0.806-3.994-1.463-5.943-2.301
		c-0.506-0.218-0.826-0.871-1.232-1.324c0.512-0.388,0.982-1.03,1.541-1.12c2.518-0.401,5.068-0.583,7.588-0.97
		c1.775-0.272,3.598-0.544,5.262-1.176c2.279-0.864,2.598-2.791,0.678-4.295c-1.742-1.364-3.75-2.403-5.691-3.498
		c-1.805-1.019-3.703-1.872-5.496-2.909c-0.467-0.271-0.695-0.955-1.033-1.449c0.557-0.232,1.121-0.677,1.672-0.66
		c2.072,0.061,4.139,0.356,6.211,0.401c2.117,0.047,4.27,0.108,6.348-0.213c2.363-0.366,3.031-2.482,1.256-4.087
		c-1.678-1.516-3.684-2.683-5.609-3.9c-1.662-1.051-3.441-1.914-5.109-2.957c-0.42-0.263-0.605-0.896-0.9-1.361
		c0.5-0.242,1.016-0.723,1.494-0.688c2.438,0.177,4.859,0.545,7.297,0.73c1.904,0.146,3.834,0.276,5.732,0.138
		c2.389-0.174,3.311-2.095,1.768-3.919c-1.527-1.807-3.438-3.3-5.254-4.847c-1.416-1.206-2.984-2.237-4.398-3.444
		c-0.424-0.36-0.559-1.057-0.824-1.6c0.574-0.186,1.189-0.608,1.717-0.516c2.822,0.497,5.613,1.175,8.436,1.682
		c1.561,0.281,3.162,0.498,4.742,0.479c2.189-0.027,3.086-1.563,2.02-3.476c-0.691-1.236-1.633-2.368-2.617-3.396
		c-1.914-2-3.977-3.858-5.891-5.86c-0.453-0.475-0.553-1.286-0.814-1.942c0.74-0.08,1.566-0.411,2.205-0.193
		c2.213,0.752,4.332,1.771,6.537,2.542c1.742,0.61,3.533,1.217,5.35,1.443c2.037,0.254,3.008-0.964,2.506-2.969
		c-0.277-1.106-0.82-2.211-1.486-3.141c-1.674-2.336-3.539-4.535-5.215-6.869c-0.547-0.761-0.75-1.768-1.111-2.662
		c1.043,0.1,2.197-0.057,3.105,0.346c2.721,1.203,5.314,2.694,8.023,3.929c1.084,0.493,2.326,0.731,3.521,0.864
		c1.229,0.137,2-0.652,1.826-1.851c-0.195-1.343-0.523-2.73-1.117-3.94c-1.264-2.575-2.816-5.011-4.082-7.585
		c-0.443-0.899-0.389-2.042-0.561-3.073c0.936,0.365,2,0.556,2.781,1.131c2.1,1.546,4.047,3.298,6.121,4.881
		c0.963,0.736,2.027,1.391,3.137,1.87c1.699,0.731,2.832,0.001,2.656-1.813c-0.154-1.613-0.576-3.238-1.125-4.77
		c-0.879-2.45-2.039-4.799-2.91-7.25c-0.301-0.849-0.092-1.877-0.115-2.823c0.852,0.33,1.852,0.479,2.529,1.025
		c1.861,1.505,3.564,3.206,5.381,4.769c0.965,0.83,1.949,1.729,3.086,2.237c0.928,0.413,2.365,0.727,3.076,0.282
		c0.73-0.459,1.154-1.881,1.172-2.891c0.023-1.403-0.375-2.838-0.74-4.22c-0.68-2.565-1.514-5.091-2.17-7.663
		c-0.146-0.573,0.17-1.265,0.273-1.902c0.623,0.191,1.41,0.206,1.838,0.605c1.633,1.525,3.109,3.217,4.721,4.767
		c1.453,1.399,2.889,2.863,4.541,3.994c2.053,1.402,3.877,0.5,3.783-1.945c-0.123-3.221-0.709-6.424-1.086-9.636
		c-0.141-1.211-0.316-2.424-0.342-3.639c-0.006-0.391,0.342-1.008,0.668-1.123c0.32-0.113,0.961,0.162,1.217,0.471
		c0.879,1.062,1.66,2.206,2.465,3.329c1.486,2.074,2.896,4.208,4.471,6.213c0.82,1.042,1.92,1.991,3.436,1.441
		c1.521-0.553,1.994-1.939,1.965-3.357c-0.062-2.972-0.309-5.939-0.477-8.909c-0.055-0.955-0.168-1.914-0.125-2.866
		c0.02-0.418,0.363-0.821,0.561-1.231c0.439,0.227,1.01,0.35,1.291,0.703c0.592,0.742,1.072,1.585,1.531,2.424
		c0.996,1.82,1.906,3.688,2.938,5.485c0.635,1.103,1.34,2.192,2.174,3.146c1.633,1.869,3.537,1.495,4.098-0.928
		c0.477-2.052,0.537-4.21,0.67-6.328c0.121-1.966,0.018-3.946,0.172-5.908c0.049-0.638,0.596-1.236,0.914-1.854
		c0.518,0.396,1.258,0.687,1.514,1.211c1.066,2.196,1.941,4.486,2.977,6.699c0.719,1.535,1.449,3.096,2.414,4.478
		c1.551,2.224,3.654,2.068,4.58-0.451c0.906-2.471,1.338-5.118,1.949-7.694c0.393-1.65,0.682-3.326,1.135-4.959
		c0.117-0.425,0.672-0.727,1.025-1.084c0.35,0.362,0.896,0.668,1.016,1.095c0.701,2.504,1.248,5.05,1.959,7.551
		c0.461,1.627,0.953,3.283,1.719,4.778c1.107,2.161,3.123,2.245,4.064,0.035c1.217-2.856,1.922-5.933,2.832-8.92
		c0.311-1.014,0.49-2.079,0.896-3.05c0.236-0.569,0.807-0.999,1.227-1.489c0.41,0.515,1.035,0.971,1.195,1.553
		c0.576,2.098,0.943,4.25,1.49,6.355c0.506,1.947,0.949,3.945,1.766,5.768c1.176,2.622,3.355,2.773,4.77,0.28
		c1.25-2.2,2.057-4.652,3.043-6.999c0.576-1.371,1.049-2.791,1.717-4.113c0.242-0.477,0.916-0.734,1.393-1.092
		c0.25,0.494,0.691,0.976,0.723,1.483c0.168,2.708,0.143,5.432,0.365,8.135c0.129,1.568,0.393,3.188,0.965,4.643
		c0.812,2.071,2.842,2.459,4.334,0.815c1.162-1.277,2.076-2.822,2.895-4.358c1.098-2.062,1.949-4.254,3.02-6.331
		c0.27-0.521,0.967-0.82,1.469-1.221c0.242,0.606,0.709,1.219,0.691,1.816c-0.074,2.604-0.361,5.203-0.43,7.809
		c-0.039,1.528-0.021,3.113,0.334,4.587c0.623,2.596,2.635,3.245,4.672,1.536c1.127-0.946,2.078-2.132,2.98-3.309
		c1.297-1.689,2.465-3.477,3.709-5.204c0.34-0.474,0.695-0.983,1.162-1.304c0.432-0.299,1.021-0.369,1.543-0.539
		c0.148,0.482,0.473,0.988,0.412,1.443c-0.156,1.152-0.486,2.28-0.742,3.419c-0.537,2.38-1.121,4.751-1.574,7.146
		c-0.143,0.757-0.033,1.602,0.135,2.369c0.387,1.769,2.061,2.77,3.643,1.895c1.643-0.907,3.143-2.161,4.494-3.479
		c1.715-1.668,3.172-3.596,4.838-5.317c0.443-0.459,1.246-0.573,1.885-0.846c0.053,0.688,0.324,1.446,0.123,2.049
		c-0.811,2.417-1.836,4.762-2.641,7.179c-0.447,1.347-0.801,2.775-0.877,4.185c-0.166,3.072,1.896,4.39,4.529,2.784
		c1.842-1.121,3.43-2.675,5.068-4.108c1.439-1.263,2.762-2.661,4.205-3.923c0.336-0.294,0.947-0.271,1.434-0.396
		c0.07,0.49,0.322,1.042,0.18,1.457c-0.762,2.207-1.689,4.357-2.426,6.572c-0.684,2.055-1.463,4.134-1.719,6.261
		c-0.318,2.642,1.455,3.823,3.838,2.585c1.914-0.994,3.617-2.407,5.367-3.699c1.541-1.137,2.982-2.408,4.541-3.52
		c0.387-0.275,1.055-0.158,1.594-0.222c-0.014,0.543,0.15,1.182-0.076,1.613c-0.916,1.738-2.027,3.376-2.928,5.123
		c-1.064,2.068-2.176,4.148-2.918,6.342c-0.781,2.313,0.674,3.954,3.082,3.624c1.18-0.161,2.373-0.624,3.428-1.194
		c1.963-1.063,3.822-2.318,5.74-3.465c0.82-0.49,1.652-0.994,2.541-1.321c0.422-0.156,1.084-0.045,1.451,0.212
		c0.184,0.13,0.096,0.946-0.121,1.294c-0.9,1.441-1.896,2.822-2.857,4.227c-1.262,1.845-2.602,3.642-3.744,5.557
		c-0.492,0.828-0.715,1.888-0.803,2.866c-0.117,1.264,0.684,2.104,1.918,2.039c1.41-0.075,2.863-0.306,4.188-0.777
		c1.998-0.71,3.898-1.693,5.848-2.547c0.826-0.363,1.645-0.798,2.514-0.999c0.615-0.142,1.307,0.054,1.965,0.099
		c-0.197,0.614-0.23,1.374-0.623,1.813c-1.348,1.506-2.877,2.85-4.232,4.35c-1.492,1.65-3.072,3.279-4.244,5.149
		c-1.305,2.085-0.176,3.996,2.27,3.803c2.674-0.212,5.312-0.912,7.959-1.445c1.713-0.345,3.404-0.813,5.123-1.129
		c0.381-0.069,0.838,0.268,1.262,0.417c-0.154,0.425-0.189,0.973-0.48,1.251c-0.885,0.842-1.844,1.609-2.816,2.351
		c-1.693,1.292-3.445,2.509-5.115,3.828c-0.744,0.587-1.438,1.285-2.008,2.042c-1.545,2.05-0.779,3.944,1.777,4.159
		c1.953,0.166,3.939,0.049,5.9-0.076c2.016-0.128,4.02-0.43,6.031-0.63c0.473-0.046,0.973-0.054,1.43,0.053
		c0.432,0.101,0.822,0.375,1.23,0.574c-0.225,0.447-0.338,1.033-0.693,1.316c-0.996,0.794-2.082,1.479-3.15,2.18
		c-1.824,1.196-3.693,2.329-5.482,3.575c-0.82,0.572-1.582,1.282-2.221,2.055c-1.471,1.777-0.938,3.682,1.316,4.077
		c1.959,0.345,4.014,0.251,6.02,0.184c2.07-0.071,4.131-0.419,6.201-0.493c0.693-0.024,1.404,0.42,2.107,0.649
		c-0.477,0.587-0.84,1.363-1.451,1.727c-1.824,1.086-3.77,1.971-5.625,3.01c-1.574,0.883-3.221,1.718-4.582,2.873
		c-0.834,0.709-1.629,1.97-1.654,3.003c-0.035,1.413,1.434,2.077,2.691,2.336c2.389,0.489,4.818,0.782,7.232,1.145
		c1.629,0.243,3.279,0.388,4.883,0.738c0.504,0.111,0.893,0.749,1.334,1.146c-0.398,0.382-0.734,0.96-1.207,1.114
		c-2.271,0.739-4.592,1.332-6.875,2.04c-1.418,0.439-2.838,0.909-4.189,1.517c-1.26,0.566-2.58,1.249-2.506,2.956
		c0.07,1.673,1.387,2.417,2.68,2.827c2.578,0.817,5.232,1.391,7.855,2.059c1.34,0.341,2.705,0.598,4.008,1.043
		c0.457,0.156,1.055,0.762,1.053,1.16s-0.609,1.035-1.059,1.152c-2.773,0.723-5.584,1.306-8.369,1.982
		c-1.186,0.287-2.377,0.605-3.506,1.059c-1.184,0.475-2.473,1.052-2.596,2.54c-0.121,1.506,1.059,2.297,2.199,2.864
		c1.707,0.851,3.494,1.546,5.271,2.253c1.975,0.786,3.996,1.458,5.947,2.295c0.506,0.218,0.826,0.869,1.232,1.321
		c-0.516,0.385-0.99,1.021-1.553,1.111c-2.518,0.402-5.062,0.625-7.59,0.962c-1.42,0.191-2.852,0.386-4.232,0.753
		c-1.297,0.344-2.852,0.934-2.789,2.432c0.043,1.013,0.959,2.234,1.834,2.909c1.5,1.159,3.256,1.998,4.941,2.905
		c1.545,0.831,3.191,1.487,4.686,2.397c0.732,0.446,1.223,1.294,1.822,1.96c-0.885,0.22-1.773,0.632-2.656,0.618
		c-1.75-0.026-3.496-0.392-5.248-0.423c-2.117-0.038-4.273-0.09-6.348,0.256c-2.354,0.393-2.984,2.5-1.209,4.114
		c1.633,1.486,3.578,2.647,5.461,3.837c1.57,0.994,3.287,1.762,4.855,2.757c0.543,0.345,0.84,1.08,1.25,1.636
		c-0.674,0.225-1.363,0.677-2.02,0.632c-2.172-0.151-4.326-0.556-6.498-0.721c-2.008-0.153-4.043-0.298-6.041-0.134
		c-2.307,0.189-3.176,2.035-1.775,3.859c1.184,1.538,2.711,2.838,4.203,4.103c1.666,1.408,3.502,2.613,5.184,4.003
		c0.52,0.43,0.781,1.173,1.162,1.773c-0.777,0.178-1.6,0.61-2.326,0.487c-2.566-0.438-5.086-1.132-7.646-1.599
		c-1.613-0.293-3.27-0.496-4.904-0.486c-2.172,0.014-3.104,1.562-2.082,3.466c0.643,1.2,1.533,2.309,2.48,3.298
		c1.914,2.002,3.982,3.855,5.895,5.859c0.49,0.515,0.635,1.359,0.938,2.052c-0.795,0.032-1.668,0.292-2.371,0.052
		c-2.16-0.738-4.225-1.764-6.387-2.494c-1.797-0.605-3.656-1.143-5.529-1.359c-1.76-0.203-2.793,1.021-2.312,2.718
		c0.426,1.499,1.164,2.974,2.055,4.259c1.541,2.231,3.355,4.273,4.947,6.473c0.443,0.613,0.51,1.502,0.748,2.265
		c-0.807-0.061-1.713,0.098-2.402-0.217c-2.562-1.173-5.018-2.583-7.588-3.734c-1.383-0.619-2.896-1.041-4.395-1.282
		c-1.354-0.218-2.205,0.666-2.016,2.011s0.549,2.727,1.145,3.938c1.291,2.625,2.84,5.122,4.158,7.735
		c0.391,0.776,0.365,1.766,0.531,2.656c-0.887-0.314-1.908-0.442-2.631-0.976c-2.227-1.644-4.309-3.481-6.514-5.158
		c-0.922-0.702-1.953-1.331-3.031-1.737c-1.605-0.606-2.797,0.192-2.584,1.872c0.25,1.977,0.807,3.941,1.453,5.835
		c0.807,2.363,1.885,4.631,2.742,6.978c0.211,0.578,0.023,1.303,0.02,1.96c-0.676-0.186-1.506-0.182-1.998-0.589
		c-2.174-1.798-4.215-3.757-6.379-5.568c-1.012-0.847-2.125-1.636-3.314-2.19c-1.857-0.868-3.365-0.067-3.578,1.982
		c-0.143,1.393,0.057,2.876,0.389,4.249c0.707,2.943,1.637,5.833,2.389,8.767c0.135,0.528-0.146,1.163-0.236,1.747
		c-0.574-0.192-1.291-0.232-1.699-0.608c-1.369-1.259-2.596-2.674-3.939-3.964c-1.646-1.583-3.23-3.271-5.068-4.603
		c-2.234-1.616-4.129-0.799-4.189,1.909c-0.061,2.73,0.527,5.476,0.836,8.213c0.184,1.636,0.418,3.268,0.527,4.907
		c0.025,0.381-0.285,0.91-0.605,1.133c-0.162,0.113-0.816-0.21-1.037-0.497c-1.002-1.308-1.912-2.686-2.889-4.014
		c-1.447-1.968-2.799-4.032-4.453-5.812c-0.664-0.716-2.229-1.313-3.012-1.01c-0.912,0.353-1.969,1.738-1.998,2.705
		c-0.104,3.38,0.205,6.773,0.363,10.161c0.035,0.743,0.154,1.49,0.102,2.226c-0.027,0.371-0.275,0.912-0.561,1.022
		c-0.248,0.096-0.801-0.219-1.021-0.506c-0.549-0.712-1.025-1.49-1.461-2.28c-1.027-1.866-1.969-3.779-3.029-5.624
		c-0.635-1.103-1.338-2.194-2.172-3.148c-1.715-1.96-3.695-1.555-4.371,0.969c-0.449,1.678-0.584,3.459-0.686,5.204
		c-0.119,2.072-0.045,4.155-0.074,6.233c-0.006,0.475-0.016,0.973-0.158,1.417c-0.121,0.371-0.434,0.947-0.674,0.953
		c-0.389,0.009-0.963-0.275-1.148-0.608c-0.723-1.297-1.35-2.65-1.963-4.004c-0.879-1.938-1.617-3.945-2.596-5.829
		c-0.797-1.527-1.609-3.417-3.77-3.155c-2.141,0.261-2.537,2.294-2.945,3.944c-0.727,2.938-1.156,5.947-1.801,8.907
		c-0.209,0.967-0.699,1.874-1.061,2.81C266.758,386.943,266.545,386.935,266.33,386.926z M318.727,266.669
		c-1.092-0.057-1.764-0.121-2.434-0.121c-13.059-0.007-26.117-0.167-39.172,0.048c-8.578,0.142-15.445,3.978-19.828,11.431
		c-7.229,12.293-14.193,24.739-21.285,37.112c-2.332,4.067-4.744,8.089-7.049,12.17c-1.354,2.396-2.898,4.756-3.783,7.328
		c-3.168,9.212,0.283,16.493,9.496,19.594c3.941,1.326,8.17,1.896,12.309,2.531c11.012,1.692,21.988,1.145,32.859-1.14
		c16.373-3.441,30.943-10.625,43.602-21.581c15.561-13.47,25.861-30.229,30.967-50.154c0.504-1.965,0.969-4.204,0.529-6.104
		c-2.43-10.504-9.766-12.179-18.68-10.972c1.986,1.188,4.492,1.089,6.438,3.104c-1.043,0.297-1.664,0.55-2.309,0.644
		c-2.104,0.306-4.244,0.424-6.309,0.886c-0.85,0.189-1.943,0.943-2.176,1.679c-0.166,0.52,0.775,1.677,1.488,2.133
		c1.697,1.083,3.564,1.896,5.336,2.868c0.646,0.354,1.217,0.847,1.822,1.276c-0.062,0.214-0.125,0.429-0.189,0.643
		c-0.953,0-1.906,0.024-2.859-0.005c-1.756-0.056-3.518-0.278-5.258-0.156c-0.822,0.058-1.6,0.752-2.396,1.157
		c0.428,0.793,0.666,1.847,1.324,2.327c1.58,1.154,3.369,2.024,5.049,3.046c0.631,0.384,1.199,0.871,1.797,1.312
		c-0.066,0.215-0.131,0.429-0.197,0.643c-0.848,0-1.699,0.056-2.541-0.012c-1.906-0.152-3.807-0.482-5.713-0.5
		c-0.848-0.007-1.699,0.568-2.551,0.88c0.348,0.889,0.467,2.014,1.088,2.619c1.443,1.403,3.145,2.536,4.707,3.818
		c0.529,0.434,0.959,0.987,1.434,1.487c-0.082,0.159-0.164,0.319-0.246,0.479c-0.865-0.073-1.738-0.092-2.592-0.231
		c-2.094-0.344-4.168-0.831-6.271-1.069c-0.68-0.077-1.861,0.275-2.033,0.727c-0.234,0.615,0.057,1.7,0.518,2.256
		c1.252,1.512,2.725,2.837,4.08,4.265c0.59,0.62,1.107,1.311,1.656,1.97c-0.105,0.172-0.211,0.342-0.314,0.514
		c-0.729-0.152-1.486-0.223-2.18-0.471c-1.854-0.66-3.645-1.516-5.529-2.045c-0.812-0.229-2.287-0.146-2.584,0.336
		c-0.398,0.646-0.242,1.992,0.197,2.726c1.059,1.772,2.438,3.352,3.65,5.034c0.377,0.521,0.631,1.127,0.941,1.693
		c-0.107,0.141-0.215,0.282-0.322,0.423c-0.812-0.269-1.652-0.474-2.43-0.818c-1.992-0.883-3.91-1.949-5.943-2.71
		c-1.594-0.596-2.467,0.358-2.033,2.025c0.172,0.663,0.416,1.323,0.732,1.931c0.836,1.605,1.76,3.165,2.584,4.775
		c0.275,0.541,0.359,1.181,0.533,1.774c-0.152,0.105-0.305,0.21-0.455,0.314c-0.766-0.518-1.551-1.007-2.289-1.561
		c-1.49-1.116-2.9-2.351-4.457-3.362c-0.557-0.363-1.732-0.556-2.098-0.231c-0.43,0.379-0.543,1.489-0.34,2.141
		c0.664,2.127,1.559,4.179,2.311,6.28c0.244,0.685,0.318,1.431,0.471,2.147c-0.152,0.08-0.305,0.159-0.457,0.238
		c-0.602-0.395-1.248-0.733-1.791-1.195c-1.34-1.138-2.594-2.377-3.955-3.486c-0.896-0.73-2.084-1.734-3.102-0.84
		c-0.641,0.563-0.836,2.047-0.674,3.025c0.346,2.086,1.074,4.105,1.6,6.165c0.129,0.503,0.082,1.052,0.117,1.579
		c-0.166,0.093-0.33,0.187-0.496,0.281c-0.938-0.88-1.871-1.762-2.812-2.638c-1.359-1.265-2.629-2.653-4.119-3.743
		c-1.197-0.879-2.127-0.375-2.43,1.082c-0.127,0.611-0.143,1.275-0.059,1.895c0.275,2.001,0.65,3.989,0.918,5.99
		c0.074,0.558-0.096,1.147-0.154,1.722c-0.158,0.04-0.316,0.08-0.475,0.12c-0.551-0.68-1.125-1.341-1.645-2.043
		c-1.166-1.584-2.178-3.303-3.488-4.754c-1.459-1.616-3.098-1.134-3.34,1.035c-0.221,1.976,0.098,4.011,0.158,6.02
		c0.027,0.902,0.004,1.807,0.004,2.71c-0.166,0.048-0.334,0.095-0.5,0.143c-0.387-0.587-0.824-1.147-1.152-1.766
		c-0.949-1.783-1.773-3.642-2.824-5.36c-0.387-0.632-1.352-1.395-1.914-1.297c-0.58,0.101-1.297,1.123-1.418,1.833
		c-0.363,2.143-0.449,4.331-0.682,6.498c-0.074,0.692-0.268,1.374-0.406,2.061c-0.188,0.041-0.375,0.082-0.562,0.123
		c-0.459-0.717-0.977-1.403-1.363-2.156c-0.973-1.889-1.805-3.855-2.873-5.685c-0.34-0.582-1.303-1.205-1.885-1.125
		c-0.582,0.081-1.303,0.936-1.512,1.595c-0.479,1.508-0.67,3.105-1.002,4.662c-0.273,1.283-0.582,2.56-0.875,3.839
		c-0.229-0.004-0.455-0.009-0.684-0.014c-0.273-0.83-0.576-1.651-0.812-2.491c-0.518-1.839-0.898-3.726-1.553-5.513
		c-0.25-0.682-1.091-1.568-1.683-1.582c-0.58-0.014-1.465,0.853-1.723,1.523c-0.682,1.776-1.08,3.66-1.625,5.492
		c-0.26,0.873-0.6,1.723-0.904,2.581c-0.221,0.002-0.443,0.002-0.666,0.003c-0.373-1.38-0.748-2.759-1.121-4.14
		c-0.402-1.484-0.678-3.021-1.264-4.429c-0.279-0.673-1.105-1.455-1.76-1.53c-0.541-0.062-1.295,0.762-1.764,1.345
		c-0.455,0.563-0.705,1.306-0.977,1.997c-0.545,1.386-1.002,2.809-1.58,4.179c-0.215,0.514-0.668,0.926-1.012,1.386
		c-0.139-0.05-0.275-0.1-0.414-0.149c-0.08-0.606-0.195-1.209-0.232-1.817c-0.121-1.913-0.039-3.86-0.389-5.727
		c-0.178-0.945-0.965-2.18-1.768-2.467c-0.586-0.21-1.934,0.728-2.439,1.487c-1.025,1.535-1.691,3.305-2.543,4.958
		c-0.316,0.614-0.74,1.175-1.113,1.759c-0.186-0.052-0.373-0.104-0.559-0.155c0-1.176-0.023-2.353,0.006-3.527
		c0.039-1.542,0.299-3.104,0.117-4.616c-0.107-0.88-0.713-2.048-1.43-2.396c-0.545-0.265-1.85,0.344-2.41,0.942
		c-1.305,1.389-2.344,3.022-3.533,4.523c-0.488,0.615-1.086,1.143-1.635,1.71c-0.215-0.12-0.432-0.242-0.648-0.363
		c0.498-1.687,0.736-3.51,1.539-5.037c2.549-4.851,5.334-9.576,7.967-14.385c0.678-1.238,1.344-1.55,2.764-1.021
		c9.656,3.599,19.656,4.995,29.816,3.183c23.52-4.195,39.381-17.665,47.303-40.251C317.154,274.388,317.762,270.593,318.727,266.669
		z M333.857,221.908c0.094,0.182,0.189,0.362,0.285,0.543c-0.48,0.498-0.91,1.056-1.447,1.482c-1.582,1.258-3.289,2.373-4.777,3.731
		c-0.621,0.567-1.295,1.784-1.07,2.375c0.232,0.615,1.508,1.124,2.348,1.157c1.633,0.066,3.277-0.274,4.922-0.368
		c1.219-0.068,2.441-0.014,3.664-0.014c0.064,0.181,0.131,0.361,0.195,0.541c-0.627,0.501-1.23,1.037-1.889,1.497
		c-1.742,1.219-3.576,2.318-5.227,3.648c-0.549,0.442-1,1.519-0.852,2.157c0.117,0.508,1.205,1.1,1.875,1.114
		c1.957,0.046,3.918-0.235,5.879-0.274c0.881-0.018,1.766,0.239,2.648,0.371c-0.629,0.575-1.188,1.268-1.902,1.704
		c-1.855,1.135-3.879,2.02-5.652,3.266c-1.729,1.217-1.428,2.729,0.602,3.361c1.305,0.406,2.715,0.46,4.064,0.734
		c1.594,0.326,3.387-0.071,4.859,1.652c-2.23,0.691-4.461,1.382-6.691,2.073c2.801,0.231,5.512,0.31,8.217,0.209
		c2.381-0.089,4.416-1.172,6.164-2.732c3.426-3.055,5.045-6.872,4.871-11.495c-0.178-4.77-1.801-9.165-3.479-13.512
		c-9.289-24.061-25.496-41.907-48.58-53.406c-12.703-6.327-26.219-9.634-40.42-9.814c-4.884-0.062-9.808,0.131-14.656,0.691
		c-5.129,0.593-10.266,1.28-15.088,3.508c-8.646,3.993-12.111,15.513-4.863,23.99c0.156-2.301-1.443-4.468-0.301-7.131
		c0.729,0.858,1.275,1.413,1.717,2.042c0.828,1.174,1.539,2.434,2.404,3.578c0.838,1.108,1.646,2.802,3.295,2.208
		c1.754-0.631,1.467-2.538,1.4-4.054c-0.07-1.644-0.365-3.277-0.48-4.922c-0.037-0.546,0.184-1.108,0.285-1.664
		c0.164-0.021,0.328-0.041,0.492-0.061c0.406,0.654,0.852,1.289,1.211,1.969c0.922,1.738,1.73,3.541,2.74,5.223
		c0.367,0.608,1.352,1.437,1.752,1.298c0.637-0.221,1.316-1.115,1.449-1.824c0.361-1.926,0.391-3.911,0.664-5.857
		c0.131-0.931,0.516-1.826,0.785-2.737c0.602,0.751,1.324,1.437,1.777,2.269c0.938,1.725,1.641,3.582,2.635,5.269
		c0.377,0.642,1.344,1.383,1.951,1.311c0.588-0.069,1.301-1.048,1.529-1.763c0.467-1.455,0.629-3.006,0.945-4.511
		c0.27-1.289,0.58-2.57,0.873-3.855c0.236-0.007,0.471-0.014,0.705-0.02c0.303,0.795,0.668,1.573,0.895,2.391
		c0.471,1.686,0.727,3.446,1.352,5.07c0.334,0.869,1.25,1.515,1.902,2.263c0.652-0.762,1.556-1.424,1.898-2.305
		c0.631-1.622,0.896-3.383,1.381-5.065c0.234-0.811,0.623-1.577,0.941-2.364c0.193,0.006,0.387,0.014,0.58,0.02
		c0.311,0.857,0.689,1.698,0.918,2.577c0.48,1.849,0.746,3.767,1.379,5.557c0.293,0.829,1.242,1.427,1.893,2.13
		c0.668-0.632,1.35-1.249,1.992-1.905c0.178-0.179,0.252-0.467,0.346-0.714c0.645-1.688,1.23-3.401,1.949-5.057
		c0.221-0.505,0.803-0.853,1.219-1.272c0.188,0.51,0.502,1.011,0.541,1.531c0.156,2.018,0.059,4.071,0.396,6.052
		c0.162,0.95,0.92,2.176,1.725,2.505c0.527,0.217,1.896-0.77,2.4-1.536c1.016-1.542,1.676-3.312,2.525-4.967
		c0.316-0.613,0.752-1.166,1.133-1.746c0.154,0.039,0.312,0.079,0.469,0.118c0.098,0.528,0.297,1.06,0.279,1.584
		c-0.068,2.072-0.246,4.142-0.295,6.215c-0.029,1.202,0.188,2.643,1.49,2.851c0.805,0.128,1.867-0.699,2.65-1.307
		c0.65-0.507,1.076-1.309,1.582-1.993c0.725-0.987,1.387-2.023,2.164-2.968c0.355-0.431,0.916-0.69,1.383-1.029
		c0.129,0.089,0.258,0.179,0.387,0.268c-0.104,0.767-0.16,1.545-0.324,2.299c-0.355,1.66-0.943,3.294-1.09,4.969
		c-0.086,0.989,0.18,2.375,0.838,2.978c1.021,0.934,2.248,0.067,3.094-0.755c1.373-1.333,2.605-2.81,3.934-4.19
		c0.479-0.499,1.062-0.896,1.598-1.34c0.16,0.094,0.32,0.188,0.48,0.281c-0.135,0.672-0.195,1.369-0.412,2.012
		c-0.598,1.76-1.297,3.484-1.887,5.246c-0.379,1.141-0.607,2.424,0.506,3.235c1.23,0.898,2.367,0.062,3.299-0.725
		c1.381-1.164,2.639-2.476,3.986-3.685c0.547-0.491,1.189-0.878,1.791-1.312c0.158,0.119,0.316,0.236,0.475,0.355
		c-0.207,0.728-0.373,1.469-0.627,2.18c-0.68,1.901-1.539,3.751-2.035,5.696c-0.229,0.894,0.229,1.962,0.375,2.951
		c0.945-0.163,2.051-0.071,2.805-0.543c1.57-0.98,2.934-2.289,4.426-3.4c0.615-0.46,1.348-0.761,2.027-1.134
		c0.146,0.154,0.291,0.31,0.436,0.465c-0.385,0.775-0.754,1.56-1.16,2.326c-0.965,1.829-2.113,3.583-2.877,5.492
		c-0.809,2.03,0.441,3.261,2.561,2.653c0.904-0.258,1.756-0.75,2.584-1.221c1.203-0.685,2.334-1.494,3.551-2.15
		c0.514-0.277,1.164-0.302,1.752-0.441c0.078,0.151,0.154,0.302,0.23,0.453c-0.391,0.673-0.742,1.375-1.184,2.014
		c-1.059,1.532-2.227,2.993-3.223,4.564c-0.578,0.913-1.408,2.17-0.346,3.017c0.641,0.512,2.023,0.463,2.932,0.191
		c1.77-0.532,3.426-1.433,5.158-2.11c0.686-0.269,1.447-0.352,2.174-0.519c0.104,0.162,0.209,0.324,0.312,0.486
		c-0.549,0.667-1.068,1.358-1.648,1.996c-1.432,1.571-3.033,3.012-4.299,4.705c-1.234,1.654-0.475,3.007,1.57,2.826
		c1.887-0.166,3.734-0.741,5.604-1.118C331.646,222.295,332.754,222.11,333.857,221.908z M203.391,320.549
		c-0.139-0.129-0.277-0.258-0.416-0.387c0.217-0.556,0.373-1.146,0.66-1.661c0.625-1.114,1.363-2.167,1.969-3.29
		c0.529-0.978,1.061-1.982,1.381-3.039c0.604-1.987-0.59-3.2-2.562-2.604c-1.055,0.318-2.051,0.868-3.023,1.406
		c-1.117,0.619-2.152,1.385-3.273,1.995c-0.475,0.259-1.08,0.281-1.625,0.413c-0.076-0.129-0.154-0.257-0.23-0.386
		c0.352-0.633,0.654-1.298,1.061-1.893c1.111-1.626,2.398-3.147,3.344-4.861c0.445-0.805,0.264-1.954,0.367-2.948
		c-1.008-0.07-2.102-0.428-3.004-0.154c-1.822,0.549-3.529,1.47-5.309,2.173c-0.631,0.25-1.336,0.316-2.006,0.467
		c-0.096-0.159-0.191-0.318-0.289-0.479c0.514-0.628,0.996-1.285,1.547-1.879c1.375-1.481,2.877-2.859,4.127-4.438
		c0.477-0.601,0.793-1.861,0.475-2.408c-0.32-0.553-1.568-0.912-2.326-0.798c-2.145,0.324-4.242,0.956-6.369,1.42
		c-0.676,0.148-1.383,0.154-2.074,0.226c-0.078-0.166-0.154-0.332-0.23-0.498c0.539-0.524,1.037-1.098,1.623-1.562
		c1.541-1.226,3.207-2.31,4.641-3.645c0.604-0.563,1.225-1.83,0.975-2.392c-0.275-0.619-1.539-1.095-2.379-1.105
		c-1.85-0.024-3.703,0.312-5.559,0.442c-0.986,0.068-1.98,0.013-2.971,0.013c-0.055-0.205-0.107-0.41-0.16-0.614
		c0.596-0.479,1.164-1,1.793-1.43c1.627-1.11,3.367-2.074,4.881-3.316c0.684-0.561,0.939-1.644,1.387-2.49
		c-0.898-0.434-1.787-1.201-2.699-1.231c-2.008-0.064-4.027,0.27-6.045,0.382c-0.621,0.035-1.252-0.117-1.879-0.184
		c-0.045-0.186-0.09-0.369-0.135-0.555c0.67-0.454,1.312-0.956,2.014-1.354c1.76-0.998,3.611-1.846,5.285-2.965
		c0.697-0.467,1.584-1.646,1.41-2.188c-0.242-0.746-1.33-1.499-2.189-1.711c-1.795-0.442-3.682-0.497-5.52-0.78
		c-0.934-0.144-1.846-0.435-2.768-0.659c-0.01-0.209-0.021-0.418-0.031-0.627c0.629-0.29,1.236-0.645,1.891-0.86
		c2.018-0.663,4.094-1.168,6.059-1.958c0.715-0.288,1.697-1.277,1.625-1.823c-0.096-0.731-0.98-1.659-1.736-1.944
		c-1.727-0.649-3.588-0.94-5.383-1.414c-1.021-0.27-2.025-0.61-3.035-0.919c0.006-0.215,0.012-0.43,0.018-0.645
		c0.811-0.289,1.604-0.644,2.432-0.854c1.904-0.485,3.865-0.778,5.721-1.399c0.801-0.268,1.396-1.15,2.086-1.753
		c-0.604-0.688-1.078-1.646-1.836-2.008c-1.912-0.913-3.963-1.528-5.934-2.324c-0.682-0.274-1.289-0.728-1.93-1.101
		c0.029-0.224,0.059-0.447,0.088-0.671c1.201-0.229,2.396-0.491,3.604-0.683c1.781-0.283,3.613-0.357,5.348-0.815
		c1.982-0.523,2.199-1.95,0.617-3.232c-0.572-0.467-1.223-0.856-1.879-1.202c-1.459-0.77-2.963-1.455-4.408-2.247
		c-0.547-0.298-0.984-0.794-1.473-1.201c0.055-0.146,0.109-0.29,0.164-0.436c0.604-0.052,1.211-0.168,1.812-0.146
		c2.074,0.077,4.15,0.323,6.217,0.251c0.834-0.03,1.646-0.715,2.469-1.103c-0.438-0.835-0.67-1.948-1.352-2.452
		c-1.619-1.191-3.461-2.076-5.188-3.125c-0.59-0.356-1.105-0.834-1.654-1.256c0.062-0.175,0.125-0.351,0.186-0.525
		c1.068,0,2.143-0.061,3.207,0.014c1.801,0.126,3.594,0.445,5.395,0.46c0.748,0.007,1.98-0.412,2.133-0.905
		c0.205-0.662-0.193-1.814-0.734-2.347c-1.359-1.337-2.959-2.423-4.43-3.647c-0.693-0.578-1.316-1.244-1.971-1.871
		c0.082-0.176,0.166-0.352,0.248-0.529c0.961,0.081,1.932,0.107,2.881,0.257c2.148,0.336,4.273,0.882,6.43,1.059
		c1.82,0.148,2.438-1.036,1.402-2.555c-0.742-1.087-1.717-2.024-2.633-2.984c-0.918-0.963-1.922-1.845-2.822-2.825
		c-0.24-0.263-0.236-0.75-0.346-1.133c0.383-0.063,0.799-0.255,1.139-0.162c0.869,0.236,1.701,0.599,2.549,0.913
		c1.395,0.518,2.756,1.182,4.193,1.502c0.824,0.183,2.176,0.11,2.553-0.397c0.393-0.527,0.148-1.85-0.256-2.585
		c-0.762-1.386-1.834-2.602-2.781-3.887c-0.504-0.687-1.053-1.343-1.498-2.066c-0.166-0.27-0.09-0.688-0.125-1.039
		c0.346-0.03,0.738-0.181,1.029-0.068c0.938,0.362,1.836,0.826,2.756,1.242c1.545,0.701,3.057,1.512,4.656,2.062
		c1.73,0.596,2.572-0.281,2.023-2.064c-0.342-1.106-0.9-2.153-1.432-3.19c-0.607-1.184-1.33-2.307-1.924-3.494
		c-0.258-0.514-0.316-1.126-0.467-1.693c0.139-0.115,0.277-0.229,0.416-0.344c0.727,0.458,1.484,0.87,2.17,1.381
		c1.578,1.179,3.072,2.473,4.699,3.574c0.527,0.357,1.713,0.588,1.965,0.308c0.422-0.467,0.604-1.478,0.408-2.111
		c-0.656-2.127-1.564-4.175-2.289-6.283c-0.242-0.702-0.223-1.493-0.322-2.245c0.723,0.333,1.547,0.541,2.148,1.024
		c1.254,1.007,2.389,2.161,3.574,3.254c0.176-0.143,0.352-0.284,0.527-0.425c-1.893-2.716-3.611-5.578-5.748-8.085
		c-1.074-1.26-2.811-2.119-4.412-2.731c-6.031-2.308-11.291,0.084-15.256,4.143c-22.719,23.25-31.447,51.336-27.488,83.382
		c1.807,14.638,7.213,28.077,15.436,40.338c4.047,6.035,8.557,11.715,14.07,16.489c2.65,2.294,5.855,3.164,9.389,2.61
		c4.283-0.671,7.76-2.889,10.252-6.247c2.457-3.311,4.365-7.029,6.492-10.583c0.893-1.488,1.729-3.011,2.592-4.519
		c-3.775,4.622-5.471,10.816-10.975,14.134c0.033-0.962,0.266-1.808,0.557-2.632c0.621-1.754,1.418-3.461,1.852-5.257
		c0.209-0.862,0.057-2.411-0.465-2.704c-0.691-0.39-2.062-0.125-2.854,0.344c-1.498,0.887-2.775,2.141-4.178,3.198
		C204.85,319.692,204.102,320.098,203.391,320.549z M224.598,307.229c0.338-0.534,0.689-1.05,1-1.588
		c6.605-11.43,13.238-22.845,19.797-34.302c4.367-7.628,4.258-15.41,0.008-22.978c-6.49-11.555-13.217-22.979-19.846-34.455
		c-0.256-0.442-0.557-0.858-0.842-1.29C193.057,235.354,192.874,283.324,224.598,307.229z M236.577,205.594
		c0.396,0.734,0.652,1.242,0.936,1.735c6.795,11.804,13.604,23.603,20.391,35.412c3.955,6.882,10.154,10.099,17.818,10.215
		c13.578,0.207,27.164,0.055,40.744,0.055c0.619,0,1.238,0,2.152,0c-2.807-18.716-11.688-33.262-27.576-43.059
		C273.805,199.324,255.577,198.496,236.577,205.594z M259.688,264.282c2.55,0.031,4.607-1.926,4.669-4.445
		c0.066-2.61-1.943-4.726-4.533-4.773c-2.539-0.047-4.719,2.099-4.707,4.637C255.129,262.211,257.163,264.252,259.688,264.282z"/>
</g>
</svg>
