<svg xmlns="http://www.w3.org/2000/svg" width="512" height="512"><circle fill="#1e1e1e" cx="256" cy="256" r="256"/><path fill-rule="evenodd" clip-rule="evenodd" fill="#fff" d="M262.531 383.526c-.324-.74-.752-1.451-.957-2.221-.678-2.57-1.203-5.184-1.938-7.736-.393-1.363-.938-2.738-1.697-3.928-1.043-1.633-2.771-1.65-3.736.029-.914 1.588-1.527 3.381-2.07 5.146-.654 2.133-1.057 4.34-1.652 6.492-.213.768-.678 1.469-1.027 2.197-.182.006-.363.012-.547.016-.365-.77-.869-1.504-1.072-2.314-.703-2.838-1.244-5.715-1.967-8.547-.299-1.17-.766-2.346-1.391-3.373-1.191-1.949-3.139-2.068-4.371-.16-1.088 1.68-1.861 3.574-2.652 5.426-.752 1.76-1.279 3.617-2.051 5.365-.287.65-.988 1.119-1.5 1.67-.275-.686-.734-1.355-.791-2.057-.266-3.34-.416-6.689-.627-10.033-.023-.363-.168-.723-.271-1.078-.373-1.295-1.039-2.639-2.43-2.613-1.055.02-2.471.672-3.062 1.51-1.432 2.025-2.494 4.311-3.662 6.516-.646 1.221-1.152 2.52-1.832 3.721-.215.381-.785.564-1.193.838-.221-.449-.643-.906-.627-1.348.076-2.285.336-4.564.393-6.848.045-1.852.111-3.748-.219-5.553-.525-2.857-2.947-3.684-5.059-1.699-1.574 1.479-2.834 3.301-4.178 5.016-1.115 1.424-2.104 2.949-3.248 4.348-.355.434-1.043.594-1.576.879-.145-.621-.514-1.295-.391-1.857.557-2.545 1.363-5.037 1.857-7.59.295-1.533.426-3.184.195-4.715-.32-2.129-2.213-3.078-4.076-2.004-1.627.939-3.082 2.248-4.434 3.576-1.629 1.604-3.037 3.43-4.613 5.09-.389.41-1.059.553-1.6.818-.086-.639-.395-1.348-.217-1.904.574-1.824 1.393-3.568 1.99-5.385.596-1.811 1.141-3.65 1.516-5.516.268-1.336.051-2.697-1.217-3.568-1.314-.904-2.686-.457-3.725.354-2.26 1.762-4.361 3.729-6.52 5.617-1.137.992-2.258 2.002-3.383 3.002l-.594-.293c.076-.775.002-1.607.26-2.318.865-2.402 1.953-4.725 2.754-7.146.561-1.693.998-3.484 1.115-5.258.137-2.09-1.475-3.262-3.371-2.375-1.947.91-3.713 2.24-5.477 3.502-1.383.99-2.582 2.238-3.979 3.207-.709.49-1.672.613-2.52.902.188-.826.207-1.744.594-2.463 1.059-1.967 2.348-3.811 3.398-5.783.771-1.443 1.469-2.965 1.92-4.531.781-2.711-.912-4.541-3.641-3.803-1.812.492-3.514 1.471-5.186 2.379-1.869 1.014-3.619 2.252-5.488 3.266-.512.275-1.271.094-1.916.125.117-.59.07-1.291.381-1.75 1.43-2.117 3.012-4.133 4.438-6.252.914-1.363 1.816-2.777 2.436-4.287 1.02-2.494-.152-4.088-2.797-3.738-1.658.217-3.285.834-4.859 1.447-2.229.869-4.373 1.951-6.602 2.82-.547.213-1.279-.053-1.926-.098.201-.568.26-1.262.629-1.682 1.16-1.316 2.473-2.496 3.664-3.787 1.547-1.678 3.104-3.357 4.518-5.146.721-.91 1.203-2.062.5-3.27-.732-1.262-2.012-1.418-3.227-1.25-2.098.289-4.18.738-6.246 1.213-1.76.402-3.475 1.01-5.242 1.367-.648.131-1.389-.191-2.088-.309.34-.609.543-1.387 1.047-1.795 1.818-1.475 3.779-2.771 5.605-4.238 1.322-1.061 2.666-2.158 3.73-3.459 1.617-1.977.781-4.049-1.768-4.139-3.014-.104-6.041.266-9.062.422-1.486.076-2.973.17-4.459.166-.354 0-.904-.289-.998-.57-.098-.287.148-.859.428-1.074 1.092-.842 2.254-1.598 3.395-2.381 2.234-1.535 4.523-3 6.689-4.627 1.16-.873 2.229-2.09 1.535-3.691-.66-1.52-2.234-1.77-3.688-1.709-3.293.135-6.578.426-9.869.637-.582.037-1.18.053-1.754-.035-1.113-.168-1.215-.855-.502-1.535.643-.615 1.445-1.092 2.236-1.518 2.246-1.215 4.561-2.307 6.773-3.578a14.438 14.438 0 0 0 3.139-2.426c1.387-1.426 1.158-3.121-.654-3.895-1.682-.717-3.541-1.092-5.359-1.395-2.146-.357-4.336-.459-6.504-.709-.576-.066-1.188-.164-1.693-.424-.465-.238-.811-.717-1.207-1.088.35-.359.635-.889 1.059-1.045 1.494-.551 3.033-.975 4.559-1.439 1.777-.539 3.566-1.047 5.336-1.617a9.68 9.68 0 0 0 1.883-.857c1.025-.6 2.256-1.346 1.867-2.656-.293-.984-1.158-2.152-2.062-2.529-2.189-.908-4.541-1.434-6.846-2.047-1.795-.479-3.637-.791-5.416-1.319-.506-.149-.865-.788-1.293-1.204.426-.415.789-1.075 1.291-1.207 2.723-.714 5.488-1.26 8.219-1.945 1.385-.348 2.791-.735 4.078-1.339 2.641-1.239 2.82-3.271.338-4.753-1.809-1.079-3.838-1.801-5.799-2.606-1.967-.806-3.994-1.463-5.943-2.301-.506-.218-.826-.871-1.232-1.324.512-.388.982-1.03 1.541-1.12 2.518-.401 5.068-.583 7.588-.97 1.775-.272 3.598-.544 5.262-1.176 2.279-.864 2.598-2.791.678-4.295-1.742-1.364-3.75-2.403-5.691-3.498-1.805-1.019-3.703-1.872-5.496-2.909-.467-.271-.695-.955-1.033-1.449.557-.232 1.121-.677 1.672-.66 2.072.061 4.139.356 6.211.401 2.117.047 4.27.108 6.348-.213 2.363-.366 3.031-2.482 1.256-4.087-1.678-1.516-3.684-2.683-5.609-3.9-1.662-1.051-3.441-1.914-5.109-2.957-.42-.263-.605-.896-.9-1.361.5-.242 1.016-.723 1.494-.688 2.438.177 4.859.545 7.297.73 1.904.146 3.834.276 5.732.138 2.389-.174 3.311-2.095 1.768-3.919-1.527-1.807-3.438-3.3-5.254-4.847-1.416-1.206-2.984-2.237-4.398-3.444-.424-.36-.559-1.057-.824-1.6.574-.186 1.189-.608 1.717-.516 2.822.497 5.613 1.175 8.436 1.682 1.561.281 3.162.498 4.742.479 2.189-.027 3.086-1.563 2.02-3.476-.691-1.236-1.633-2.368-2.617-3.396-1.914-2-3.977-3.858-5.891-5.86-.453-.475-.553-1.286-.814-1.942.74-.08 1.566-.411 2.205-.193 2.213.752 4.332 1.771 6.537 2.542 1.742.61 3.533 1.217 5.35 1.443 2.037.254 3.008-.964 2.506-2.969-.277-1.106-.82-2.211-1.486-3.141-1.674-2.336-3.539-4.535-5.215-6.869-.547-.761-.75-1.768-1.111-2.662 1.043.1 2.197-.057 3.105.346 2.721 1.203 5.314 2.694 8.023 3.929 1.084.493 2.326.731 3.521.864 1.229.137 2-.652 1.826-1.851-.195-1.343-.523-2.73-1.117-3.94-1.264-2.575-2.816-5.011-4.082-7.585-.443-.899-.389-2.042-.561-3.073.936.365 2 .556 2.781 1.131 2.1 1.546 4.047 3.298 6.121 4.881.963.736 2.027 1.391 3.137 1.87 1.699.731 2.832.001 2.656-1.813-.154-1.613-.576-3.238-1.125-4.77-.879-2.45-2.039-4.799-2.91-7.25-.301-.849-.092-1.877-.115-2.823.852.33 1.852.479 2.529 1.025 1.861 1.505 3.564 3.206 5.381 4.769.965.83 1.949 1.729 3.086 2.237.928.413 2.365.727 3.076.282.73-.459 1.154-1.881 1.172-2.891.023-1.403-.375-2.838-.74-4.22-.68-2.565-1.514-5.091-2.17-7.663-.146-.573.17-1.265.273-1.902.623.191 1.41.206 1.838.605 1.633 1.525 3.109 3.217 4.721 4.767 1.453 1.399 2.889 2.863 4.541 3.994 2.053 1.402 3.877.5 3.783-1.945-.123-3.221-.709-6.424-1.086-9.636-.141-1.211-.316-2.424-.342-3.639-.006-.391.342-1.008.668-1.123.32-.113.961.162 1.217.471.879 1.062 1.66 2.206 2.465 3.329 1.486 2.074 2.896 4.208 4.471 6.213.82 1.042 1.92 1.991 3.436 1.441 1.521-.553 1.994-1.939 1.965-3.357-.062-2.972-.309-5.939-.477-8.909-.055-.955-.168-1.914-.125-2.866.02-.418.363-.821.561-1.231.439.227 1.01.35 1.291.703.592.742 1.072 1.585 1.531 2.424.996 1.82 1.906 3.688 2.938 5.485.635 1.103 1.34 2.192 2.174 3.146 1.633 1.869 3.537 1.495 4.098-.928.477-2.052.537-4.21.67-6.328.121-1.966.018-3.946.172-5.908.049-.638.596-1.236.914-1.854.518.396 1.258.687 1.514 1.211 1.066 2.196 1.941 4.486 2.977 6.699.719 1.535 1.449 3.096 2.414 4.478 1.551 2.224 3.654 2.068 4.58-.451.906-2.471 1.338-5.118 1.949-7.694.393-1.65.682-3.326 1.135-4.959.117-.425.672-.727 1.025-1.084.35.362.896.668 1.016 1.095.701 2.504 1.248 5.05 1.959 7.551.461 1.627.953 3.283 1.719 4.778 1.107 2.161 3.123 2.245 4.064.035 1.217-2.856 1.922-5.933 2.832-8.92.311-1.014.49-2.079.896-3.05.236-.569.807-.999 1.227-1.489.41.515 1.035.971 1.195 1.553.576 2.098.943 4.25 1.49 6.355.506 1.947.949 3.945 1.766 5.768 1.176 2.622 3.355 2.773 4.77.28 1.25-2.2 2.057-4.652 3.043-6.999.576-1.371 1.049-2.791 1.717-4.113.242-.477.916-.734 1.393-1.092.25.494.691.976.723 1.483.168 2.708.143 5.432.365 8.135.129 1.568.393 3.188.965 4.643.812 2.071 2.842 2.459 4.334.815 1.162-1.277 2.076-2.822 2.895-4.358 1.098-2.062 1.949-4.254 3.02-6.331.27-.521.967-.82 1.469-1.221.242.606.709 1.219.691 1.816-.074 2.604-.361 5.203-.43 7.809-.039 1.528-.021 3.113.334 4.587.623 2.596 2.635 3.245 4.672 1.536 1.127-.946 2.078-2.132 2.98-3.309 1.297-1.689 2.465-3.477 3.709-5.204.34-.474.695-.983 1.162-1.304.432-.299 1.021-.369 1.543-.539.148.482.473.988.412 1.443-.156 1.152-.486 2.28-.742 3.419-.537 2.38-1.121 4.751-1.574 7.146-.143.757-.033 1.602.135 2.369.387 1.769 2.061 2.77 3.643 1.895 1.643-.907 3.143-2.161 4.494-3.479 1.715-1.668 3.172-3.596 4.838-5.317.443-.459 1.246-.573 1.885-.846.053.688.324 1.446.123 2.049-.811 2.417-1.836 4.762-2.641 7.179-.447 1.347-.801 2.775-.877 4.185-.166 3.072 1.896 4.39 4.529 2.784 1.842-1.121 3.43-2.675 5.068-4.108 1.439-1.263 2.762-2.661 4.205-3.923.336-.294.947-.271 1.434-.396.07.49.322 1.042.18 1.457-.762 2.207-1.689 4.357-2.426 6.572-.684 2.055-1.463 4.134-1.719 6.261-.318 2.642 1.455 3.823 3.838 2.585 1.914-.994 3.617-2.407 5.367-3.699 1.541-1.137 2.982-2.408 4.541-3.52.387-.275 1.055-.158 1.594-.222-.014.543.15 1.182-.076 1.613-.916 1.738-2.027 3.376-2.928 5.123-1.064 2.068-2.176 4.148-2.918 6.342-.781 2.313.674 3.954 3.082 3.624 1.18-.161 2.373-.624 3.428-1.194 1.963-1.063 3.822-2.318 5.74-3.465.82-.49 1.652-.994 2.541-1.321.422-.156 1.084-.045 1.451.212.184.13.096.946-.121 1.294-.9 1.441-1.896 2.822-2.857 4.227-1.262 1.845-2.602 3.642-3.744 5.557-.492.828-.715 1.888-.803 2.866-.117 1.264.684 2.104 1.918 2.039 1.41-.075 2.863-.306 4.188-.777 1.998-.71 3.898-1.693 5.848-2.547.826-.363 1.645-.798 2.514-.999.615-.142 1.307.054 1.965.099-.197.614-.23 1.374-.623 1.813-1.348 1.506-2.877 2.85-4.232 4.35-1.492 1.65-3.072 3.279-4.244 5.149-1.305 2.085-.176 3.996 2.27 3.803 2.674-.212 5.312-.912 7.959-1.445 1.713-.345 3.404-.813 5.123-1.129.381-.069.838.268 1.262.417-.154.425-.189.973-.48 1.251-.885.842-1.844 1.609-2.816 2.351-1.693 1.292-3.445 2.509-5.115 3.828a11.284 11.284 0 0 0-2.008 2.042c-1.545 2.05-.779 3.944 1.777 4.159 1.953.166 3.939.049 5.9-.076 2.016-.128 4.02-.43 6.031-.63.473-.046.973-.054 1.43.053.432.101.822.375 1.23.574-.225.447-.338 1.033-.693 1.316-.996.794-2.082 1.479-3.15 2.18-1.824 1.196-3.693 2.329-5.482 3.575a11.335 11.335 0 0 0-2.221 2.055c-1.471 1.777-.938 3.682 1.316 4.077 1.959.345 4.014.251 6.02.184 2.07-.071 4.131-.419 6.201-.493.693-.024 1.404.42 2.107.649-.477.587-.84 1.363-1.451 1.727-1.824 1.086-3.77 1.971-5.625 3.01-1.574.883-3.221 1.718-4.582 2.873-.834.709-1.629 1.97-1.654 3.003-.035 1.413 1.434 2.077 2.691 2.336 2.389.489 4.818.782 7.232 1.145 1.629.243 3.279.388 4.883.738.504.111.893.749 1.334 1.146-.398.382-.734.96-1.207 1.114-2.271.739-4.592 1.332-6.875 2.04-1.418.439-2.838.909-4.189 1.517-1.26.566-2.58 1.249-2.506 2.956.07 1.673 1.387 2.417 2.68 2.827 2.578.817 5.232 1.391 7.855 2.059 1.34.341 2.705.598 4.008 1.043.457.156 1.055.762 1.053 1.16s-.609 1.035-1.059 1.152c-2.773.722-5.584 1.306-8.369 1.982-1.186.287-2.377.605-3.506 1.059-1.184.475-2.473 1.053-2.596 2.541-.121 1.506 1.059 2.297 2.199 2.863 1.707.852 3.494 1.547 5.271 2.254 1.975.785 3.996 1.457 5.947 2.295.506.217.826.869 1.232 1.32-.516.385-.99 1.021-1.553 1.111-2.518.402-5.062.625-7.59.963-1.42.191-2.852.385-4.232.752-1.297.344-2.852.934-2.789 2.432.043 1.014.959 2.234 1.834 2.91 1.5 1.158 3.256 1.998 4.941 2.904 1.545.832 3.191 1.488 4.686 2.398.732.445 1.223 1.293 1.822 1.959-.885.221-1.773.633-2.656.619-1.75-.027-3.496-.393-5.248-.424-2.117-.037-4.273-.09-6.348.256-2.354.393-2.984 2.5-1.209 4.115 1.633 1.486 3.578 2.646 5.461 3.836 1.57.994 3.287 1.762 4.855 2.758.543.344.84 1.08 1.25 1.635-.674.225-1.363.678-2.02.633-2.172-.152-4.326-.557-6.498-.721-2.008-.154-4.043-.299-6.041-.135-2.307.189-3.176 2.035-1.775 3.859 1.184 1.539 2.711 2.838 4.203 4.104 1.666 1.408 3.502 2.613 5.184 4.002.52.43.781 1.174 1.162 1.773-.777.178-1.6.611-2.326.488-2.566-.439-5.086-1.133-7.646-1.6-1.613-.293-3.27-.496-4.904-.486-2.172.014-3.104 1.562-2.082 3.467.643 1.199 1.533 2.309 2.48 3.297 1.914 2.002 3.982 3.855 5.895 5.859.49.516.635 1.359.938 2.053-.795.031-1.668.291-2.371.051-2.16-.738-4.225-1.764-6.387-2.494-1.797-.605-3.656-1.143-5.529-1.359-1.76-.203-2.793 1.021-2.312 2.719.426 1.498 1.164 2.973 2.055 4.258 1.541 2.232 3.355 4.273 4.947 6.473.443.613.51 1.502.748 2.266-.807-.061-1.713.098-2.402-.217-2.562-1.174-5.018-2.584-7.588-3.734-1.383-.619-2.896-1.041-4.395-1.283-1.354-.217-2.205.666-2.016 2.012.189 1.344.549 2.727 1.145 3.938 1.291 2.625 2.84 5.121 4.158 7.734.391.777.365 1.766.531 2.656-.887-.314-1.908-.441-2.631-.975-2.227-1.645-4.309-3.482-6.514-5.158-.922-.703-1.953-1.332-3.031-1.738-1.605-.605-2.797.193-2.584 1.873.25 1.977.807 3.941 1.453 5.834.807 2.363 1.885 4.631 2.742 6.979.211.578.023 1.303.02 1.959-.676-.186-1.506-.182-1.998-.588-2.174-1.799-4.215-3.758-6.379-5.568-1.012-.848-2.125-1.637-3.314-2.191-1.857-.867-3.365-.066-3.578 1.982-.143 1.393.057 2.877.389 4.25.707 2.943 1.637 5.832 2.389 8.766.135.529-.146 1.164-.236 1.748-.574-.193-1.291-.232-1.699-.609-1.369-1.258-2.596-2.674-3.939-3.963-1.646-1.584-3.23-3.271-5.068-4.604-2.234-1.615-4.129-.799-4.189 1.91-.061 2.73.527 5.475.836 8.213.184 1.635.418 3.268.527 4.906.025.381-.285.91-.605 1.133-.162.113-.816-.209-1.037-.496-1.002-1.309-1.912-2.686-2.889-4.014-1.447-1.969-2.799-4.033-4.453-5.812-.664-.717-2.229-1.314-3.012-1.01-.912.352-1.969 1.738-1.998 2.705-.104 3.379.205 6.773.363 10.16.035.744.154 1.49.102 2.227-.027.371-.275.912-.561 1.021-.248.096-.801-.219-1.021-.506-.549-.711-1.025-1.49-1.461-2.279-1.027-1.867-1.969-3.779-3.029-5.625-.635-1.102-1.338-2.193-2.172-3.148-1.715-1.959-3.695-1.555-4.371.969-.449 1.678-.584 3.459-.686 5.205-.119 2.072-.045 4.154-.074 6.232-.006.475-.016.973-.158 1.418-.121.371-.434.947-.674.953-.389.008-.963-.275-1.148-.609-.723-1.297-1.35-2.65-1.963-4.004-.879-1.938-1.617-3.945-2.596-5.828-.797-1.527-1.609-3.418-3.77-3.156-2.141.262-2.537 2.295-2.945 3.945-.727 2.938-1.156 5.947-1.801 8.906-.209.967-.699 1.875-1.061 2.811a16.815 16.815 0 0 0-.652-.035zm52.396-120.257c-1.092-.057-1.764-.121-2.434-.121-13.059-.006-26.117-.166-39.172.049-8.578.141-15.445 3.977-19.828 11.43-7.229 12.293-14.193 24.74-21.285 37.113-2.332 4.066-4.744 8.088-7.049 12.17-1.354 2.395-2.898 4.756-3.783 7.328-3.168 9.211.283 16.492 9.496 19.594 3.941 1.326 8.17 1.896 12.309 2.531 11.012 1.691 21.988 1.145 32.859-1.141 16.373-3.441 30.943-10.625 43.602-21.58 15.561-13.471 25.861-30.23 30.967-50.154.504-1.965.969-4.205.529-6.104-2.43-10.504-9.766-12.18-18.68-10.973 1.986 1.189 4.492 1.09 6.438 3.105-1.043.297-1.664.549-2.309.643-2.104.307-4.244.424-6.309.887-.85.189-1.943.943-2.176 1.678-.166.52.775 1.678 1.488 2.133 1.697 1.084 3.564 1.896 5.336 2.869.646.354 1.217.846 1.822 1.275-.062.215-.125.43-.189.643-.953 0-1.906.025-2.859-.004-1.756-.057-3.518-.279-5.258-.156-.822.057-1.6.752-2.396 1.156.428.793.666 1.848 1.324 2.328 1.58 1.154 3.369 2.023 5.049 3.045.631.385 1.199.871 1.797 1.312l-.197.643c-.848 0-1.699.055-2.541-.012-1.906-.152-3.807-.482-5.713-.5-.848-.008-1.699.568-2.551.879.348.889.467 2.014 1.088 2.619 1.443 1.404 3.145 2.537 4.707 3.818.529.434.959.988 1.434 1.488l-.246.479c-.865-.072-1.738-.092-2.592-.23-2.094-.344-4.168-.832-6.271-1.07-.68-.076-1.861.275-2.033.727-.234.615.057 1.701.518 2.256 1.252 1.512 2.725 2.838 4.08 4.266.59.619 1.107 1.311 1.656 1.969-.105.172-.211.342-.314.514-.729-.152-1.486-.223-2.18-.471-1.854-.66-3.645-1.516-5.529-2.045-.812-.229-2.287-.146-2.584.336-.398.646-.242 1.992.197 2.727 1.059 1.771 2.438 3.352 3.65 5.033.377.521.631 1.127.941 1.693l-.322.424c-.812-.27-1.652-.475-2.43-.818-1.992-.883-3.91-1.949-5.943-2.711-1.594-.596-2.467.359-2.033 2.025.172.664.416 1.324.732 1.932.836 1.605 1.76 3.164 2.584 4.775.275.541.359 1.18.533 1.773l-.455.314c-.766-.518-1.551-1.006-2.289-1.561-1.49-1.115-2.9-2.35-4.457-3.361-.557-.363-1.732-.557-2.098-.232-.43.379-.543 1.49-.34 2.141.664 2.127 1.559 4.18 2.311 6.281.244.684.318 1.43.471 2.146-.152.08-.305.16-.457.238-.602-.395-1.248-.732-1.791-1.195-1.34-1.137-2.594-2.377-3.955-3.486-.896-.73-2.084-1.734-3.102-.84-.641.564-.836 2.047-.674 3.025.346 2.086 1.074 4.105 1.6 6.166.129.502.082 1.051.117 1.578l-.496.281c-.938-.879-1.871-1.762-2.812-2.637-1.359-1.266-2.629-2.654-4.119-3.744-1.197-.879-2.127-.375-2.43 1.082a5.713 5.713 0 0 0-.059 1.895c.275 2.002.65 3.99.918 5.99.074.559-.096 1.148-.154 1.723l-.475.119c-.551-.68-1.125-1.34-1.645-2.043-1.166-1.584-2.178-3.303-3.488-4.754-1.459-1.615-3.098-1.133-3.34 1.035-.221 1.977.098 4.012.158 6.02.027.902.004 1.807.004 2.711-.166.047-.334.094-.5.143-.387-.588-.824-1.148-1.152-1.766-.949-1.783-1.773-3.643-2.824-5.361-.387-.631-1.352-1.395-1.914-1.297-.58.102-1.297 1.123-1.418 1.834-.363 2.143-.449 4.33-.682 6.498-.074.691-.268 1.373-.406 2.061l-.562.123c-.459-.717-.977-1.404-1.363-2.156-.973-1.889-1.805-3.855-2.873-5.686-.34-.582-1.303-1.205-1.885-1.125-.582.082-1.303.936-1.512 1.596-.479 1.508-.67 3.105-1.002 4.662-.273 1.283-.582 2.559-.875 3.838a78.025 78.025 0 0 1-.684-.014c-.273-.83-.576-1.65-.812-2.49-.518-1.84-.898-3.727-1.553-5.514-.25-.682-1.092-1.568-1.683-1.582-.58-.014-1.465.854-1.723 1.523-.682 1.777-1.08 3.66-1.625 5.492-.26.873-.6 1.723-.904 2.582-.221.002-.443.002-.666.002l-1.121-4.139c-.402-1.484-.678-3.021-1.264-4.43-.279-.672-1.105-1.455-1.76-1.529-.541-.062-1.295.762-1.764 1.344-.455.564-.705 1.307-.977 1.998-.545 1.385-1.002 2.809-1.58 4.178-.215.514-.668.926-1.012 1.387l-.414-.15c-.08-.605-.195-1.209-.232-1.816-.121-1.914-.039-3.861-.389-5.727-.178-.945-.965-2.18-1.768-2.467-.586-.211-1.934.727-2.439 1.486-1.025 1.535-1.691 3.305-2.543 4.959-.316.613-.74 1.174-1.113 1.758-.186-.051-.373-.104-.559-.154 0-1.176-.023-2.354.006-3.527.039-1.543.299-3.105.117-4.617-.107-.879-.713-2.047-1.43-2.395-.545-.266-1.85.344-2.41.941-1.305 1.389-2.344 3.023-3.533 4.523-.488.615-1.086 1.143-1.635 1.711l-.648-.363c.498-1.688.736-3.51 1.539-5.037 2.549-4.852 5.334-9.576 7.967-14.385.678-1.238 1.344-1.551 2.764-1.021 9.656 3.6 19.656 4.996 29.816 3.184 23.52-4.195 39.381-17.666 47.303-40.252 1.252-3.572 1.859-7.367 2.824-11.29zm15.131-44.761c.094.182.189.362.285.543-.48.498-.91 1.056-1.447 1.482-1.582 1.258-3.289 2.373-4.777 3.731-.621.567-1.295 1.784-1.07 2.375.232.615 1.508 1.124 2.348 1.157 1.633.066 3.277-.274 4.922-.368 1.219-.068 2.441-.014 3.664-.014.064.181.131.361.195.541-.627.501-1.23 1.037-1.889 1.497-1.742 1.219-3.576 2.318-5.227 3.648-.549.442-1 1.519-.852 2.157.117.508 1.205 1.1 1.875 1.114 1.957.046 3.918-.235 5.879-.274.881-.018 1.766.239 2.648.371-.629.575-1.188 1.268-1.902 1.704-1.855 1.135-3.879 2.02-5.652 3.266-1.729 1.217-1.428 2.729.602 3.361 1.305.406 2.715.46 4.064.734 1.594.326 3.387-.071 4.859 1.652l-6.691 2.073c2.801.231 5.512.31 8.217.209 2.381-.089 4.416-1.172 6.164-2.732 3.426-3.055 5.045-6.872 4.871-11.495-.178-4.77-1.801-9.165-3.479-13.512-9.289-24.061-25.496-41.907-48.58-53.406-12.703-6.327-26.219-9.634-40.42-9.814-4.884-.062-9.808.131-14.656.691-5.129.593-10.266 1.28-15.088 3.508-8.646 3.993-12.111 15.513-4.863 23.99.156-2.301-1.443-4.468-.301-7.131.729.858 1.275 1.413 1.717 2.042.828 1.174 1.539 2.434 2.404 3.578.838 1.108 1.646 2.802 3.295 2.208 1.754-.631 1.467-2.538 1.4-4.054-.07-1.644-.365-3.277-.48-4.922-.037-.546.184-1.108.285-1.664l.492-.061c.406.654.852 1.289 1.211 1.969.922 1.738 1.73 3.541 2.74 5.223.367.608 1.352 1.437 1.752 1.298.637-.221 1.316-1.115 1.449-1.824.361-1.926.391-3.911.664-5.857.131-.931.516-1.826.785-2.737.602.751 1.324 1.437 1.777 2.269.938 1.725 1.641 3.582 2.635 5.269.377.642 1.344 1.383 1.951 1.311.588-.069 1.301-1.048 1.529-1.763.467-1.455.629-3.006.945-4.511.27-1.289.58-2.57.873-3.855l.705-.02c.303.795.668 1.573.895 2.391.471 1.686.727 3.446 1.352 5.07.334.869 1.25 1.515 1.902 2.263.652-.762 1.556-1.424 1.898-2.305.631-1.622.896-3.383 1.381-5.065.234-.811.623-1.577.941-2.364l.58.02c.311.857.689 1.698.918 2.577.48 1.849.746 3.767 1.379 5.557.293.829 1.242 1.427 1.893 2.13.668-.632 1.35-1.249 1.992-1.905.178-.179.252-.467.346-.714.645-1.688 1.23-3.401 1.949-5.057.221-.505.803-.853 1.219-1.272.188.51.502 1.011.541 1.531.156 2.018.059 4.071.396 6.052.162.95.92 2.176 1.725 2.505.527.217 1.896-.77 2.4-1.536 1.016-1.542 1.676-3.312 2.525-4.967.316-.613.752-1.166 1.133-1.746l.469.118c.098.528.297 1.06.279 1.584-.068 2.072-.246 4.142-.295 6.215-.029 1.202.188 2.643 1.49 2.851.805.128 1.867-.699 2.65-1.307.65-.507 1.076-1.309 1.582-1.993.725-.987 1.387-2.023 2.164-2.968.355-.431.916-.69 1.383-1.029l.387.268c-.104.767-.16 1.545-.324 2.299-.355 1.66-.943 3.294-1.09 4.969-.086.989.18 2.375.838 2.978 1.021.934 2.248.067 3.094-.755 1.373-1.333 2.605-2.81 3.934-4.19.479-.499 1.062-.896 1.598-1.34l.48.281c-.135.672-.195 1.369-.412 2.012-.598 1.76-1.297 3.484-1.887 5.246-.379 1.141-.607 2.424.506 3.235 1.23.898 2.367.062 3.299-.725 1.381-1.164 2.639-2.476 3.986-3.685.547-.491 1.189-.878 1.791-1.312l.475.355c-.207.728-.373 1.469-.627 2.18-.68 1.901-1.539 3.751-2.035 5.696-.229.894.229 1.962.375 2.951.945-.163 2.051-.071 2.805-.543 1.57-.98 2.934-2.289 4.426-3.4.615-.46 1.348-.761 2.027-1.134.146.154.291.31.436.465-.385.775-.754 1.56-1.16 2.326-.965 1.829-2.113 3.583-2.877 5.492-.809 2.03.441 3.261 2.561 2.653.904-.258 1.756-.75 2.584-1.221 1.203-.685 2.334-1.494 3.551-2.15.514-.277 1.164-.302 1.752-.441.078.151.154.302.23.453-.391.673-.742 1.375-1.184 2.014-1.059 1.532-2.227 2.993-3.223 4.564-.578.913-1.408 2.17-.346 3.017.641.512 2.023.463 2.932.191 1.77-.532 3.426-1.433 5.158-2.11.686-.269 1.447-.352 2.174-.519l.312.486c-.549.667-1.068 1.358-1.648 1.996-1.432 1.571-3.033 3.012-4.299 4.705-1.234 1.654-.475 3.007 1.57 2.826 1.887-.166 3.734-.741 5.604-1.118 1.101-.221 2.209-.406 3.312-.608zm-130.466 98.641l-.416-.387c.217-.557.373-1.146.66-1.662.625-1.113 1.363-2.166 1.969-3.289.529-.979 1.061-1.982 1.381-3.039.604-1.988-.59-3.201-2.562-2.605-1.055.318-2.051.869-3.023 1.406-1.117.619-2.152 1.385-3.273 1.996-.475.258-1.08.281-1.625.412l-.23-.385c.352-.633.654-1.299 1.061-1.893 1.111-1.627 2.398-3.148 3.344-4.861.445-.805.264-1.955.367-2.949-1.008-.07-2.102-.428-3.004-.154-1.822.549-3.529 1.471-5.309 2.174-.631.25-1.336.316-2.006.467l-.289-.48c.514-.627.996-1.285 1.547-1.879 1.375-1.48 2.877-2.859 4.127-4.438.477-.6.793-1.861.475-2.408-.32-.553-1.568-.912-2.326-.797-2.145.324-4.242.955-6.369 1.42-.676.148-1.383.154-2.074.225-.078-.166-.154-.332-.23-.498.539-.523 1.037-1.098 1.623-1.562 1.541-1.225 3.207-2.309 4.641-3.645.604-.562 1.225-1.83.975-2.391-.275-.619-1.539-1.096-2.379-1.105-1.85-.025-3.703.312-5.559.441-.986.068-1.98.014-2.971.014-.055-.205-.107-.41-.16-.615.596-.479 1.164-1 1.793-1.43 1.627-1.109 3.367-2.074 4.881-3.316.684-.561.939-1.643 1.387-2.49-.898-.434-1.787-1.201-2.699-1.23-2.008-.064-4.027.27-6.045.381-.621.035-1.252-.117-1.879-.184l-.135-.555c.67-.453 1.312-.955 2.014-1.354 1.76-.998 3.611-1.846 5.285-2.965.697-.467 1.584-1.646 1.41-2.188-.242-.746-1.33-1.498-2.189-1.711-1.795-.441-3.682-.496-5.52-.779-.934-.145-1.846-.436-2.768-.66l-.031-.627c.629-.289 1.236-.645 1.891-.859 2.018-.664 4.094-1.168 6.059-1.959.715-.287 1.697-1.277 1.625-1.822-.096-.732-.98-1.66-1.736-1.945-1.727-.648-3.588-.939-5.383-1.414-1.021-.269-2.025-.61-3.035-.918l.018-.645c.811-.289 1.604-.644 2.432-.854 1.904-.485 3.865-.778 5.721-1.399.801-.268 1.396-1.15 2.086-1.753-.604-.688-1.078-1.646-1.836-2.008-1.912-.913-3.963-1.528-5.934-2.324-.682-.274-1.289-.728-1.93-1.101l.088-.671c1.201-.229 2.396-.491 3.604-.683 1.781-.283 3.613-.357 5.348-.815 1.982-.523 2.199-1.95.617-3.232-.572-.467-1.223-.856-1.879-1.202-1.459-.77-2.963-1.455-4.408-2.247-.547-.298-.984-.794-1.473-1.201l.164-.436c.604-.052 1.211-.168 1.812-.146 2.074.077 4.15.323 6.217.251.834-.03 1.646-.715 2.469-1.103-.438-.835-.67-1.948-1.352-2.452-1.619-1.191-3.461-2.076-5.188-3.125-.59-.356-1.105-.834-1.654-1.256l.186-.525c1.068 0 2.143-.061 3.207.014 1.801.126 3.594.445 5.395.46.748.007 1.98-.412 2.133-.905.205-.662-.193-1.814-.734-2.347-1.359-1.337-2.959-2.423-4.43-3.647-.693-.578-1.316-1.244-1.971-1.871l.248-.529c.961.081 1.932.107 2.881.257 2.148.336 4.273.882 6.43 1.059 1.82.148 2.438-1.036 1.402-2.555-.742-1.087-1.717-2.024-2.633-2.984-.918-.963-1.922-1.845-2.822-2.825-.24-.263-.236-.75-.346-1.133.383-.063.799-.255 1.139-.162.869.236 1.701.599 2.549.913 1.395.518 2.756 1.182 4.193 1.502.824.183 2.176.11 2.553-.397.393-.527.148-1.85-.256-2.585-.762-1.386-1.834-2.602-2.781-3.887-.504-.687-1.053-1.343-1.498-2.066-.166-.27-.09-.688-.125-1.039.346-.03.738-.181 1.029-.068.938.362 1.836.826 2.756 1.242 1.545.701 3.057 1.512 4.656 2.062 1.73.596 2.572-.281 2.023-2.064-.342-1.106-.9-2.153-1.432-3.19-.607-1.184-1.33-2.307-1.924-3.494-.258-.514-.316-1.126-.467-1.693l.416-.344c.727.458 1.484.87 2.17 1.381 1.578 1.179 3.072 2.473 4.699 3.574.527.357 1.713.588 1.965.308.422-.467.604-1.478.408-2.111-.656-2.127-1.564-4.175-2.289-6.283-.242-.702-.223-1.493-.322-2.245.723.333 1.547.541 2.148 1.024 1.254 1.007 2.389 2.161 3.574 3.254l.527-.425c-1.893-2.716-3.611-5.578-5.748-8.085-1.074-1.26-2.811-2.119-4.412-2.731-6.031-2.308-11.291.084-15.256 4.143-22.719 23.25-31.447 51.336-27.488 83.382 1.807 14.637 7.213 28.076 15.436 40.338 4.047 6.035 8.557 11.715 14.07 16.488 2.65 2.295 5.855 3.164 9.389 2.611 4.283-.672 7.76-2.889 10.252-6.248 2.457-3.311 4.365-7.029 6.492-10.582.893-1.488 1.729-3.012 2.592-4.52-3.775 4.623-5.471 10.816-10.975 14.135.033-.963.266-1.809.557-2.633.621-1.754 1.418-3.461 1.852-5.256.209-.863.057-2.412-.465-2.705-.691-.389-2.062-.125-2.854.344-1.498.887-2.775 2.141-4.178 3.199-.674.501-1.422.907-2.133 1.358zm21.207-13.32c.338-.533.689-1.049 1-1.588 6.605-11.43 13.238-22.844 19.797-34.301 4.367-7.629 4.258-15.411.008-22.978-6.49-11.555-13.217-22.979-19.846-34.455-.256-.442-.557-.858-.842-1.29-31.658 22.738-31.842 70.708-.117 94.612zm11.978-101.635c.396.734.652 1.242.936 1.735 6.795 11.804 13.604 23.603 20.391 35.412 3.955 6.882 10.154 10.099 17.818 10.215 13.578.207 27.164.055 40.744.055h2.152c-2.807-18.716-11.688-33.262-27.576-43.059-17.237-10.628-35.465-11.456-54.465-4.358zm23.112 58.688c2.55.031 4.607-1.926 4.669-4.445.066-2.61-1.943-4.726-4.533-4.773-2.539-.047-4.719 2.099-4.707 4.637.012 2.511 2.045 4.552 4.571 4.581z"/></svg>