<svg width="512" height="512" fill="none" xmlns="http://www.w3.org/2000/svg"><circle fill="#1E1E1E" cx="256" cy="256" r="256"/><circle cx="256" cy="256" r="256" fill="#1e1e1e"/><path d="M225.55 151c11.76 1.31 23.49 2.84 35.25 4.2 10.48 1.3 21 2.5 31.45 3.86 6.33 5.29 12.54 10.74 18.83 16.08q16.23 14 32.5 27.87a17.67 17.67 0 0 0-.4 4c0 .78-.2 1.68.38 2.31q6.92 9.54 13.8 19.09c2.72 3.65 5.24 7.45 8.07 11 8.71-9.86 17.37-19.76 26.09-29.62 2.56 2.6 4.92 5.38 7.48 8v.57c-7 12.81-13.9 25.7-20.91 38.51-5.68 2.39-11.59 4.29-17.32 6.58-.61.2-1.42.66-1.92 0-4.2-4-8.45-8-12.66-12-1.57-1.35-2.94-2.93-4.6-4.17q-.34 5.44-.52 10.9c-9.13 2.56-18.19 5.41-27.29 8.09-.56.22-1.39.25-1.55 1-3.62 9.58-7.33 19.14-11 28.73-1.53 5.36-2.78 10.81-4.21 16.21-4 15.33-7.86 30.67-11.82 46-3.41 0-6.82-.3-10.22-.11-.44.94-.55 2.26-1.41 2.86-2.37.07-4.76.05-7.13-.06-3.92-.05-7.84 0-11.76 0a78.79 78.79 0 0 0-8.13-.17q-4.4-11.44-8.78-22.91c-1.73-4.37-3.24-8.85-5.11-13.16-3-1.23-6.15-2.13-9.22-3.22s-6.3-2.33-9.55-3.13C211 326 208 333.7 205 341.42c-2.1 5.2-3.93 10.5-6.13 15.65a37.41 37.41 0 0 0-6.17-.3c-1.79-.11-3.58 0-5.37-.06-.76 1.08-1.58 2.12-2.24 3.28h-26.6c-3.91-16-7.71-32.07-11.58-48.1a40.81 40.81 0 0 0-1.08-4.08c-3.83 6.4-7.53 12.88-11.47 19.21q-10.21-6.48-20.39-13v-.32c.49-.53 1-1 1.46-1.58 4.67 1.76 9.18 3.9 13.85 5.65 1-8.67 2.21-17.34 3.27-26a54.36 54.36 0 0 1 1.24-6.3c1.7-7.3 3.33-14.61 5.05-21.9 2.46-10.44 4.74-20.93 7.62-31.26a8 8 0 0 0 1.88-.31c14.65-4.26 29.29-8.58 43.94-12.86a7.65 7.65 0 0 0 2.52-1q5.92-24.1 11.8-48.23a27.12 27.12 0 0 1 1.06-3.88c8.58.47 17.16.64 25.73 1.05-2.33-5.49-5.39-10.61-7.84-16.08z" fill="#fff"/></svg>