<svg width="512" height="512" fill="none" xmlns="http://www.w3.org/2000/svg"><path d="M256 512c141.385 0 256-114.615 256-256S397.385 0 256 0 0 114.615 0 256s114.615 256 256 256z" fill="#1E1E1E"/><path fill-rule="evenodd" clip-rule="evenodd" d="M163 256.001c0 51.28 41.72 93 93 93s93-41.72 93-93h27c0 66.168-53.832 120-120 120s-120-53.832-120-120C136 189.832 189.832 136 256 136v27c-51.28 0-93 41.72-93 93.001zm36.864-4.913l20.016-24.366 35.072 28.74 75.052-93.711 24.615 19.711-85.033 106.174a15.769 15.769 0 0 1-22.316 2.327l-47.406-38.875z" fill="#fff"/></svg>