<svg width="512" height="512" fill="none" xmlns="http://www.w3.org/2000/svg"><path d="M256 512c141.385 0 256-114.615 256-256S397.385 0 256 0 0 114.615 0 256s114.615 256 256 256z" fill="#1E1E1E"/><path fill-rule="evenodd" clip-rule="evenodd" d="M212.757 230.378L256.135 187l43.378 43.378-43.378 43.379-43.378-43.379zm43.378 43.379l43.378 43.378-43.378 43.378-43.378-43.378 43.378-43.378zM169.378 187l43.379 43.378-43.379 43.379L126 230.378 169.378 187zm173.514.27l-43.108 43.108 43.108 43.108L386 230.378l-43.108-43.108z" fill="#fff"/></svg>