<svg xmlns="http://www.w3.org/2000/svg" width="512" height="512"><circle fill="#1E1E1E" cx="256" cy="256" r="256"/><path fill="#FFF" d="M351.635 128.663h-191.27c-17.565.039-31.803 14.262-31.865 31.834v42.078l43.204 25.36c3.257 1.903 7.299 1.872 10.579 0 2.734-1.57 84.544-49.073 85.771-49.796a8.003 8.003 0 0 1 7.89-.094c1.733 1.026 6.381 3.7 8.836 5.106 2.465 1.415 2.348 5.331.156 6.606-2.191 1.29-97.929 56.93-102.39 59.534h.016c-3.668 2.122-7.289 2.176-11.066.023-6.335-3.622-32.495-19.003-42.995-25.189v19.197l43.204 25.352c3.257 1.912 7.299 1.881 10.579 0 2.734-1.562 84.544-49.072 85.771-49.787a7.998 7.998 0 0 1 7.89-.093c1.733 1.024 6.381 3.699 8.836 5.105 2.465 1.422 2.348 5.34.156 6.606-2.191 1.29-97.929 56.931-102.39 59.533h.016c-3.668 2.123-7.289 2.169-11.066.023-6.335-3.621-32.495-19.003-42.995-25.189v21.747l43.204 25.353c3.257 1.911 7.299 1.88 10.579 0 2.734-1.562 84.544-49.073 85.771-49.788a8.003 8.003 0 0 1 7.89-.094c1.733 1.026 6.381 3.7 8.836 5.106 2.465 1.414 2.348 5.331.156 6.6-2.191 1.289-97.929 56.937-102.39 59.533h.016c-3.668 2.13-7.289 2.176-11.066.023-6.337-3.612-32.498-18.992-42.998-25.186v43.337c0 17.511 14.331 31.834 31.865 31.834h191.27c17.534 0 31.865-14.323 31.865-31.834V160.497c0-17.511-14.331-31.834-31.865-31.834z"/></svg>