<svg height="512" width="512" xmlns="http://www.w3.org/2000/svg"><g fill="none" fill-rule="evenodd"><circle cx="256" cy="256" fill="#1e1e1e" r="256"/><path d="M341.91 129.74c8.983 2.466 17.677 7.325 24.269 13.635 8.983 8.484 13.62 16.39 16.372 27.775 1.304 5.512 1.377 9.355 1.377 79.628 0 69.983-.073 73.827-1.232 73.464-2.97-.87-30.426-4.423-51.797-6.671l-4.057-.436 1.811-3.988c2.463-5.367 2.174-12.909-.724-17.695-3.912-6.745-10.07-10.298-17.531-10.298-7.462 0-13.62 3.553-17.532 10.298-2.463 4.06-3.115 12.11-1.376 16.317.652 1.523 1.16 2.828 1.16 2.9 0 0-17.097.073-37.961.073h-37.96l1.159-2.175c1.738-3.336 1.594-11.531-.29-15.665-5.868-12.836-22.385-15.81-32.527-5.947-5.94 5.73-7.534 15.157-3.912 22.554 2.246 4.497 3.622 3.916-12.388 5.584-11.88 1.233-36.439 4.497-38.612 5.15-1.231.362-1.231-3.046-1.087-75.64l.218-76.002 2.246-6.382c7.316-20.379 24.63-34.738 45.277-37.421 2.535-.363 39.698-.58 82.512-.508 72.516.145 78.166.218 82.586 1.45zM203.545 297.338c4.492 2.32 5.795 9.355 2.463 13.344-5.143 6.164-15.503 2.756-15.503-5.076 0-7.325 6.665-11.531 13.04-8.268zm111.852.435c1.015.798 2.39 2.466 2.97 3.554 3.912 7.615-4.636 15.374-12.46 11.313-2.318-1.16-4.564-5.004-4.564-7.687 0-4.424 4.42-8.703 9.056-8.703 2.028 0 3.694.508 4.998 1.523zm-10.07 27.486c25.573 1.523 55.782 4.641 72.806 7.47l5.433.87-.217 2.9c-.29 4.352-2.898 12.474-5.65 17.768-5.361 10.298-14.272 18.928-24.559 23.932-11.953 5.802-4.926 5.367-94.538 5.657-69.328.145-80.774 0-85.338-.943-11.301-2.32-19.705-6.89-28.036-15.23-6.085-6.091-9.49-11.168-12.46-18.492-2.1-5.367-4.13-14.504-3.332-15.302 1.449-1.378 41.365-6.092 66.503-7.905 29.919-2.176 80.05-2.466 109.389-.725z" fill="#fff" fill-rule="nonzero"/><g fill="#000"><path d="M233.608 188.7c-3.188 1.668-4.709 3.191-6.158 6.02-1.159 2.32-1.304 6.236-1.521 45.325l-.29 42.788 64.91.217c61.359.145 64.98.073 65.56-1.087.363-.726.725-22.264.87-47.937l.217-46.559h-60.707c-53.97.073-60.925.218-62.881 1.233z"/><path d="M172.393 223.728c-6.81 1.233-9.055 3.118-12.605 10.878-2.463 5.44-6.737 21.394-7.679 28.429-.797 6.526.073 14.939 3.333 31.909l1.883 10.008h8.186c7.824 0 8.186-.073 8.621-1.668.217-.87.435-2.248.435-3.046 0-2.61 3.622-9.355 6.737-12.546 9.78-10.153 26.152-10.153 35.714 0 1.667 1.668 3.623 4.206 4.347 5.439.724 1.305 1.594 2.393 1.884 2.393.29 0 .58-16.317.58-36.26v-36.261l-24.052.072c-13.257.073-25.572.363-27.384.653zm35.498 20.233v7.833l-8.186.435c-4.564.217-9.346.87-10.722 1.45-4.057 1.668-7.462 6.165-8.983 11.604l-1.304 4.859h-7.751c-4.275 0-7.897-.145-8.042-.363-.796-.725 1.015-11.748 2.97-18.275 2.319-7.76 4.782-11.966 8.187-13.997 2.1-1.305 3.694-1.45 18.11-1.45h15.72z" fill-rule="nonzero"/><path d="M225.784 287.33c-.797.797-.507 9.064.435 11.82.507 1.378 1.956 3.191 3.332 4.134 2.463 1.668 2.536 1.668 29.122 1.668h26.732v-1.668c0-3.191 2.173-9.065 4.709-12.764l2.535-3.698H259.47c-18.256 0-33.469.217-33.686.507zM330.682 290.52c2.246 3.336 4.709 9.5 4.709 12.039 0 .507.145.942.362.942 1.231 0 7.679-3.843 10.36-6.164 3.114-2.683 7.388-8.34 7.388-9.718 0-.507-4.129-.797-12.677-.797h-12.678z"/></g></g></svg>