<?xml version="1.0" encoding="utf-8"?>
<!-- Generator: Adobe Illustrator 16.0.0, SVG Export Plug-In . SVG Version: 6.00 Build 0)  -->
<!DOCTYPE svg PUBLIC "-//W3C//DTD SVG 1.1//EN" "http://www.w3.org/Graphics/SVG/1.1/DTD/svg11.dtd">
<svg version="1.1" id="Layer_1" xmlns="http://www.w3.org/2000/svg" xmlns:xlink="http://www.w3.org/1999/xlink" x="0px" y="0px"
	 width="512px" height="512px" viewBox="0 0 512 512" enable-background="new 0 0 512 512" xml:space="preserve">
<circle fill="#1E1E1E" cx="256" cy="256" r="256"/>
<g>
	<g>
		<path fill="#FFFFFF" d="M230.04,171.464c-3.958,2.071-5.847,3.963-7.646,7.475c-1.439,2.881-1.619,7.744-1.889,56.28l-0.36,53.13
			l80.598,0.269c76.19,0.181,80.687,0.092,81.407-1.35c0.451-0.901,0.899-27.645,1.079-59.522l0.271-57.812h-75.38
			C241.105,170.023,232.469,170.204,230.04,171.464z"/>
		<path fill="#FFFFFF" d="M154.03,214.958c-8.456,1.531-11.244,3.871-15.651,13.507c-3.058,6.755-8.366,26.565-9.535,35.301
			c-0.99,8.103,0.091,18.55,4.138,39.62l2.339,12.428h10.164c9.715,0,10.165-0.091,10.705-2.071c0.27-1.08,0.54-2.791,0.54-3.781
			c0-3.242,4.498-11.617,8.366-15.58c12.144-12.605,32.473-12.605,44.346,0c2.07,2.071,4.499,5.224,5.398,6.754
			c0.898,1.62,1.979,2.972,2.339,2.972c0.36,0,0.72-20.261,0.72-45.024v-45.024l-29.866,0.09
			C171.571,214.237,156.28,214.598,154.03,214.958z M198.108,240.081v9.727l-10.165,0.54c-5.667,0.269-11.605,1.08-13.314,1.801
			c-5.038,2.071-9.265,7.654-11.154,14.408l-1.62,6.034h-9.625c-5.308,0-9.806-0.181-9.985-0.451
			c-0.988-0.901,1.26-14.588,3.688-22.692c2.879-9.636,5.938-14.858,10.166-17.38c2.608-1.621,4.587-1.801,22.487-1.801h19.52
			L198.108,240.081z"/>
		<path fill="#FFFFFF" d="M220.326,293.933c-0.99,0.989-0.63,11.255,0.54,14.677c0.63,1.71,2.429,3.962,4.137,5.133
			c3.059,2.071,3.149,2.071,36.161,2.071h33.193v-2.071c0-3.962,2.698-11.256,5.848-15.85l3.146-4.591h-41.198
			C239.484,293.302,220.595,293.571,220.326,293.933L220.326,293.933z M350.576,297.893c2.789,4.143,5.848,11.796,5.848,14.949
			c0,0.631,0.181,1.17,0.449,1.17c1.529,0,9.535-4.771,12.865-7.654c3.865-3.33,9.173-10.355,9.173-12.066
			c0-0.63-5.127-0.989-15.74-0.989h-15.742L350.576,297.893z"/>
	</g>
	<path fill="#FFFFFF" d="M324.896,292.901c-13.576,0-24.583,11.007-24.583,24.583s11.007,24.583,24.583,24.583
		s24.583-11.007,24.583-24.583S338.473,292.901,324.896,292.901z M324.896,328.64c-6.16,0-11.153-4.995-11.153-11.155
		s4.993-11.154,11.153-11.154c6.159,0,11.153,4.994,11.153,11.154S331.056,328.64,324.896,328.64z"/>
	<path fill="#FFFFFF" d="M186.757,290.418c-13.576,0-24.583,11.007-24.583,24.583s11.007,24.583,24.583,24.583
		s24.583-11.007,24.583-24.583S200.333,290.418,186.757,290.418z M186.757,326.156c-6.16,0-11.153-4.995-11.153-11.155
		s4.993-11.154,11.153-11.154c6.16,0,11.153,4.994,11.153,11.154S192.917,326.156,186.757,326.156z"/>
</g>
</svg>
