<svg xmlns="http://www.w3.org/2000/svg" width="512" height="512"><circle fill="#1E1E1E" cx="256" cy="256" r="256"/><g fill="#FFF"><path d="M230.04 171.464c-3.958 2.071-5.847 3.963-7.646 7.475-1.439 2.881-1.619 7.744-1.889 56.28l-.36 53.13 80.598.269c76.19.181 80.687.092 81.407-1.35.451-.901.899-27.645 1.079-59.522l.271-57.812h-75.38c-67.015.089-75.651.27-78.08 1.53zm-76.01 43.494c-8.456 1.531-11.244 3.871-15.651 13.507-3.058 6.755-8.366 26.565-9.535 35.301-.99 8.103.091 18.55 4.138 39.62l2.339 12.428h10.164c9.715 0 10.165-.091 10.705-2.071.27-1.08.54-2.791.54-3.781 0-3.242 4.498-11.617 8.366-15.58 12.144-12.605 32.473-12.605 44.346 0 2.07 2.071 4.499 5.224 5.398 6.754.898 1.62 1.979 2.972 2.339 2.972.36 0 .72-20.261.72-45.024V214.06l-29.866.09c-16.462.087-31.753.448-34.003.808zm44.078 25.123v9.727l-10.165.54c-5.667.269-11.605 1.08-13.314 1.801-5.038 2.071-9.265 7.654-11.154 14.408l-1.62 6.034h-9.625c-5.308 0-9.806-.181-9.985-.451-.988-.901 1.26-14.588 3.688-22.692 2.879-9.636 5.938-14.858 10.166-17.38 2.608-1.621 4.587-1.801 22.487-1.801h19.52l.002 9.814zm22.218 53.852c-.99.989-.63 11.255.54 14.677.63 1.71 2.429 3.962 4.137 5.133 3.059 2.071 3.149 2.071 36.161 2.071h33.193v-2.071c0-3.962 2.698-11.256 5.848-15.85l3.146-4.591h-41.198c-22.669 0-41.558.269-41.827.631zm130.25 3.96c2.789 4.143 5.848 11.796 5.848 14.949 0 .631.181 1.17.449 1.17 1.529 0 9.535-4.771 12.865-7.654 3.865-3.33 9.173-10.355 9.173-12.066 0-.63-5.127-.989-15.74-.989h-15.742l3.147 4.59zm-25.68-4.992c-13.576 0-24.583 11.007-24.583 24.583s11.007 24.583 24.583 24.583 24.583-11.007 24.583-24.583-11.006-24.583-24.583-24.583zm0 35.739c-6.16 0-11.153-4.995-11.153-11.155s4.993-11.154 11.153-11.154c6.159 0 11.153 4.994 11.153 11.154s-4.993 11.155-11.153 11.155z"/><path d="M186.757 290.418c-13.576 0-24.583 11.007-24.583 24.583s11.007 24.583 24.583 24.583 24.583-11.007 24.583-24.583-11.007-24.583-24.583-24.583zm0 35.738c-6.16 0-11.153-4.995-11.153-11.155s4.993-11.154 11.153-11.154 11.153 4.994 11.153 11.154-4.993 11.155-11.153 11.155z"/></g></svg>