<?xml version="1.0" encoding="utf-8"?>
<!-- Generator: Adobe Illustrator 16.0.0, SVG Export Plug-In . SVG Version: 6.00 Build 0)  -->
<!DOCTYPE svg PUBLIC "-//W3C//DTD SVG 1.1//EN" "http://www.w3.org/Graphics/SVG/1.1/DTD/svg11.dtd">
<svg version="1.1" id="Layer_1" xmlns="http://www.w3.org/2000/svg" xmlns:xlink="http://www.w3.org/1999/xlink" x="0px" y="0px"
	 width="520px" height="520px" viewBox="0 0 520 520" enable-background="new 0 0 520 520" xml:space="preserve">
<g>
	<path fill="none" d="M259.064,173.791c100.909,0,101.881-18.095,101.881-18.095H157.055
		C157.055,155.696,158.154,173.791,259.064,173.791z"/>
	<g>
		<circle fill="#1E1E1E" cx="259" cy="259" r="256"/>
	</g>
	<g>
		<path fill="#FFFFFF" d="M258.924,386.5l-0.004-0.523l0.079,0.068h0.079l-0.003,0.455c59.814-1.304,69.477-19.264,76.292-32.893
			c6.95-13.902,25.486-196.942,25.486-196.942s0.096-0.351,0.092-0.969l0,0c0,0-0.972,18.095-101.881,18.095
			c-100.91,0-102.01-18.095-102.01-18.095h-0.001c-0.003,0.619,0.092,0.969,0.092,0.969s18.536,183.04,25.487,196.942
			C189.447,367.236,199.109,385.196,258.924,386.5z"/>
		<path fill="#D1D3D4" d="M360.945,157.118c0-0.083-0.002-0.172-0.007-0.265c0.005-0.037,0.006-0.058,0.006-0.058h-0.009
			c-0.295-5.179-7.643-24.191-99.678-24.196h-4.516c-92.036,0.005-99.384,19.018-99.679,24.196h-0.009c0,0,0,0.02,0.006,0.056
			c-0.005,0.093-0.007,0.183-0.007,0.268h0.001h0.069c0.728,2.425,9.007,17.771,101.94,17.771
			c92.932,0,101.103-15.347,101.812-17.771L360.945,157.118L360.945,157.118z"/>
	</g>
</g>
</svg>
