<svg xmlns="http://www.w3.org/2000/svg" width="512" height="512"><circle fill="#1E1E1E" cx="256" cy="256" r="256"/><path fill="#fff" d="M128.5 353.815l.001-61.215.001-79.375c.027-18.928.06-37.854.078-56.78.002-2.58.044-5.151.65-7.678 2.959-7.901 8.85-11.215 17.075-11.194 23.263.058 46.524-.001 69.786.032 9.303.013 14.725 4.196 17.332 13.183.084 2.233.231 4.468.24 6.701.067 19.248.111 38.495.163 57.743v93.509l.002 45.071c-.248 4.765-.212 9.533-3.264 13.702-3.297 4.506-7.676 6.813-13.127 6.829-24.279.072-48.562.156-72.839-.03-9.305-.071-16.027-6.001-16.025-16.136.002-1.453-.047-2.907-.073-4.362zm254.938-201.813l.062 86.108c-.029 10.743-.054 21.489-.091 32.233-.039 11.449-6.453 17.921-17.864 17.934-23.396.024-46.792-.145-70.185.097-7.436.077-12.183-3.316-15.643-9.365-.876-1.531-1.25-3.191-1.294-4.943-.077-3.017-.171-6.033-.258-9.05l.001-49.782c.05-11.642.089-23.283.153-34.925.056-9.851.143-19.701.215-29.552 2.805-9.221 8.068-13.152 17.727-13.159 23.174-.014 46.348-.019 69.521.002 9.915.009 15.616 4.693 17.656 14.402z"/></svg>