<svg width="512" height="512" fill="none" xmlns="http://www.w3.org/2000/svg"><path d="M256 512c141.385 0 256-114.615 256-256S397.385 0 256 0 0 114.615 0 256s114.615 256 256 256z" fill="#1E1E1E"/><path d="M381.028 263.997c-6.597-14.95-19.044-26.823-33.495-34.135-25.501-12.913-57.209-12.837-82.645.325-17.669 9.067-32.424 25.317-36.605 45.087-3.445 14.56-.358 30.235 7.366 42.91 11.494 19.087 32.272 31.275 53.851 35.185 15.632 3.174 31.806 1.289 46.994-3.087 9.121 3.531 17.246 9.251 26.086 13.498a568.759 568.759 0 0 0-7.323-22.771c9.923-7.042 18.914-15.827 24.309-26.855 8.06-15.329 8.547-34.352 1.462-50.157zM273.521 161.451c-27.028-15.209-60.686-17.495-89.762-6.987-19.109 6.879-36.399 19.662-47.08 37.049-9.696 15.708-13.325 35.294-8.656 53.266 4.691 19.933 18.535 36.648 35.337 47.806a862.81 862.81 0 0 0-9.262 27.679c10.562-5.525 21.125-11.299 31.698-16.911 12.674 4.063 26.161 6.056 39.648 5.612-3.574-10.216-4.387-21.287-2.762-31.969 2.438-14.852 10.562-28.436 21.601-38.5 18.698-17.496 45.185-24.873 70.371-23.085-4.723-23.129-20.972-42.672-41.425-53.949h.292v-.011zm18.774 108.211c-2.264 7.064-12.523 9.187-17.495 3.814-5.482-4.973-3.348-15.362 3.846-17.582 7.951-3.359 17.137 5.817 13.649 13.768zm51.945.997c-2.774 6.348-12.361 7.832-17.073 2.925-2.264-2.069-2.925-5.189-3.727-7.908 1.127-4.962 4.55-10.107 10.075-10.346 7.637-1.061 14.473 8.374 10.562 15.34h.163v-.011zm-77.511-69.916c.087 10.41-13.812 16.91-21.612 9.847-8.092-5.796-5.795-19.9 3.705-22.814 8.504-3.413 18.557 3.726 17.886 12.837l.021.13zm-65.637 2.643c-1.863 9.046-13.986 13.411-21.081 7.345-8.222-5.796-5.915-20.161 3.737-23.085 9.457-3.64 20.204 5.958 17.344 15.74z" fill="#fff"/></svg>