<svg xmlns="http://www.w3.org/2000/svg" width="512" height="512"><circle fill="#1E1E1E" cx="256" cy="256" r="256"/><g fill="#FFF"><path d="M249.96 128.602c-21.27 1.379-43.603 9.023-61.248 20.961-18.631 12.608-33.402 29.63-42.973 49.488-5.239 10.874-8.508 21.119-10.753 33.728-1.694 9.456-2.048 23.72-.866 34.672 1.576 14.736 6.972 32.389 14.259 46.81l2.086 4.059-4.844 14.46c-2.678 7.959-7.523 22.458-10.792 32.23-3.309 9.811-5.987 18.085-5.987 18.479 0 .355 39.664-7.801 54.552-12.608 7.799-2.481 14.495-4.531 14.889-4.531.354 0 2.048.67 3.742 1.537 14.417 7.25 29.777 11.584 46.124 13.082 6.46.551 19.616.275 25.957-.632 37.577-5.2 69.56-25.965 89.254-57.841 6.42-10.401 12.525-24.901 15.794-37.51 3.112-12.097 4.609-27.108 3.781-38.692-2.127-30.772-14.021-58.038-34.701-79.473-20.048-20.765-45.571-33.609-74.641-37.51-4.254-.552-18.985-1.025-23.633-.709zm15.399 26.95c14.062 1.143 25.604 4.255 37.774 10.205 16.504 8.117 30.329 20.252 40.569 35.698 7.878 11.86 12.723 24.626 14.613 38.574.905 6.62.905 20.016 0 26.793-6.42 47.637-45.729 84.358-93.43 87.353-16.818 1.025-32.455-1.733-47.738-8.432-4.214-1.852-11.186-5.635-13.352-7.211-.67-.512-1.537-.944-1.931-.944-.354 0-8.745 2.56-18.591 5.712-9.847 3.153-17.961 5.714-18 5.635-.079-.079 2.442-7.763 5.553-17.061 3.112-9.339 5.671-17.415 5.671-18.047 0-.63-.708-2.088-1.733-3.545-16.463-23.602-21.82-56.187-13.824-83.807 1.772-5.989 3.229-9.653 6.105-15.367 7.877-15.406 19.891-28.841 34.661-38.692 18.634-12.452 41.912-18.598 63.653-16.864z"/><path d="M213.156 192.632c-.908.277-2.21.908-2.961 1.342-2.014 1.263-7.858 7.499-9.674 10.34-5.804 9.037-7.107 21.074-3.632 32.833 2.645 8.88 5.884 15.667 11.806 24.823 7.501 11.524 12.358 17.759 20.137 25.771 11.687 12.036 21.519 18.784 36.603 25.06 11.134 4.656 19.348 7.301 23.967 7.774 3.197.315 10.187-.79 14.293-2.289 5.686-2.053 12.2-6.63 14.728-10.34 2.527-3.789 5.133-12.353 5.449-18.035l.237-3.75-1.225-1.42c-.869-.947-4.423-3.078-11.609-6.945-17.057-9.155-19.229-10.023-21.913-8.604-.671.316-3.198 2.881-5.566 5.644-7.029 8.17-8.489 9.59-9.675 9.59-1.5 0-11.331-5.012-15.911-8.09-5.331-3.632-8.805-6.552-13.188-11.09-5.212-5.406-10.857-13.141-14.017-19.179l-.711-1.421 2.843-3.117c3.751-3.986 5.29-6.394 6.791-10.577 1.54-4.262 1.461-5.564-.79-11.444-2.014-5.25-3.633-9.59-6.436-17.127-2.291-6.196-3.988-8.722-6.357-9.472-2.251-.671-11.333-.868-13.189-.277z"/></g></svg>