<svg width="512" height="512" xmlns="http://www.w3.org/2000/svg"><g fill="none" fill-rule="evenodd"><circle fill="#1E1E1E" cx="256" cy="256" r="256"/><g fill="#FFF"><path d="M248.59 100.137c-26.094 1.692-53.493 11.07-75.14 25.716-22.857 15.468-40.978 36.35-52.72 60.713-6.427 13.34-10.437 25.909-13.192 41.377-2.078 11.601-2.513 29.1-1.063 42.538 1.933 18.078 8.553 39.734 17.493 57.425l2.56 4.98-5.943 17.74c-3.286 9.764-9.23 27.552-13.24 39.54-4.06 12.036-7.345 22.187-7.345 22.67 0 .435 48.66-9.57 66.926-15.468 9.567-3.045 17.782-5.559 18.265-5.559.435 0 2.513.822 4.59 1.885 17.687 8.895 36.532 14.212 56.586 16.049 7.925.676 24.064.338 31.844-.774 46.099-6.38 85.336-31.855 109.497-70.96 7.877-12.761 15.366-30.55 19.377-46.018 3.818-14.84 5.654-33.257 4.639-47.468-2.61-37.752-17.203-71.202-42.572-97.498-24.595-25.474-55.908-41.232-91.57-46.018-5.218-.677-23.29-1.257-28.992-.87zm18.893 33.063c17.251 1.402 31.41 5.22 46.341 12.52 20.247 9.958 37.208 24.846 49.771 43.794 9.665 14.55 15.608 30.212 17.928 47.323 1.111 8.121 1.111 24.556 0 32.87-7.877 58.441-56.102 103.492-114.62 107.166-20.633 1.257-39.817-2.127-58.566-10.345-5.17-2.271-13.723-6.912-16.38-8.845-.822-.629-1.885-1.16-2.368-1.16-.435 0-10.728 3.141-22.808 7.008-12.08 3.868-22.035 7.01-22.083 6.913-.097-.097 2.996-9.523 6.813-20.93 3.817-11.457 6.958-21.366 6.958-22.14 0-.773-.87-2.561-2.126-4.35-20.198-28.954-26.77-68.93-16.96-102.815 2.174-7.347 3.962-11.843 7.49-18.852 9.664-18.9 24.402-35.383 42.522-47.468 22.857-15.275 51.415-22.816 78.088-20.689z" fill-rule="nonzero"/><path d="M203.438 178.691c-1.114.34-2.712 1.114-3.633 1.646-2.47 1.55-9.64 9.2-11.868 12.685-7.12 11.087-8.719 25.854-4.456 40.281 3.245 10.894 7.218 19.221 14.484 30.454 9.203 14.137 15.161 21.786 24.704 31.615 14.338 14.766 26.4 23.045 44.904 30.743 13.66 5.713 23.735 8.957 29.403 9.538 3.923.387 12.497-.968 17.535-2.808 6.975-2.518 14.968-8.134 18.068-12.685 3.1-4.648 6.297-15.154 6.685-22.126l.29-4.6-1.501-1.742c-1.066-1.162-5.426-3.776-14.242-8.521-20.926-11.232-23.59-12.297-26.884-10.555-.823.388-3.924 3.535-6.83 6.924-8.622 10.022-10.414 11.765-11.868 11.765-1.84 0-13.902-6.149-19.52-9.925-6.54-4.455-10.803-8.037-16.18-13.605-6.394-6.633-13.32-16.122-17.196-23.53l-.872-1.743 3.488-3.824c4.602-4.89 6.49-7.844 8.331-12.976 1.89-5.229 1.793-6.826-.968-14.04-2.47-6.44-4.457-11.765-7.896-21.012-2.81-7.601-4.892-10.7-7.799-11.62-2.76-.823-13.902-1.065-16.179-.339z"/></g></g></svg>