<?xml version="1.0" encoding="utf-8"?>
<!-- Generator: Adobe Illustrator 16.0.0, SVG Export Plug-In . SVG Version: 6.00 Build 0)  -->
<!DOCTYPE svg PUBLIC "-//W3C//DTD SVG 1.1//EN" "http://www.w3.org/Graphics/SVG/1.1/DTD/svg11.dtd">
<svg version="1.1" id="Layer_1" xmlns="http://www.w3.org/2000/svg" xmlns:xlink="http://www.w3.org/1999/xlink" x="0px" y="0px"
	 width="520px" height="520px" viewBox="0 0 520 520" enable-background="new 0 0 520 520" xml:space="preserve">
<g>
	<g>
		<circle fill="#1E1E1E" cx="260.496" cy="260.49" r="256"/>
	</g>
	<g>
		<g>
			<path fill-rule="evenodd" clip-rule="evenodd" fill="#FFFFFF" stroke="#FFFFFF" d="M320.154,242.84
				c-4.609-1.544-8.687-2.923-12.774-4.277c-3.381-1.12-2.058-3.449-1.382-5.528c3.775-11.588,8.512-22.963,11.091-34.81
				c1.842-8.469,1.875-17.695,0.794-26.343c-1.362-10.913-9.833-16.349-24.513-17.675c-6.536-0.593-13.105-0.73-20.509-1.119
				c1.756-1.32,3.132-2.703,4.789-3.544c12.732-6.485,26.428-7.686,40.24-5.854c8.562,1.133,17.189,3.233,25.23,6.338
				c6.316,2.44,12.257,6.521,17.484,10.922c4.224,3.559,8.27,4.047,13.381,3.88c4.253-0.14,8.61,1.349,12.804,2.534
				c0.71,0.201,1.47,2.71,1.117,3.8c-2.372,7.28-4.97,14.491-7.692,21.651c-0.386,1.017-2.18,2.506-2.749,2.284
				c-4.1-1.568-9.076-2.569-11.843-5.547c-6.739-7.26-21.111-7.038-25.396,1.935c-5.467,11.438-9.816,23.414-14.476,35.228
				C323.724,231.849,322.115,237.15,320.154,242.84z"/>
			<path fill-rule="evenodd" clip-rule="evenodd" fill="#FFFFFF" stroke="#FFFFFF" d="M253.961,360.185
				c0.241-0.825,0.675-3.061,1.519-5.124c15.109-36.759,30.321-73.477,45.319-110.278c1.504-3.682,3.128-4.216,6.658-2.982
				c11.479,4.009,11.734,3.958,8.279,15.812c-10.533,36.131-21.156,72.237-31.942,108.292c-3.413,11.407-11.961,15.033-21.837,9.852
				C256.521,372.906,253.642,367.849,253.961,360.185z"/>
		</g>
		<g>
			<path fill="none" stroke="#FFFFFF" stroke-width="3" stroke-miterlimit="10" d="M197.14,332.948
				c4.121-5.104,8.427-10.407,9.565-11.784c1.141-1.378,2.062-2.626,2.049-2.772c-0.024-0.269-15.619-7.519-16.282-7.57
				c-0.195-0.017-0.416,0.382-0.492,0.894c-0.173,1.139-1.96,18.251-2.927,27.99c-0.207,2.079-0.124,2.639,0.371,2.561
				C189.546,342.246,193.017,338.053,197.14,332.948L197.14,332.948z"/>
			<path fill="none" stroke="#FFFFFF" stroke-width="3" stroke-miterlimit="10" d="M331.392,318.884
				c2.028-3.764,2.312-11.254,0.671-17.671c-1.868-7.301-4.697-12.107-9.227-15.685c-3.361-2.655-5.896-2.948-8.429-0.973
				c-3.949,3.077-7.654,6.264-8.16,7.018c-1.511,2.251-0.879,5.427,1.824,9.184c2.734,3.799,5.371,5.797,10.924,8.283
				c5.729,2.568,8.246,4.827,10.08,9.041c0.59,1.352,1.058,1.881,1.601,1.808C330.779,319.875,331.101,319.422,331.392,318.884z"/>
			<path fill="none" stroke="#FFFFFF" stroke-width="3" stroke-miterlimit="10" d="M214.15,306.227
				c7.047-19.064,16.137-42.776,21.859-57.023c1.245-3.105,2.257-5.729,2.24-5.829c-0.053-0.325-16.088-6.993-16.463-6.844
				c-0.376,0.147-9.956,24.207-16.669,41.861c-2.128,5.597-5.343,13.591-7.143,17.767c-1.799,4.175-3.545,8.223-3.875,8.995
				c-0.35,0.81-0.489,1.483-0.33,1.593c0.756,0.526,16.993,7.627,17.204,7.524C211.109,314.205,212.539,310.584,214.15,306.227
				L214.15,306.227z"/>
			<path fill="none" stroke="#FFFFFF" stroke-width="3" stroke-miterlimit="10" d="M334.982,266.323
				c0.076-0.208-0.511-4.303-1.303-9.099l-1.439-8.724l-16.154,2.49c-14.095,2.171-16.135,2.535-16.007,2.864
				c0.082,0.207,2.983,3.967,6.446,8.355l6.294,7.977l1.076-0.087c0.591-0.05,5.546-0.834,11.009-1.744
				C332.759,267.048,334.871,266.623,334.982,266.323L334.982,266.323z"/>
			<path fill="none" stroke="#FFFFFF" stroke-width="3" stroke-miterlimit="10" d="M283.851,274.04
				c0.023-0.143-2.636-3.676-5.909-7.855l-5.948-7.596l-19.681,3.118l-19.685,3.116l-3.315,9.151
				c-1.822,5.032-3.241,9.238-3.151,9.343C226.393,283.586,283.798,274.354,283.851,274.04L283.851,274.04z"/>
			<path fill="none" stroke="#FFFFFF" stroke-width="3" stroke-miterlimit="10" d="M199.072,285.987
				c0.383-0.997,1.961-5.102,3.51-9.124c1.547-4.021,2.794-7.434,2.77-7.582c-0.028-0.18-5.477,0.613-16.552,2.413l-16.51,2.687
				l0.206,1.872c0.113,1.028,0.766,4.875,1.451,8.543l1.245,6.671l11.593-1.836l11.594-1.836L199.072,285.987z"/>
			<path fill="none" stroke="#FFFFFF" stroke-width="3" stroke-miterlimit="10" d="M295.884,267.184
				c6.152-4.776,6.06-4.695,5.983-5.171c-0.071-0.463-4.617-6.179-19.977-25.123c-16.884-20.826-24.321-30.005-29.268-36.128
				c-4.875-6.035-5.976-7.131-7.748-7.708c-1.395-0.453-3.478-0.229-4.728,0.509c-1.193,0.707-5.262,4.029-6.301,5.142
				c-1.664,1.788-1.92,4.841-0.584,7.006c0.721,1.168,0.265,0.601,16.23,20.259c25.133,30.946,37.997,46.523,38.691,46.842
				c0.171,0.081,0.858-0.285,1.525-0.814C290.375,271.471,293.154,269.304,295.884,267.184z"/>
			<path fill="none" stroke="#FFFFFF" stroke-width="3" stroke-miterlimit="10" d="M240.928,235.691
				c2.312-5.742,2.627-6.732,2.597-8.167c-0.062-2.98-1.908-4.69-7.194-6.674c-2.995-1.124-3.47-1.222-5.099-1.058
				c-2.221,0.224-3.235,0.858-4.48,2.81c-0.935,1.459-4.091,9.979-3.969,10.705c0.045,0.26,3.07,1.661,8.002,3.706
				c4.36,1.807,8.013,3.28,8.115,3.271C239,240.275,239.915,238.208,240.928,235.691z"/>
			<path fill="none" stroke="#FFFFFF" stroke-width="3" stroke-miterlimit="10" d="M132.996,197.661l25.631,161.826l213.004-33.736
				l-25.632-161.825L132.996,197.661z"/>
		</g>
	</g>
</g>
</svg>
