<svg xmlns="http://www.w3.org/2000/svg" width="512" height="512"><circle fill="#1E1E1E" cx="256" cy="256" r="256"/><g stroke="#FFF"><g fill-rule="evenodd" clip-rule="evenodd" fill="#FFF"><path d="M315.659 238.35c-4.609-1.544-8.688-2.923-12.775-4.277-3.381-1.12-2.057-3.449-1.381-5.528 3.775-11.588 8.512-22.963 11.09-34.81 1.842-8.469 1.875-17.695.795-26.343-1.363-10.913-9.834-16.349-24.514-17.675-6.535-.593-13.105-.73-20.508-1.119 1.756-1.32 3.131-2.703 4.789-3.544 12.732-6.485 26.428-7.686 40.24-5.854 8.561 1.133 17.189 3.233 25.23 6.338 6.316 2.44 12.256 6.521 17.484 10.922 4.223 3.559 8.27 4.047 13.381 3.88 4.252-.14 8.609 1.349 12.803 2.534.711.201 1.471 2.71 1.117 3.8-2.371 7.28-4.969 14.491-7.691 21.651-.387 1.017-2.18 2.506-2.75 2.284-4.1-1.568-9.076-2.569-11.842-5.547-6.74-7.26-21.111-7.038-25.396 1.935-5.467 11.438-9.816 23.414-14.475 35.228-2.027 5.133-3.636 10.435-5.597 16.125zM249.466 355.694c.241-.824.675-3.061 1.519-5.123 15.11-36.76 30.321-73.477 45.319-110.279 1.504-3.682 3.129-4.216 6.658-2.982 11.48 4.009 11.734 3.958 8.279 15.812-10.533 36.131-21.156 72.237-31.941 108.292-3.414 11.408-11.961 15.033-21.838 9.852-5.437-2.849-8.316-7.908-7.996-15.572z"/></g><g fill="none" stroke-width="3" stroke-miterlimit="10"><path d="M192.645 328.458c4.121-5.104 8.427-10.406 9.565-11.783 1.141-1.379 2.062-2.627 2.049-2.773-.024-.268-15.619-7.518-16.282-7.57-.195-.016-.416.383-.492.895-.173 1.139-1.96 18.25-2.927 27.99-.207 2.078-.124 2.639.371 2.561.122-.022 3.592-4.215 7.716-9.32h0zM326.897 314.393c2.027-3.764 2.312-11.254.67-17.67-1.867-7.301-4.697-12.107-9.227-15.686-3.361-2.654-5.896-2.947-8.428-.973-3.949 3.078-7.654 6.264-8.16 7.018-1.512 2.252-.879 5.428 1.824 9.184 2.734 3.799 5.371 5.797 10.924 8.283 5.729 2.568 8.246 4.828 10.08 9.041.59 1.352 1.057 1.881 1.6 1.809.104-.014.426-.467.717-1.006zM209.654 301.737c7.047-19.064 16.137-42.777 21.859-57.024 1.245-3.105 2.257-5.729 2.24-5.829-.053-.325-16.088-6.993-16.463-6.844-.376.147-9.956 24.207-16.669 41.861-2.128 5.598-5.343 13.592-7.143 17.768-1.799 4.174-3.545 8.223-3.875 8.994-.35.811-.489 1.484-.33 1.594.756.525 16.993 7.627 17.204 7.523.136-.065 1.566-3.686 3.177-8.043h0zM330.487 261.833c.076-.207-.512-4.302-1.303-9.098l-1.439-8.724-16.154 2.49c-14.096 2.171-16.135 2.535-16.008 2.864.082.207 2.984 3.967 6.447 8.355l6.293 7.977 1.076-.088c.592-.049 5.547-.834 11.01-1.744 7.855-1.308 9.966-1.732 10.078-2.032h0zM279.356 269.549c.023-.143-2.637-3.676-5.91-7.855l-5.947-7.595-19.681 3.118-19.685 3.116-3.315 9.152c-1.822 5.031-3.241 9.238-3.151 9.342.23.269 57.636-8.963 57.689-9.278h0zM194.576 281.497c.383-.996 1.961-5.102 3.51-9.123 1.547-4.021 2.794-7.434 2.77-7.582-.028-.18-5.477.613-16.552 2.412l-16.51 2.688.206 1.871c.113 1.029.766 4.875 1.451 8.543l1.245 6.672 11.593-1.836 11.594-1.836.693-1.809zM291.389 262.694c6.152-4.777 6.059-4.696 5.982-5.171-.07-.463-4.617-6.179-19.977-25.123a32069.506 32069.506 0 0 1-29.267-36.128c-4.875-6.035-5.976-7.131-7.748-7.708-1.395-.453-3.478-.229-4.728.509-1.193.707-5.262 4.029-6.301 5.142-1.664 1.788-1.92 4.841-.584 7.006.721 1.168.265.601 16.23 20.259 25.133 30.946 37.997 46.524 38.692 46.842.17.08.857-.285 1.525-.814.666-.527 3.446-2.695 6.176-4.814zM236.433 231.201c2.312-5.742 2.627-6.732 2.597-8.167-.062-2.98-1.908-4.69-7.194-6.674-2.995-1.124-3.47-1.222-5.099-1.058-2.221.224-3.235.858-4.48 2.81-.935 1.459-4.091 9.979-3.969 10.705.045.26 3.07 1.661 8.002 3.706 4.36 1.807 8.013 3.28 8.115 3.271.1-.009 1.014-2.076 2.028-4.593z"/><path d="M128.5 193.171l25.631 161.826 213.004-33.736-25.633-161.825L128.5 193.171z"/></g></g></svg>