<?xml version="1.0" standalone="no"?>
<!DOCTYPE svg PUBLIC "-//W3C//DTD SVG 20010904//EN"
 "http://www.w3.org/TR/2001/REC-SVG-20010904/DTD/svg10.dtd">
<svg version="1.0" xmlns="http://www.w3.org/2000/svg"
 width="938.000000pt" height="938.000000pt" viewBox="0 0 938.000000 938.000000"
 preserveAspectRatio="xMidYMid meet">
<metadata>
Created by potrace 1.11, written by Peter Selinger 2001-2013
</metadata>
<g transform="translate(0.000000,938.000000) scale(0.100000,-0.100000)"
fill="#000000" stroke="none">
<path d="M3130 9366 c-30 -8 -58 -12 -62 -10 -5 3 -8 0 -8 -7 0 -7 -3 -10 -6
-7 -3 4 -17 0 -31 -7 -15 -8 -30 -12 -35 -9 -4 3 -8 0 -8 -6 0 -6 -4 -9 -10
-5 -5 3 -17 1 -27 -5 -20 -11 -197 -92 -200 -91 -14 2 -376 -199 -381 -211 -2
-4 -12 -8 -23 -8 -11 0 -22 -7 -25 -15 -4 -8 -10 -15 -15 -15 -8 0 -146 -87
-159 -100 -3 -3 -27 -21 -55 -39 -86 -60 -317 -245 -378 -303 -16 -16 -30 -28
-33 -28 -4 0 -22 -18 -200 -192 -97 -95 -139 -139 -249 -262 -52 -58 -119
-138 -135 -161 -8 -12 -21 -28 -28 -36 -68 -76 -289 -401 -363 -534 -18 -33
-35 -62 -38 -65 -4 -3 -33 -59 -66 -125 -33 -66 -62 -122 -65 -125 -3 -3 -17
-32 -32 -65 -14 -33 -37 -82 -49 -110 -13 -27 -23 -52 -24 -55 -1 -3 -8 -21
-16 -40 -16 -36 -117 -307 -124 -332 -2 -5 -3 -9 -5 -10 -1 -2 -3 -10 -5 -18
-1 -8 -15 -52 -29 -97 -15 -45 -29 -94 -32 -108 -2 -14 -11 -45 -19 -68 -7
-23 -16 -55 -19 -72 -2 -16 -5 -32 -6 -35 -1 -3 -2 -8 -1 -12 0 -5 -4 -8 -10
-8 -5 0 -8 -4 -5 -9 4 -5 -1 -38 -9 -73 -9 -35 -18 -74 -20 -88 -2 -14 -9 -50
-15 -80 -6 -30 -14 -66 -16 -80 -3 -14 -7 -41 -9 -60 -2 -19 -4 -35 -5 -35 -3
0 -7 -29 -14 -85 -3 -30 -8 -66 -10 -80 -5 -26 -11 -92 -23 -235 -14 -176 -6
-735 11 -752 3 -3 1 -14 -5 -24 -5 -11 -6 -19 -1 -19 5 0 9 -15 10 -32 2 -52
11 -131 17 -158 3 -14 8 -43 10 -65 8 -62 15 -108 20 -135 3 -14 8 -41 11 -60
9 -48 10 -52 34 -160 11 -52 23 -104 25 -115 9 -46 66 -262 75 -285 6 -14 13
-38 16 -54 3 -16 8 -34 12 -40 3 -6 7 -15 8 -21 3 -13 52 -164 63 -190 5 -11
16 -37 25 -58 9 -21 16 -44 16 -52 0 -8 5 -15 11 -15 5 0 8 -4 5 -9 -3 -5 12
-48 34 -95 21 -47 36 -86 32 -86 -4 0 -2 -4 4 -8 5 -4 21 -33 33 -65 13 -31
27 -57 32 -57 5 0 8 -3 7 -7 -3 -9 66 -150 98 -203 11 -19 32 -56 46 -81 43
-77 53 -93 63 -104 6 -6 19 -29 30 -50 22 -43 23 -45 58 -90 12 -16 31 -43 41
-60 10 -16 37 -55 60 -85 22 -30 44 -59 48 -65 17 -24 102 -130 108 -135 3 -3
16 -18 29 -35 72 -95 327 -358 451 -465 34 -30 81 -72 104 -92 23 -21 49 -40
59 -43 9 -4 17 -10 17 -14 0 -4 21 -23 48 -41 26 -19 49 -36 52 -40 11 -11
115 -87 123 -88 4 -1 15 -8 23 -16 8 -9 41 -32 72 -53 31 -21 60 -42 64 -48 5
-6 8 -6 8 0 0 6 3 6 8 -1 4 -6 29 -24 55 -40 27 -16 61 -37 75 -46 15 -10 34
-21 42 -25 59 -30 176 -98 178 -104 2 -4 9 -6 17 -3 7 3 16 1 19 -4 8 -13 171
-91 368 -176 20 -9 40 -16 45 -16 4 0 19 -6 33 -13 14 -7 45 -19 70 -27 25 -7
50 -17 55 -20 6 -4 44 -17 85 -30 41 -13 80 -27 86 -31 6 -5 13 -7 16 -4 3 3
24 -2 48 -10 41 -14 252 -70 345 -90 17 -4 168 -35 195 -40 41 -8 130 -22 190
-30 19 -2 46 -7 60 -10 14 -3 46 -6 73 -7 26 -1 47 -5 47 -8 0 -3 24 -6 53 -7
28 0 77 -4 107 -7 261 -26 665 -27 915 -1 22 2 77 6 121 10 45 3 93 8 105 10
13 3 44 7 69 9 25 3 62 7 83 10 88 14 103 16 122 19 11 3 36 7 55 10 84 15 96
17 115 22 11 2 39 9 63 15 23 6 55 12 70 14 15 2 34 6 42 9 14 5 106 30 123
33 4 1 9 3 12 4 6 3 8 4 50 14 17 5 93 29 170 54 77 25 143 45 148 44 4 -1 7
2 7 8 0 5 6 10 13 10 12 0 93 30 162 59 149 64 439 208 514 256 23 14 45 25
50 25 5 0 14 7 21 15 7 8 16 12 21 9 5 -3 9 -1 9 4 0 5 11 14 25 20 14 7 31
17 38 22 7 6 48 34 92 62 44 29 82 56 83 60 2 4 10 8 17 8 8 0 21 10 29 22 9
12 16 19 16 15 0 -5 20 8 44 27 23 20 48 36 55 36 6 0 11 4 11 8 0 4 17 21 39
37 212 163 533 483 686 683 6 7 20 24 33 37 12 13 22 28 22 33 0 6 7 13 16 16
9 4 14 9 11 12 -3 3 2 14 11 23 10 10 24 28 32 40 8 13 25 35 38 49 12 15 25
35 28 45 3 9 10 17 15 17 5 0 9 7 9 15 0 8 5 15 10 15 6 0 10 6 10 13 0 8 9
22 20 32 11 10 20 24 20 32 0 7 5 13 10 13 6 0 10 6 10 13 0 7 9 23 20 35 11
12 20 23 20 26 0 6 72 129 80 136 3 3 14 23 25 45 11 22 22 42 25 45 6 5 140
268 139 273 0 1 4 13 9 27 12 30 66 167 77 195 5 11 9 22 10 25 0 3 12 37 25
75 35 100 34 218 -2 295 -30 66 -105 147 -170 184 -27 15 -48 24 -48 20 0 -3
-7 -1 -16 7 -17 14 -165 19 -219 7 -38 -8 -121 -36 -161 -54 -17 -7 -40 -15
-50 -17 -11 -2 -32 -9 -47 -15 -15 -7 -40 -15 -55 -18 -15 -4 -33 -11 -39 -17
-7 -5 -13 -7 -13 -4 0 3 -21 -2 -47 -10 -44 -14 -170 -48 -218 -58 -64 -14
-132 -28 -145 -30 -8 -1 -31 -5 -50 -9 -69 -12 -135 -22 -210 -31 -19 -2 -46
-6 -60 -9 -159 -32 -822 -39 -1047 -11 -21 3 -60 7 -88 10 -27 2 -66 7 -85 10
-67 9 -185 27 -205 31 -11 2 -45 9 -75 15 -30 6 -64 12 -75 14 -11 1 -20 3
-20 5 0 1 -11 3 -25 5 -14 1 -34 5 -45 8 -11 3 -47 12 -80 21 -151 37 -191 48
-205 53 -8 4 -18 7 -22 8 -5 2 -9 3 -10 4 -2 2 -13 4 -24 6 -12 3 -34 9 -50
15 -16 6 -31 12 -34 12 -9 1 -213 76 -275 101 -117 47 -392 181 -405 196 -3 3
-25 17 -50 30 -91 49 -372 245 -430 300 -9 9 -40 35 -68 59 -75 63 -252 240
-252 253 0 5 -4 7 -10 4 -6 -3 -10 -1 -10 5 0 6 -10 21 -22 34 -13 13 -34 37
-48 55 -14 17 -36 44 -50 59 -14 16 -34 42 -45 57 -11 16 -29 40 -41 54 -11
14 -29 41 -39 59 -11 17 -23 32 -27 32 -4 0 -8 6 -8 13 0 8 -9 22 -20 32 -11
10 -20 22 -20 26 0 5 -20 39 -44 76 -24 37 -60 100 -81 138 -20 39 -42 76 -47
82 -6 7 -7 13 -4 13 4 0 -1 12 -11 28 -16 23 -43 74 -48 92 -2 5 -34 77 -60
135 -29 63 -115 310 -141 405 -65 237 -113 480 -128 650 -3 30 -9 82 -12 115
-4 33 -8 88 -8 122 -1 35 -3 63 -6 63 -9 0 -6 684 3 698 5 7 4 12 -3 12 -6 0
-8 5 -5 11 4 6 9 43 11 82 2 40 6 92 9 117 3 25 8 70 10 100 6 69 11 105 20
150 3 19 12 69 20 110 20 110 25 131 37 175 6 22 12 49 13 60 2 11 8 34 15 50
6 17 10 30 9 30 -11 0 102 303 136 367 8 14 15 33 15 41 0 9 5 17 11 19 5 2
11 10 13 18 1 8 10 32 19 52 29 68 41 190 25 260 -34 150 -145 267 -288 305
-44 12 -171 11 -220 -1z"/>
</g>
</svg>
